<?xml version="1.0" encoding="utf-8"?>
<!-- Generator: Adobe Illustrator 16.0.0, SVG Export Plug-In . SVG Version: 6.00 Build 0)  -->
<!DOCTYPE svg PUBLIC "-//W3C//DTD SVG 1.1//EN" "http://www.w3.org/Graphics/SVG/1.1/DTD/svg11.dtd">
<svg version="1.1" id="Layer_1" xmlns="http://www.w3.org/2000/svg" xmlns:xlink="http://www.w3.org/1999/xlink" x="0px" y="0px"
	 width="512px" height="512px" viewBox="0 0 512 512" enable-background="new 0 0 512 512" xml:space="preserve">
<g>
	
		<path fill-rule="evenodd" clip-rule="evenodd" fill="#FFFFFF" stroke="#148BBE" stroke-width="10.0001" stroke-miterlimit="2.6131" d="
		M377.016,7.133H142.26c-23.879,0-43.416,19.543-43.416,43.43v410.009c0,23.885,19.537,43.429,43.416,43.429h234.756
		c23.88,0,43.416-19.544,43.416-43.429V50.562C420.432,26.676,400.896,7.133,377.016,7.133L377.016,7.133z"/>
	<path fill-rule="evenodd" clip-rule="evenodd" fill="#0574A8" d="M374.013,14.558h-228.75c-20.97,0-38.128,17.514-38.128,38.92
		v403.049c0,21.407,17.158,38.92,38.128,38.92h228.75c20.971,0,38.127-17.513,38.127-38.92V53.478
		C412.14,32.072,394.983,14.558,374.013,14.558L374.013,14.558z"/>
	<path fill-rule="evenodd" clip-rule="evenodd" fill="#57B659" d="M412.14,370.053c-14.809,8.205-48.906,27.769-89.139,28.146
		c-40.231,0.376-154.892-26.381-215.866-19.239v77.568c0,21.407,17.158,38.92,38.128,38.92h228.75
		c20.971,0,38.127-17.513,38.127-38.92V370.053L412.14,370.053z"/>
	<path fill-rule="evenodd" clip-rule="evenodd" fill="#FFFFFF" d="M368.119,411.405c18.549,0,33.591,15.04,33.591,33.591
		c0,18.547-15.042,33.591-33.591,33.591s-33.591-15.044-33.591-33.591C334.528,426.445,349.57,411.405,368.119,411.405
		L368.119,411.405z"/>
	<path fill-rule="evenodd" clip-rule="evenodd" fill="#FFFFFF" d="M106.002,397.088l4.405-2.753l4.129-1.377
		c0,0,16.589,5.368,17.897,5.781c1.308,0.414,19.46-1.211,26.707-2.478c7.248-1.268,30.687-50.672,31.664-52.038
		s23.727,18.412,29.675,18.564c5.947,0.153,16.572-2.938,19.202-0.893c6.24,4.847,19.144,11.817,19.817,15.231l4.544,22.987
		l-2.202,1.379l-0.413,6.332c-0.401,6.148,1.803,0.718,4.68,3.58c0.561,0.557,0.949,3.512,3.172,7.063
		c4.551,7.274,12.841,18.816,18.365,29.736c5.627,11.122,9.033,21.513,8.889,22.395l-0.948,5.747l-2.116,2.859
		c-2.529,3.422-2.316,7.296-2.994,11.081l0.688,2.753l-0.136,4.819h83.148c0.183-4.313,2.017-2.844-3.165-7.847l-10.05-2.616
		l-9.912-4.405l-6.245-4.695l-10.825-3.979l-1.893-15.505l-2.926-3.217c-0.354-2.249-0.869-4.775-1.5-7.477
		c-0.632-2.704-1.38-5.585-2.199-8.549c-0.82-2.963-1.713-6.008-2.633-9.038s-1.867-6.047-2.798-8.952
		c-0.931-2.904-1.845-5.7-2.698-8.286c-0.853-2.588-1.645-4.97-2.332-7.048c-0.686-2.075-1.268-3.852-1.698-5.227
		c-0.432-1.374-1.206-2.56-0.8-2.83l2.475-1.656l-0.825-7.433l-6.732-3.265l-21.624-52.487
		c-17.805-20.468-40.566-38.686-62.776-55.479l-3.337-35.258l1.409-14.303c15.419,7.434,32.489,17.896,47.633,21.476
		c10.922-2.294,30.104-4.313,35.242-9.911c3.333-3.601,0.247-8.182-0.971-11.491c-1.217-3.31,2.578-8.241-1.022-10.39
		c-3.6-2.15,2.13-1.842-0.209-4.828l-12.391-2.202l-7.708,3.304l-3.304,7.709c-5.164-4.265-11.154-7.429-15.491-12.796l-9.841-8.129
		l-8.811-2.202c-11.563-10.738-19.824-24.229-29.736-36.344c-1.193-10.095-2.386-30.103-5.231-31.938l-12.983-7.107l-4.363-5.008
		l2.753-7.71c2.918-0.841,9.916-1.398,10.63-6.015c2.781-3.198,2.277-5.78,4.302-6.961c4.455-2.598,9.514-0.994,9.71-4.643
		l0.411-7.71c0,0,2.205-3.511,4.682-11.358c0.58-1.839,1.233-10.868,2.031-12.533c3.024-6.308,1.823-6.574,1.273-8.599
		c-0.765-2.819-8.84-24.684-27.894-29.075c-11.508-2.652-26.243-6.174-35.036,5.646c-2.217,2.981-3.517,4.837-4.959,8.216
		c-2.979,6.977-4.768,15.272-4.815,21.992c-0.048,6.712,2.052,11.215-1.498,11.392c-2.753,0.139-9.359,3.719-8.948,5.921
		c0.551,3.717,3.99,6.606,1.514,7.985c-8.711-0.095-20.491,1.31-25.053,3.854l-16.66,7.022l-2.202,66.08l2.184-10.328l3.873-1.236
		l5.507,3.304l17.622,75.992l11.564,2.202l-13.216,25.33l-2.203,27.534l6.608,14.317l-1.101,57.27l-27.533-11.015L106.002,397.088
		L106.002,397.088z"/>
	<polygon fill-rule="evenodd" clip-rule="evenodd" fill="#F5C81E" points="369.314,256.117 362.486,276.884 339.897,276.729 
		358.265,289.41 351.134,310.082 369.314,297.153 387.496,310.082 380.364,289.41 398.731,276.729 376.144,276.884 369.314,256.117 
			"/>
	<polygon fill-rule="evenodd" clip-rule="evenodd" fill="#F5C81E" points="369.314,198.848 362.486,219.614 339.897,219.461 
		358.265,232.142 351.134,252.812 369.314,239.885 387.496,252.812 380.364,232.142 398.731,219.461 376.144,219.614 
		369.314,198.848 	"/>
	<polygon fill-rule="evenodd" clip-rule="evenodd" fill="#F5C81E" points="369.314,83.825 362.485,104.591 339.897,104.438 
		358.265,117.119 351.133,137.79 369.314,124.861 387.496,137.79 380.364,117.119 398.731,104.438 376.143,104.591 369.314,83.825 	
		"/>
	<polygon fill-rule="evenodd" clip-rule="evenodd" fill="#F5C81E" points="369.314,140.478 362.485,161.244 339.897,161.091 
		358.265,173.771 351.133,194.442 369.314,181.514 387.496,194.442 380.364,173.771 398.731,161.091 376.143,161.244 
		369.314,140.478 	"/>
	<polygon fill-rule="evenodd" clip-rule="evenodd" fill="#F5C81E" points="369.314,27.04 362.486,47.807 339.897,47.653 
		358.265,60.334 351.134,81.006 369.314,68.077 387.496,81.006 380.364,60.334 398.731,47.653 376.144,47.807 369.314,27.04 	"/>
</g>
</svg>
