<?xml version="1.0" encoding="utf-8"?>
<!-- Generator: Adobe Illustrator 16.0.0, SVG Export Plug-In . SVG Version: 6.00 Build 0)  -->
<!DOCTYPE svg PUBLIC "-//W3C//DTD SVG 1.1//EN" "http://www.w3.org/Graphics/SVG/1.1/DTD/svg11.dtd">
<svg version="1.1" id="Layer_1" xmlns="http://www.w3.org/2000/svg" xmlns:xlink="http://www.w3.org/1999/xlink" x="0px" y="0px"
	 width="125px" height="125px" viewBox="0 0 125 125" enable-background="new 0 0 125 125" xml:space="preserve">
<circle fill="#E37222" cx="62.5" cy="62.5" r="56.802"/>
<circle fill="none" stroke="#E37222" stroke-width="2" stroke-miterlimit="10" cx="62.5" cy="62.5" r="59.539"/>
<g>
	<g>
		<g>
			<g>
				<g>
					<g>
						<defs>
							<rect id="SVGID_1_" x="20.516" y="21.13" width="85.39" height="54.241"/>
						</defs>
						<clipPath id="SVGID_2_">
							<use xlink:href="#SVGID_1_"  overflow="visible"/>
						</clipPath>
						<g clip-path="url(#SVGID_2_)">
							<g opacity="0.7">
								<g opacity="0.6">
									
										<image overflow="visible" enable-background="new    " width="1766" height="1766" xlink:href="../D06F58C607251782.png"  transform="matrix(-0.0105 0.0464 -0.0464 -0.0105 108.4404 34.4727)">
									</image>
								</g>
							</g>
							<g>
								<circle fill="#95979D" cx="63.965" cy="62.081" r="37.187"/>
								<g>
									
										<linearGradient id="SVGID_3_" gradientUnits="userSpaceOnUse" x1="1105.4541" y1="1340.3008" x2="1120.9189" y2="1340.3008" gradientTransform="matrix(0.1488 0.9889 0.9889 -0.1488 -1405.9553 -868.0773)">
										<stop  offset="0" style="stop-color:#FFFFFF"/>
										<stop  offset="0.2199" style="stop-color:#FBFBFB"/>
										<stop  offset="0.4618" style="stop-color:#EDEEEF"/>
										<stop  offset="0.7142" style="stop-color:#D7D9DC"/>
										<stop  offset="0.9724" style="stop-color:#B9BCC0"/>
										<stop  offset="1" style="stop-color:#B5B8BD"/>
									</linearGradient>
									<path fill="url(#SVGID_3_)" d="M76.447,26.799c4.007,2.515,7.896,3.687,12.09,8.293c2.004,1.104,3.439,2.951,5.234,4.74
										C88.948,33.505,82.922,28.565,76.447,26.799L76.447,26.799z"/>
									
										<linearGradient id="SVGID_4_" gradientUnits="userSpaceOnUse" x1="1133.7988" y1="1351.0098" x2="1153.3447" y2="1351.0098" gradientTransform="matrix(0.1488 0.9889 0.9889 -0.1488 -1405.9553 -868.0773)">
										<stop  offset="0" style="stop-color:#FFFFFF"/>
										<stop  offset="0.2199" style="stop-color:#FBFBFB"/>
										<stop  offset="0.4618" style="stop-color:#EDEEEF"/>
										<stop  offset="0.7142" style="stop-color:#D7D9DC"/>
										<stop  offset="0.9724" style="stop-color:#B9BCC0"/>
										<stop  offset="1" style="stop-color:#B5B8BD"/>
									</linearGradient>
									<path fill="url(#SVGID_4_)" d="M100.584,71.477c1.244-4.748,1.941-9.833-0.835-19.519c0.179,2.174,0.505,4.223,0.166,5.872
										c1.655,3.632,1.289,8.53,0.284,13.827L100.584,71.477L100.584,71.477z"/>
									
										<linearGradient id="SVGID_5_" gradientUnits="userSpaceOnUse" x1="1153.2539" y1="1344.1367" x2="1168.2949" y2="1344.1367" gradientTransform="matrix(0.1488 0.9889 0.9889 -0.1488 -1405.9553 -868.0773)">
										<stop  offset="0" style="stop-color:#FFFFFF"/>
										<stop  offset="0.2199" style="stop-color:#FBFBFB"/>
										<stop  offset="0.4618" style="stop-color:#EDEEEF"/>
										<stop  offset="0.7142" style="stop-color:#D7D9DC"/>
										<stop  offset="0.9724" style="stop-color:#B9BCC0"/>
										<stop  offset="1" style="stop-color:#B5B8BD"/>
									</linearGradient>
									<path fill="url(#SVGID_5_)" d="M92.839,84.327l-1.354,3.76c4.806-5.718,7.591-11.217,8.999-16.564l-0.539,0.104
										C98.039,75.335,95.734,81.866,92.839,84.327L92.839,84.327z"/>
									<path fill="#FFFFFF" d="M45.086,52.617c-2.287,2.167-4.367,5.295-6.196,8.733l-1.989,4.883l0.408,1.614
										c0.837,2.497,1.874,4.621,2.998,6.558c0.828,1.965,1.861,3.803,3.229,5.443l0.651,1.126l0.978-0.104l6.073,0.95
										l4.593,0.396l2.458-0.069l1.382-0.286l5.03-8.438l2.798-4.818L60.792,55.15l-0.66-1.168
										c-3.369-0.667-7.002-0.975-10.75-1.114L45.086,52.617L45.086,52.617z"/>
									<path fill="#FFFFFF" d="M69.043,40.978l-4.229,6.269l-1.617,2.797l-1.964,4.258l2.419,4.72
										c0.955,2.283,2.038,4.395,3.154,6.453l1.694,3.06l14.91,1.225c3.442-4.145,5.97-8.553,7.774-13.016
										c-1.338-5.097-3.648-9.711-6.608-13.824l-3.896-1.577C76.344,40.895,72.252,40.622,69.043,40.978L69.043,40.978z"/>
									<path fill="#002878" d="M68.596,68.79c-2.367,4.411-5.479,8.768-8.697,13.115c3.044,3.983,6.505,6.848,10.131,9.265
										c6.096-1.587,10.883-4.12,14.349-7.584c0.595-4.646,0.062-9.107-0.981-13.476C78.376,69.793,73.613,69.109,68.596,68.79
										L68.596,68.79z"/>
									<path fill="#FFFFFF" d="M44.946,81.684l-0.683,0.414l-3.554,6.526c1.511,2.056,3.331,4.439,5.647,6.552l4.759,2.064
										l4.409,1.358l9.918-0.529c2.004-2.333,3.104-4.395,3.586-6.275c-3.431-2.755-6.767-5.603-9.687-8.845
										C54.713,83.558,49.894,83.014,44.946,81.684L44.946,81.684z"/>
									<path fill="#002878" d="M43.709,80.856c-2.869-3.938-5.146-8.168-6.831-12.689l-1.108-1.451
										c-2.165,0.008-4.376-0.267-6.604-0.637c-0.796,4.654-0.046,8.968,1.98,12.771c1.708,3.906,4.987,7.02,9.195,8.97
										L43.709,80.856L43.709,80.856z"/>
									<path fill="#FFFFFF" d="M29.279,65.341c2.511,0.31,4.739,0.442,7.182,0.352c1.674-4.689,4.169-9.204,7.964-13.559
										c-1.203-3.753-1.331-7.212-0.646-12.694c-1.792-0.743-4.653-0.56-7.588,0.129c-3.505,2.853-6.169,7.215-7.98,11.989
										C26.794,57.785,27.12,62.463,29.279,65.341L29.279,65.341z"/>
									<path fill="#FFFFFF" d="M58.694,31.343c4.229,2.624,7.802,5.47,10.309,8.686c4.614-0.612,9.417-0.095,14.377,1.359
										l1.973-1.599c0.659-1.493,1.417-2.787,2.241-3.903l-0.165-1.936c-2.548-3-6.502-5.174-10.846-7.118
										c-5.284-1.526-9.846-1.394-14.143-0.658C60.526,28.007,59.391,29.714,58.694,31.343L58.694,31.343z"/>
									<path fill="#FFFFFF" d="M91.769,57.595c-2.096,5.163-4.706,9.083-7.611,12.302c1.116,4.534,1.647,9.16,0.894,14.003
										c2.808,0.56,5.457,0.702,7.723-0.082c3.206-2.145,5.424-6.211,7.202-11.155c1.477-5.146,1.177-9.908-0.59-14.355
										C96.396,57.619,93.796,57.323,91.769,57.595L91.769,57.595z"/>
									<path fill="#FFFFFF" d="M70.092,91.628c-0.827,2.336-2.112,4.491-3.852,6.463c0.886,0.813,2.359,1.1,4.429,0.861
										c7.211-1.393,14.161-4.34,20.548-10.706l0.842-1.484l-0.127-0.572l0.58-1.68c-2.683,0.471-5.742,0.375-8.016-0.137
										C80.462,88.062,75.528,90.264,70.092,91.628L70.092,91.628z"/>
									<path fill="#FFFFFF" d="M37.494,36.57c-0.591,0.924-0.952,1.805-1.086,2.649c2.604-0.696,5.143-1.179,7.44-0.882
										c3.916-3.512,9.546-6.345,13.948-6.673c1.2-2.439,2.414-4.575,4.457-5.741c-0.412-0.462-1.013-0.656-1.805-0.586
										C51.297,26.583,43.823,30.621,37.494,36.57L37.494,36.57z"/>
									
										<linearGradient id="SVGID_6_" gradientUnits="userSpaceOnUse" x1="1123.9697" y1="1279.1348" x2="1147.5098" y2="1279.1348" gradientTransform="matrix(0.1488 0.9889 0.9889 -0.1488 -1405.9553 -868.0773)">
										<stop  offset="0" style="stop-color:#FFFFFF"/>
										<stop  offset="0.2199" style="stop-color:#FBFBFB"/>
										<stop  offset="0.4618" style="stop-color:#EDEEEF"/>
										<stop  offset="0.7142" style="stop-color:#D7D9DC"/>
										<stop  offset="0.9724" style="stop-color:#B9BCC0"/>
										<stop  offset="1" style="stop-color:#B5B8BD"/>
									</linearGradient>
									<path fill="url(#SVGID_6_)" d="M27.733,52.854c-2.307,8.077-1.486,15.913,1.738,23.544
										c-1.335-4.345-1.898-8.087-1.09-10.753C26.884,63.312,26.952,58.788,27.733,52.854L27.733,52.854z"/>
									
										<linearGradient id="SVGID_7_" gradientUnits="userSpaceOnUse" x1="1153.3203" y1="1286.7148" x2="1168.6221" y2="1286.7148" gradientTransform="matrix(0.1488 0.9889 0.9889 -0.1488 -1405.9553 -868.0773)">
										<stop  offset="0" style="stop-color:#FFFFFF"/>
										<stop  offset="0.2199" style="stop-color:#FBFBFB"/>
										<stop  offset="0.4618" style="stop-color:#EDEEEF"/>
										<stop  offset="0.7142" style="stop-color:#D7D9DC"/>
										<stop  offset="0.9724" style="stop-color:#B9BCC0"/>
										<stop  offset="1" style="stop-color:#B5B8BD"/>
									</linearGradient>
									<path fill="url(#SVGID_7_)" d="M40.072,88.72c-2.7-1.052-5.303-3.671-7.931-6.847c4.143,6.254,9.013,11.006,14.176,13.342
										C44.334,93.648,42.282,91.656,40.072,88.72L40.072,88.72z"/>
									
										<linearGradient id="SVGID_8_" gradientUnits="userSpaceOnUse" x1="1173.7539" y1="1309.0039" x2="1176.001" y2="1309.0039" gradientTransform="matrix(0.1488 0.9889 0.9889 -0.1488 -1405.9553 -868.0773)">
										<stop  offset="0" style="stop-color:#FFFFFF"/>
										<stop  offset="0.2199" style="stop-color:#FBFBFB"/>
										<stop  offset="0.4618" style="stop-color:#EDEEEF"/>
										<stop  offset="0.7142" style="stop-color:#D7D9DC"/>
										<stop  offset="0.9724" style="stop-color:#B9BCC0"/>
										<stop  offset="1" style="stop-color:#B5B8BD"/>
									</linearGradient>
									<path fill="url(#SVGID_8_)" d="M56.523,98.868c3.196,0.909,6.809,1.417,13.627,0.199c-2.189,0.302-3.563,0.108-4.896-0.635
										C61.92,99.294,59.15,99.157,56.523,98.868L56.523,98.868z"/>
									
										<linearGradient id="SVGID_9_" gradientUnits="userSpaceOnUse" x1="1109.4141" y1="1288.2588" x2="1117.2012" y2="1288.2588" gradientTransform="matrix(0.1488 0.9889 0.9889 -0.1488 -1405.9553 -868.0773)">
										<stop  offset="0" style="stop-color:#FFFFFF"/>
										<stop  offset="0.2199" style="stop-color:#FBFBFB"/>
										<stop  offset="0.4618" style="stop-color:#EDEEEF"/>
										<stop  offset="0.7142" style="stop-color:#D7D9DC"/>
										<stop  offset="0.9724" style="stop-color:#B9BCC0"/>
										<stop  offset="1" style="stop-color:#B5B8BD"/>
									</linearGradient>
									<path fill="url(#SVGID_9_)" d="M36.613,36.798c-2.91,3.515-4.768,6.369-5.901,8.762c1.438-2.536,3.031-4.988,5.373-7.053
										L36.613,36.798L36.613,36.798z"/>
								</g>
							</g>
							
								<radialGradient id="SVGID_10_" cx="1615.4414" cy="-124.6001" r="41.1985" gradientTransform="matrix(0.9093 0.4464 0.4469 -0.9104 -1330.3694 -780.2457)" gradientUnits="userSpaceOnUse">
								<stop  offset="0.2439" style="stop-color:#FFFFFF"/>
								<stop  offset="0.2439" style="stop-color:#FFFFFF"/>
								<stop  offset="0.2488" style="stop-color:#FFFFFF"/>
								<stop  offset="0.4211" style="stop-color:#E3E3E4"/>
								<stop  offset="0.6927" style="stop-color:#AFB1B3"/>
								<stop  offset="0.7196" style="stop-color:#A7A9AA"/>
								<stop  offset="0.9088" style="stop-color:#717172"/>
								<stop  offset="1" style="stop-color:#5C5C5C"/>
							</radialGradient>
							<path opacity="0.5" fill="url(#SVGID_10_)" enable-background="new    " d="M98.508,79.254
								c4.937-10.06,4.792-20.637,0.989-30.295c-3.366-8.551-9.212-16.204-18.104-20.571c-10.186-5-23.054-4.719-31.433-1.415
								c-8.385,3.308-15.4,10.154-19.713,18.914c-8.807,17.883-1,41.026,17.939,50.321C67.123,105.51,89.199,98.212,98.508,79.254z"
								/>
						</g>
					</g>
				</g>
			</g>
		</g>
		
			<linearGradient id="SVGID_11_" gradientUnits="userSpaceOnUse" x1="802.9502" y1="-1005.3975" x2="817.6406" y2="-1005.3975" gradientTransform="matrix(1 0 0 -1 -705 -950.5)">
			<stop  offset="0" style="stop-color:#4A4A4A"/>
			<stop  offset="1" style="stop-color:#D1D1D1"/>
		</linearGradient>
		<path fill="url(#SVGID_11_)" d="M101.875,62.844l10.766-9.475l-14.69-6.417c0,0,0.317,0.77,1.065,2.697
			C100.89,55.148,101.875,62.844,101.875,62.844z"/>
		
			<linearGradient id="SVGID_12_" gradientUnits="userSpaceOnUse" x1="-12858.4736" y1="-1034.2085" x2="-12846.8613" y2="-1034.2085" gradientTransform="matrix(-1 0 0 -1 -12834.4414 -950.5)">
			<stop  offset="0" style="stop-color:#D1D1D1"/>
			<stop  offset="1" style="stop-color:#4A4A4A"/>
		</linearGradient>
		<polygon fill="url(#SVGID_12_)" points="24.032,90.264 12.42,82.66 24.032,77.153 		"/>
	</g>
	<path fill="#002878" d="M88.156,36l-0.677,0.883c-0.968,2.132-2.082,3.776-3.315,5.132c3.312,3.881,5.821,8.579,7.366,14.267
		c2.438,0.14,4.911,0.452,7.441,1.127C101.101,49.923,95.559,39.429,88.156,36L88.156,36z"/>
	<path fill="#002878" d="M45.156,52.474c5.85-0.206,9.956,1.129,14.938,1.104l0.905-1.325l1.084-1.684
		c0.72-2.811,4.769-7.568,6.156-10.083c-2.412-3.617-6.016-5.869-9.357-8.47c-5.469,1.228-9.66,3.352-14.391,6.956
		C43.639,43.964,43.533,47.926,45.156,52.474L45.156,52.474z"/>
	<polygon fill="#FED100" points="12.36,82.607 12.36,59.895 112.641,53.365 112.641,76.086 	"/>
	<g>
		<path fill="#002878" d="M20.179,76.99l-2.54,0.163l1.095-9.879l-1.833,0.117c-0.155,0.011-0.331,0.036-0.528,0.124l0.272-2.449
			l7.262-0.467l-0.272,2.445c-0.181-0.06-0.354-0.064-0.509-0.055l-1.848,0.121L20.179,76.99z"/>
		<path fill="#002878" d="M27.796,64.349l-1.357,12.242l-2.559,0.164l1.358-12.24L27.796,64.349z"/>
		<path fill="#002878" d="M38.452,75.816l-2.384,0.153l1.02-9.213l-2.05,6.729l-2.646,0.171l-0.576-6.56l-1.023,9.213l-2.42,0.154
			l1.358-12.239l3.875-0.248l0.495,6.808l2.028-6.972l3.682-0.235L38.452,75.816z"/>
		<path fill="#002878" d="M47.515,75.234L44.954,75.4l1.356-12.24l5.518-0.353c1.623-0.106,2.089,0.801,1.94,2.17l-0.355,3.199
			c-0.149,1.361-0.773,2.341-2.384,2.444l-3.025,0.189L47.515,75.234z M48.266,68.448l2.23-0.14c0.24-0.017,0.392-0.149,0.433-0.481
			l0.241-2.184c0.035-0.318-0.089-0.445-0.332-0.433l-2.229,0.144L48.266,68.448z"/>
		<path fill="#002878" d="M56.426,72.405l-0.685,2.3l-2.765,0.18l4.277-12.427l3.149-0.202l1.53,12.055l-2.888,0.183l-0.198-2.245
			L56.426,72.405z M58.791,70.45l-0.422-4.889l-1.499,5.008L58.791,70.45z"/>
		<path fill="#002878" d="M65.551,71.872l3.629-0.232c0.157-0.014,0.33-0.04,0.508-0.125l-0.252,2.311l-6.694,0.433L64.1,62.016
			l2.56-0.162L65.551,71.872z"/>
		<path fill="#002878" d="M72.995,73.598l-2.56,0.165l1.357-12.24l5.517-0.353c1.62-0.108,2.09,0.803,1.942,2.167l-0.355,3.202
			c-0.152,1.361-0.777,2.338-2.385,2.444l-3.025,0.191L72.995,73.598z M73.748,66.812l2.229-0.142
			c0.242-0.02,0.394-0.146,0.435-0.481l0.241-2.185c0.034-0.312-0.085-0.441-0.33-0.431l-2.231,0.145L73.748,66.812z"/>
		<path fill="#002878" d="M83.497,60.772l-1.355,12.236l-2.561,0.164l1.359-12.237L83.497,60.772z"/>
		<path fill="#002878" d="M88.384,72.607l-2.541,0.166l1.095-9.879l-1.833,0.118c-0.154,0.012-0.329,0.039-0.527,0.12l0.272-2.447
			l7.262-0.464L91.84,62.67c-0.183-0.058-0.354-0.067-0.51-0.058l-1.851,0.121L88.384,72.607z"/>
		<path fill="#002878" d="M95.752,62.188l-0.282,2.536l2.596-0.164c0.154-0.015,0.329-0.041,0.505-0.086l-0.249,2.256
			c-0.171-0.025-0.342-0.028-0.494-0.021l-2.596,0.168l-0.344,3.11l3.84-0.247c0.156-0.013,0.334-0.036,0.509-0.121l-0.255,2.31
			l-6.896,0.443l1.357-12.242l6.671-0.428l-0.253,2.306c-0.182-0.057-0.356-0.062-0.511-0.052L95.752,62.188z"/>
		<path fill="#002878" d="M101.929,65.456c-0.942-0.792-1.08-1.391-0.958-2.509l0.116-1.013c0.151-1.367,0.847-2.345,2.453-2.449
			l4.547-0.294l-0.284,2.555c-0.191-0.127-0.531-0.159-0.825-0.14l-3.01,0.192c-0.206,0.017-0.34,0.162-0.376,0.479l-0.063,0.541
			c-0.024,0.193,0.017,0.346,0.135,0.46l2.708,2.237c0.958,0.79,1.078,1.406,0.953,2.525l-0.117,1.067
			c-0.152,1.362-0.828,2.344-2.452,2.447l-4.771,0.311l0.282-2.556c0.189,0.126,0.531,0.157,0.844,0.137l3.161-0.202
			c0.263-0.016,0.395-0.165,0.436-0.482l0.069-0.611c0.022-0.192-0.014-0.347-0.139-0.46L101.929,65.456z"/>
	</g>
</g>
</svg>
