<?xml version="1.0" encoding="utf-8"?>
<!-- Generator: Adobe Illustrator 16.0.0, SVG Export Plug-In . SVG Version: 6.00 Build 0)  -->
<!DOCTYPE svg PUBLIC "-//W3C//DTD SVG 1.1//EN" "http://www.w3.org/Graphics/SVG/1.1/DTD/svg11.dtd">
<svg version="1.1" id="Layer_1" xmlns="http://www.w3.org/2000/svg" xmlns:xlink="http://www.w3.org/1999/xlink" x="0px" y="0px"
	 width="179.82px" height="50px" viewBox="0 0 179.82 50" enable-background="new 0 0 179.82 50" xml:space="preserve">
<g>
	<g>
		<path fill="#FFFFFF" d="M33.726,43.787L47.38,30.236c0,0,3.645-3.49,7.855-3.49c4.207,0,7.443,2.41,8.313,6.826
			c0.874,4.414-0.923,10.984-9.444,11.037c-8.519,0.051-20.07-0.258-20.07-0.258S33.262,44.25,33.726,43.787z"/>
		<path fill="#FFFFFF" d="M30.542,43.787L16.889,30.236c0,0-3.647-3.49-7.854-3.49c-4.21,0-7.444,2.41-8.316,6.826
			c-0.874,4.414,0.924,10.984,9.445,11.037c8.521,0.051,20.072-0.258,20.072-0.258S31.005,44.25,30.542,43.787z"/>
		<path fill="#FFFFFF" d="M29.617,46.457H12.372c0,0-1.49,0.307-1.49,1.746c0,1.438,1.54,1.693,1.54,1.693h13.961
			C26.384,49.896,31.056,49.074,29.617,46.457z"/>
		<path fill="#FFFFFF" d="M34.923,46.508h17.248c0,0,1.488,0.307,1.488,1.744s-1.54,1.695-1.54,1.695H38.157
			C38.157,49.947,33.486,49.127,34.923,46.508z"/>
		<path fill="#FFFFFF" d="M18.993,6.277c-2.14,0-3.875,1.741-3.875,3.889c0,2.146,1.735,3.887,3.875,3.887
			c2.142,0,3.874-1.741,3.874-3.887C22.867,8.019,21.135,6.277,18.993,6.277z M20.483,10.332c-0.714,0-1.292-0.579-1.292-1.295
			c0-0.716,0.579-1.296,1.292-1.296c0.711,0,1.291,0.58,1.291,1.296C21.773,9.752,21.194,10.332,20.483,10.332z"/>
		<path fill="#FFFFFF" d="M45.044,6.379c-2.141,0-3.877,1.742-3.877,3.889s1.736,3.887,3.877,3.887c2.139,0,3.875-1.74,3.875-3.887
			S47.183,6.379,45.044,6.379z M46.198,10.332c-0.713,0-1.292-0.579-1.292-1.295c0-0.716,0.579-1.296,1.292-1.296
			c0.714,0,1.292,0.58,1.292,1.296C47.491,9.752,46.912,10.332,46.198,10.332z"/>
		<path fill="#FFFFFF" d="M73.826,3.68c0,0-5.018-1.289-5.018,3.66c0,4.949,0,37.012,0,37.012s4.951,0.949,4.951-2.713
			c0-3.66,0-8.064,0-8.064l15.049,10.844c0,0,1.626,1.086,2.915-0.812c1.288-1.898-0.205-3.186-0.205-3.186l-12.812-9.084
			l13.086-10.642c0,0,1.354-1.423-0.068-3.186c-1.426-1.763-3.73-0.271-3.73-0.271L74.031,28.559L73.826,3.68z"/>
		<path fill="#FFFFFF" d="M128.869,3.68c0,0,5.22-0.881,5.22,3.05c0,3.931,0,37.688,0,37.688s-5.016,0.34-5.016-3.592
			S128.869,3.68,128.869,3.68z"/>
		<path fill="#FFFFFF" d="M179.166,17.44c0,0-4.948-0.746-4.948,3.322c0,4.067,0,23.656,0,23.656s5.083,0.271,5.083-3.455
			C179.301,37.232,179.166,17.44,179.166,17.44z"/>
		<path fill="#FFFFFF" d="M179.166,13.847c0,0-5.083-0.542-5.083-3.863c0-3.321,0-3.932,0-3.932s4.946,0.881,4.946,4.067
			S179.166,13.847,179.166,13.847z"/>
		<path fill="#FFFFFF" d="M122.835,30.93c0,7.523-6.069,13.625-13.555,13.625c-7.489,0-13.557-6.102-13.557-13.625
			c0-7.525,6.067-13.625,13.557-13.625C116.765,17.305,122.835,23.405,122.835,30.93z M109.415,21.779
			c-5.017,0-9.084,4.172-9.084,9.32s4.067,9.32,9.084,9.32c5.018,0,9.083-4.172,9.083-9.32S114.432,21.779,109.415,21.779z"/>
		<path fill="#FFFFFF" d="M116.655,9.952c0,1.404-1.133,2.542-2.529,2.542c-1.4,0-2.534-1.138-2.534-2.542
			c0-1.405,1.134-2.545,2.534-2.545C115.522,7.407,116.655,8.547,116.655,9.952z"/>
		<ellipse fill="#FFFFFF" cx="104.058" cy="9.983" rx="2.531" ry="2.544"/>
		<path fill="#FFFFFF" d="M168.726,30.861c0,7.523-6.068,13.625-13.558,13.625c-4.238,0-8.02-1.955-10.507-5.016v1.152
			c0,4.678-5.016,3.729-5.016,3.729s0-31.928,0-36.875c0-4.949,5.016-3.864,5.016-3.864s0,9.296,0,18.64
			c2.487-3.06,6.269-5.015,10.507-5.015C162.658,17.237,168.726,23.337,168.726,30.861z M155.304,21.711
			c-5.017,0-9.082,4.171-9.082,9.32s4.065,9.32,9.082,9.32c5.019,0,9.084-4.172,9.084-9.32S160.323,21.711,155.304,21.711z"/>
	</g>
	<path fill="#FFFFFF" d="M55.078,10.037c0-5.513-4.47-9.984-9.983-9.984c-4.927,0-9.018,3.569-9.833,8.263
		c-1.202-1.772-5.179-0.614-6.281-0.25c-0.926-4.557-4.954-7.987-9.785-7.987c-5.513,0-9.983,4.471-9.983,9.985
		c0,5.099,3.824,9.303,8.76,9.907c-0.758,6.974,3.176,11.138,3.176,11.138l10.366,11.191c0.707,0.604,1.182-0.104,1.182-0.104
		s5.697-5.928,10.318-10.779c4.441-4.662,3.118-10.961,3.01-11.44C51.102,19.506,55.078,15.237,55.078,10.037z M19.224,16.787
		c-3.643,0-6.597-2.936-6.597-6.556c0-3.623,2.954-6.558,6.597-6.558s6.595,2.936,6.595,6.558
		C25.82,13.851,22.867,16.787,19.224,16.787z M45.121,16.825c-3.643,0-6.596-2.936-6.596-6.557c0-3.622,2.953-6.558,6.596-6.558
		c3.642,0,6.595,2.936,6.595,6.558C51.716,13.889,48.763,16.825,45.121,16.825z"/>
</g>
</svg>
