<?xml version="1.0" encoding="utf-8"?>
<!-- Generator: Adobe Illustrator 16.0.0, SVG Export Plug-In . SVG Version: 6.00 Build 0)  -->
<!DOCTYPE svg PUBLIC "-//W3C//DTD SVG 1.1//EN" "http://www.w3.org/Graphics/SVG/1.1/DTD/svg11.dtd">
<svg version="1.1" id="Layer_1" xmlns="http://www.w3.org/2000/svg" xmlns:xlink="http://www.w3.org/1999/xlink" x="0px" y="0px"
	 width="68.594px" height="50.228px" viewBox="0 0 68.594 50.228" enable-background="new 0 0 68.594 50.228" xml:space="preserve">
<g>
	<g>
		<path fill-rule="evenodd" clip-rule="evenodd" fill="#FFFFFF" d="M15.584,6.924c0,2.529,2.046,3.13,3.169,3.17
			c0.161,0,0.321,0,0.442-0.04c1.083-0.082,2.889-1.043,2.607-3.61c-0.161-1.526-1.124-2.248-2.449-2.448
			c-0.199,0-0.439-0.04-0.641-0.04C17.149,4.036,15.545,5.039,15.584,6.924L15.584,6.924z M58.514,39.943
			c1.482-1.444,2.205-2.688,2.205-2.688s0.522,3.411-1.524,7.382c-0.2,0.361-0.401,0.723-0.681,1.043
			c-2.408,3.211-7.584,4.494-12.117,4.454c-2.729,0-5.096-0.441-6.74-0.964c-1.404-0.48-2.328-1.041-2.328-1.041
			c-5.254-2.407-4.812-10.793-4.812-10.793s2.967,6.779,13.279,7.382C52.053,45.119,56.227,42.27,58.514,39.943L58.514,39.943z
			 M58.514,28.869c0.361,0,0.641-0.039,0.842-0.078c1.083-0.161,4.453-1.527,4.172-6.701c-0.24-5.055-2.849-6.459-5.014-6.5
			c-0.041,0-0.081,0-0.121,0c0,0-1.003-0.04-2.088,0.643c-1.361,0.843-2.808,2.728-2.768,6.178c0.04,4.734,2.81,6.179,4.615,6.458
			C58.271,28.869,58.393,28.869,58.514,28.869L58.514,28.869z M58.514,11.258c7.1,0.2,9.508,6.498,9.828,8.906
			c0.24,1.725,0.279,7.262-3.249,10.55c-1.444,1.365-3.57,2.447-6.579,2.447c-0.041,0-0.121,0-0.201,0
			c-3.33-0.078-5.537-1.482-7.021-3.047c-3.088-3.371-2.808-8.306-2.808-8.306c-0.04-1.645,0.479-3.732,1.604-5.658
			c1.564-2.647,4.092-4.934,8.264-4.894C58.393,11.258,58.473,11.258,58.514,11.258L58.514,11.258z M58.514,0.224
			c0.199,0,0.44,0,0.641-0.04c6.379-0.081,8.826,5.094,8.826,5.094v3.492c0,0-2.046-4.294-8.906-4.655c-0.16,0-0.361,0-0.561,0
			c-6.421-0.121-8.907,4.292-8.907,4.292V5.52C50.609,3.594,52.615,0.505,58.514,0.224L58.514,0.224z M4.953,12.02V6.964
			c0,0-3.249-0.441-4.814,3.53v16.53c0,0,0.24,1.805,1.283,3.328c0.964,1.485,2.688,2.689,5.256,2.73
			c5.216,0.159,6.1-2.408,5.618-5.257c0,0-5.777,3.21-7.182-1.604v-9.869h5.215c0,0,2.369-0.202,1.926-4.333H4.953L4.953,12.02z
			 M16.187,11.9v15.768c0,0,0.442,5.094,4.213,5.295c3.771,0.199,4.973-1.565,5.056-4.254c0,0-1.888,0.684-3.092-0.199
			c-1.243-0.842-1.202-2.127-1.202-2.127V14.588C21.162,14.588,20.359,11.7,16.187,11.9L16.187,11.9z M45.153,17.517
			c0,0,0.481,0.199,0.642-0.321c0.119-0.563,0.521-4.293-3.893-5.496c-5.135-1.365-11.191,0.52-13.28,4.854
			c-0.721,1.523-1.483,3.69-1.604,5.856c-0.2,3.972,1.325,8.304,5.536,10.472c0,0,4.936,2.406,9.79,0.721
			c0,0,3.61-1.482,3.651-4.172c0.08-2.728,0.401-6.54-1.926-6.579c-2.325-0.081-3.089,0-3.089,0s0.561,4.452,0.361,5.014
			c-0.201,0.602-1.484,2.207-5.336,1.002c-3.811-1.162-4.334-6.016-3.411-9.106s4.815-4.333,7.263-4.132
			C42.304,15.831,45.153,17.517,45.153,17.517L45.153,17.517z"/>
	</g>
</g>
</svg>
