<?xml version="1.0" encoding="utf-8"?>
<!-- Generator: Adobe Illustrator 16.0.0, SVG Export Plug-In . SVG Version: 6.00 Build 0)  -->
<!DOCTYPE svg PUBLIC "-//W3C//DTD SVG 1.1//EN" "http://www.w3.org/Graphics/SVG/1.1/DTD/svg11.dtd">
<svg version="1.1" id="Layer_1" xmlns="http://www.w3.org/2000/svg" xmlns:xlink="http://www.w3.org/1999/xlink" x="0px" y="0px"
	 width="40px" height="40px" viewBox="5.375 5 40 40" enable-background="new 5.375 5 40 40" xml:space="preserve">
<g>
	<circle fill="#A41F30" cx="25.375" cy="25" r="19.65"/>
	
		<radialGradient id="SVGID_1_" cx="-189.125" cy="103.2959" r="18.9609" gradientTransform="matrix(1 0 0 -1 214.5 142)" gradientUnits="userSpaceOnUse">
		<stop  offset="0" style="stop-color:#EB97A6"/>
		<stop  offset="0.323" style="stop-color:#D35D67"/>
		<stop  offset="0.6391" style="stop-color:#BD2B2F"/>
		<stop  offset="0.8734" style="stop-color:#B00C0D"/>
		<stop  offset="1" style="stop-color:#AB0000"/>
	</radialGradient>
	<circle opacity="0.8" fill="url(#SVGID_1_)" enable-background="new    " cx="25.375" cy="25" r="19.65"/>
	
		<linearGradient id="SVGID_2_" gradientUnits="userSpaceOnUse" x1="-189.124" y1="133.4551" x2="-189.124" y2="119.0894" gradientTransform="matrix(1 0 0 -1 214.5 142)">
		<stop  offset="0.0843" style="stop-color:#FFFFFF"/>
		<stop  offset="0.0855" style="stop-color:#FFFFFE"/>
		<stop  offset="0.2469" style="stop-color:#F4C4B7"/>
		<stop  offset="0.3629" style="stop-color:#EDA08A"/>
		<stop  offset="0.4213" style="stop-color:#EA9279"/>
		<stop  offset="0.4483" style="stop-color:#E48973"/>
		<stop  offset="0.5972" style="stop-color:#C95B56"/>
		<stop  offset="0.7298" style="stop-color:#B53A41"/>
		<stop  offset="0.84" style="stop-color:#A82635"/>
		<stop  offset="0.9141" style="stop-color:#A41F30"/>
	</linearGradient>
	<path opacity="0.8" fill="url(#SVGID_2_)" enable-background="new    " d="M37.446,17.231c0-5.299-6.896-9.592-12.07-9.592
		c-5.349,0-12.071,4.294-12.071,9.592s5.403,2.355,12.071,2.355C32.041,19.588,37.446,22.53,37.446,17.231z"/>
	<g id="TEXT_2_">
		<path fill="#FFFFFF" d="M36.395,23.646c-0.657-0.659-1.452-0.979-2.354-0.979c-0.903,0-1.683,0.32-2.324,0.979
			c-0.659,0.657-0.979,1.452-0.979,2.368c0,0.92,0.318,1.714,0.979,2.356c0.642,0.656,1.421,0.993,2.324,0.993
			c0.901,0,1.696-0.337,2.354-0.993c0.643-0.643,0.963-1.437,0.963-2.356C37.357,25.099,37.037,24.303,36.395,23.646L36.395,23.646z
			 M35.279,27.253c-0.337,0.353-0.75,0.521-1.238,0.521c-0.475,0-0.887-0.169-1.226-0.521c-0.335-0.351-0.521-0.763-0.521-1.238
			c0-0.503,0.186-0.916,0.521-1.252c0.339-0.352,0.751-0.519,1.226-0.505c0.488-0.013,0.901,0.154,1.253,0.505
			c0.321,0.336,0.488,0.75,0.505,1.252C35.782,26.49,35.615,26.902,35.279,27.253L35.279,27.253z"/>
		<path fill="#FFFFFF" d="M13.11,21.031c-1.147-0.016-2.096,0.383-2.891,1.208c-0.81,0.811-1.207,1.774-1.207,2.921
			c0,1.131,0.396,2.124,1.207,2.934c0.795,0.794,1.744,1.193,2.891,1.193c0.917,0,1.758-0.277,2.492-0.842
			c0.719-0.582,1.192-1.299,1.438-2.188h-1.667c-0.215,0.429-0.52,0.78-0.902,1.055c-0.429,0.261-0.873,0.399-1.36,0.399
			c-0.705,0-1.3-0.259-1.789-0.751c-0.505-0.503-0.749-1.1-0.735-1.802c-0.014-0.704,0.23-1.3,0.735-1.806
			c0.489-0.489,1.086-0.749,1.789-0.749c0.488,0,0.932,0.138,1.36,0.413c0.382,0.26,0.687,0.627,0.902,1.055h1.667
			c-0.245-0.887-0.719-1.622-1.438-2.187C14.868,21.307,14.026,21.017,13.11,21.031L13.11,21.031z"/>
		<path fill="#FFFFFF" d="M23.2,22.652c-1.069-0.016-1.819,0.274-2.248,0.841c-0.275,0.351-0.413,0.81-0.458,1.392h1.589
			c0.031-0.275,0.123-0.46,0.229-0.583c0.167-0.214,0.443-0.321,0.841-0.307c0.336-0.014,0.596,0.047,0.779,0.154
			c0.184,0.093,0.26,0.274,0.274,0.535c0,0.214-0.121,0.382-0.365,0.489l-1.224,0.199c-0.567,0.077-1.025,0.213-1.376,0.414
			c-0.596,0.352-0.887,0.918-0.872,1.729c-0.016,0.563,0.168,1.023,0.535,1.36c0.321,0.275,0.765,0.426,1.3,0.441
			c0.872-0.016,1.561-0.227,2.049-0.655v0.655h1.591V24.64c0-0.764-0.275-1.298-0.794-1.574
			C24.501,22.775,23.889,22.637,23.2,22.652L23.2,22.652z M23.872,26.245l0.308-0.168v0.641c0,0.552-0.153,0.933-0.444,1.147
			c-0.306,0.214-0.627,0.321-0.992,0.321c-0.229,0-0.414-0.061-0.568-0.185c-0.152-0.138-0.227-0.335-0.227-0.626
			c0-0.321,0.12-0.552,0.381-0.718c0.152-0.093,0.413-0.168,0.75-0.216L23.872,26.245L23.872,26.245z"/>
		<polygon fill="#FFFFFF" points="19.439,21.031 17.85,21.031 17.85,29.317 19.439,29.317 		"/>
		<path fill="#FFFFFF" d="M29.562,22.882c-0.429,0.168-0.812,0.459-1.133,0.902v-0.81l-1.513-0.017v6.36h1.574v-3.041
			c0-0.521,0.061-0.886,0.198-1.115c0.107-0.245,0.306-0.443,0.551-0.612c0.275-0.184,0.565-0.275,0.872-0.275l0.488,0.031
			l-0.017-1.622l-0.41,0.032L29.562,22.882L29.562,22.882z"/>
		<polygon fill="#FFFFFF" points="37.634,22.912 41.472,19.075 40.463,18.065 36.623,21.903 		"/>
		<polygon fill="#FFFFFF" points="34.942,21.383 34.942,17.27 33.521,17.27 33.521,21.383 		"/>
		<polygon fill="#FFFFFF" points="38.336,24.502 38.336,25.924 42.542,25.924 42.542,24.502 		"/>
	</g>
</g>
</svg>
