<?xml version="1.0" encoding="utf-8"?>
<!-- Generator: Adobe Illustrator 16.0.0, SVG Export Plug-In . SVG Version: 6.00 Build 0)  -->
<!DOCTYPE svg PUBLIC "-//W3C//DTD SVG 1.1//EN" "http://www.w3.org/Graphics/SVG/1.1/DTD/svg11.dtd">
<svg version="1.1" id="Layer_1" xmlns="http://www.w3.org/2000/svg" xmlns:xlink="http://www.w3.org/1999/xlink" x="0px" y="0px"
	 width="100px" height="100px" viewBox="0 0 100 100" enable-background="new 0 0 100 100" xml:space="preserve">
<g>
	<path d="M99.859,79.869c0,11.041-8.95,19.99-19.989,19.99H20.129C9.09,99.859,0.14,90.91,0.14,79.869V20.127
		C0.14,9.091,9.09,0.14,20.129,0.14H79.87c11.039,0,19.989,8.951,19.989,19.988V79.869z"/>
</g>
<g>
	<circle fill="#A41F30" cx="50" cy="38.002" r="26.278"/>
	
		<radialGradient id="SVGID_1_" cx="-164.5" cy="135.6719" r="25.3557" gradientTransform="matrix(1 0 0 -1 214.5 192)" gradientUnits="userSpaceOnUse">
		<stop  offset="0" style="stop-color:#EB97A6"/>
		<stop  offset="0.323" style="stop-color:#D35D67"/>
		<stop  offset="0.6391" style="stop-color:#BD2B2F"/>
		<stop  offset="0.8734" style="stop-color:#B00C0D"/>
		<stop  offset="1" style="stop-color:#AB0000"/>
	</radialGradient>
	<circle opacity="0.8" fill="url(#SVGID_1_)" enable-background="new    " cx="50" cy="38.002" r="26.278"/>
	
		<linearGradient id="SVGID_2_" gradientUnits="userSpaceOnUse" x1="-164.4995" y1="176.0029" x2="-164.4995" y2="156.7919" gradientTransform="matrix(1 0 0 -1 214.5 192)">
		<stop  offset="0.0843" style="stop-color:#FFFFFF"/>
		<stop  offset="0.0855" style="stop-color:#FFFFFE"/>
		<stop  offset="0.2469" style="stop-color:#F4C4B7"/>
		<stop  offset="0.3629" style="stop-color:#EDA08A"/>
		<stop  offset="0.4213" style="stop-color:#EA9279"/>
		<stop  offset="0.4483" style="stop-color:#E48973"/>
		<stop  offset="0.5972" style="stop-color:#C95B56"/>
		<stop  offset="0.7298" style="stop-color:#B53A41"/>
		<stop  offset="0.84" style="stop-color:#A82635"/>
		<stop  offset="0.9141" style="stop-color:#A41F30"/>
	</linearGradient>
	<path opacity="0.8" fill="url(#SVGID_2_)" enable-background="new    " d="M66.142,27.613c0-7.084-9.222-12.828-16.142-12.828
		c-7.153,0-16.142,5.743-16.142,12.828S41.085,30.765,50,30.765C58.914,30.765,66.142,34.698,66.142,27.613z"/>
	<g id="TEXT_21_">
		<path fill="#FFFFFF" d="M64.736,36.19c-0.88-0.878-1.941-1.308-3.148-1.308s-2.25,0.429-3.108,1.308
			c-0.878,0.879-1.309,1.942-1.309,3.168c0,1.228,0.431,2.291,1.309,3.149c0.858,0.879,1.901,1.329,3.108,1.329
			s2.269-0.449,3.148-1.329c0.858-0.859,1.289-1.92,1.289-3.149C66.025,38.132,65.595,37.069,64.736,36.19L64.736,36.19z
			 M63.245,41.016c-0.449,0.471-1.002,0.695-1.656,0.695c-0.635,0-1.187-0.224-1.637-0.695s-0.696-1.022-0.696-1.656
			c0-0.674,0.246-1.226,0.696-1.675c0.449-0.472,1.002-0.696,1.637-0.677c0.654-0.02,1.207,0.205,1.676,0.677
			c0.429,0.448,0.654,1,0.675,1.675C63.918,39.993,63.693,40.545,63.245,41.016L63.245,41.016z"/>
		<path fill="#FFFFFF" d="M33.597,32.694c-1.532-0.021-2.8,0.511-3.863,1.615c-1.083,1.083-1.614,2.371-1.614,3.905
			c0,1.513,0.531,2.841,1.614,3.925c1.064,1.064,2.332,1.595,3.863,1.595c1.227,0,2.352-0.369,3.333-1.124
			c0.962-0.778,1.596-1.738,1.923-2.925h-2.23c-0.285,0.573-0.693,1.042-1.205,1.411c-0.572,0.347-1.165,0.531-1.821,0.531
			c-0.94,0-1.736-0.348-2.39-1.001c-0.675-0.676-1.002-1.472-0.982-2.412c-0.02-0.941,0.308-1.738,0.982-2.413
			c0.654-0.654,1.451-1.002,2.39-1.002c0.656,0,1.249,0.184,1.821,0.551c0.511,0.348,0.92,0.839,1.205,1.411h2.23
			c-0.329-1.185-0.961-2.167-1.923-2.924C35.949,33.063,34.824,32.674,33.597,32.694L33.597,32.694z"/>
		<path fill="#FFFFFF" d="M47.092,34.862c-1.432-0.021-2.432,0.368-3.005,1.124c-0.368,0.47-0.552,1.083-0.614,1.861h2.125
			c0.042-0.368,0.164-0.613,0.307-0.777c0.224-0.287,0.593-0.43,1.125-0.409c0.449-0.021,0.796,0.062,1.042,0.206
			c0.245,0.122,0.346,0.368,0.369,0.715c0,0.287-0.164,0.513-0.491,0.654l-1.636,0.266c-0.756,0.103-1.37,0.287-1.84,0.552
			c-0.797,0.472-1.185,1.227-1.166,2.311c-0.02,0.756,0.226,1.37,0.715,1.819c0.431,0.369,1.024,0.573,1.738,0.593
			c1.167-0.02,2.086-0.307,2.742-0.879v0.879h2.125V37.52c0-1.022-0.368-1.736-1.063-2.106
			C48.83,35.025,48.013,34.841,47.092,34.862L47.092,34.862z M47.991,39.666l0.409-0.224V40.3c0,0.736-0.205,1.247-0.593,1.533
			c-0.409,0.287-0.839,0.429-1.33,0.429c-0.306,0-0.552-0.081-0.757-0.245c-0.204-0.184-0.306-0.449-0.306-0.837
			c0-0.43,0.164-0.736,0.512-0.96c0.204-0.123,0.552-0.226,1.001-0.288L47.991,39.666L47.991,39.666z"/>
		<polygon fill="#FFFFFF" points="42.062,32.694 39.937,32.694 39.937,43.775 42.062,43.775 		"/>
		<path fill="#FFFFFF" d="M55.598,35.167c-0.572,0.225-1.085,0.615-1.513,1.207v-1.083l-2.024-0.021v8.506h2.106v-4.069
			c0-0.694,0.082-1.185,0.265-1.492c0.143-0.328,0.41-0.594,0.735-0.818c0.369-0.246,0.758-0.368,1.165-0.368l0.655,0.04
			l-0.021-2.167l-0.553,0.041L55.598,35.167L55.598,35.167z"/>
		<polygon fill="#FFFFFF" points="66.392,35.208 71.525,30.078 70.174,28.728 65.044,33.86 		"/>
		<polygon fill="#FFFFFF" points="62.795,33.164 62.795,27.665 60.893,27.665 60.893,33.164 		"/>
		<polygon fill="#FFFFFF" points="67.333,37.336 67.333,39.237 72.956,39.237 72.956,37.336 		"/>
	</g>
</g>
<text transform="matrix(0.9828 -0.0631 -0.1101 0.9939 3.7622 84.2363)" fill="#FFFFFF" font-family="'TeutonNormal-Bold'" font-size="16.5147">PREDICCIONES</text>
</svg>
