<?xml version="1.0" encoding="utf-8"?>
<!-- Generator: Adobe Illustrator 16.0.0, SVG Export Plug-In . SVG Version: 6.00 Build 0)  -->
<!DOCTYPE svg PUBLIC "-//W3C//DTD SVG 1.1//EN" "http://www.w3.org/Graphics/SVG/1.1/DTD/svg11.dtd">
<svg version="1.1" id="Layer_1" xmlns="http://www.w3.org/2000/svg" xmlns:xlink="http://www.w3.org/1999/xlink" x="0px" y="0px"
	 width="159.047px" height="50px" viewBox="0 0 159.047 50" enable-background="new 0 0 159.047 50" xml:space="preserve">
<g>
	
		<ellipse transform="matrix(0.9985 -0.0542 0.0542 0.9985 -1.2405 4.3405)" fill-rule="evenodd" clip-rule="evenodd" fill="#E1001C" cx="79.344" cy="25.023" rx="78.386" ry="23.546"/>
	<g>
		<g>
			<path fill-rule="evenodd" clip-rule="evenodd" fill="#FFFFFF" d="M158.093,16.5c-1.229-1.702-2.931-5.104-14.748-9.644
				c-3.403-1.133-15.787-4.441-26.849-5.577c-11.061-1.133-44.715-1.891-67.309,2.836c-6.335,1.418-20.223,4.25-25.9,6.71
				c0,0-19.664,7.47-22.784,15.789c-3.12,8.32,9.171,13.991,12.291,15.315c3.118,1.324,16.544,5.86,28.74,6.712
				c12.193,0.851,35.164,1.984,60.785-1.324c10.967-1.702,31.761-4.727,48.59-15.22C153.365,30.87,161.874,25.765,158.093,16.5z
				 M155.647,21.336c-0.216,3.917-4.222,7.529-4.222,7.529h-10.01l2.914-12.928c0,0,0,0-8.312,0
				c2.133,0.392,1.534,2.323,1.534,2.323l-2.668,14.618c0,0,0,0,10.44,0.115C125.719,43.552,98.92,45.873,91.031,46.918
				c-18.562,2.32-45.597,0.463-56.965-0.929c-11.37-1.394-23.202-7.193-25.755-8.933c-11.255-8.237,1.625-17.402,1.625-17.402
				L7.14,32.919h5.988l3.623-17.388C44.049,2.64,85.455,1.729,89.548,1.729c39.586-0.457,56.654,8.682,56.654,8.682
				C155.344,13.805,155.734,20.291,155.647,21.336z"/>
			<path fill-rule="evenodd" clip-rule="evenodd" fill="#FFFFFF" d="M18.186,15.747h6.058l-2.075,9.375c0,0-1.163,4.148,1.909,4.314
				c1.742,0,4.563,0.747,5.642-4.065c1.078-4.813,1.328-5.975,1.328-5.975s0.25-3.152,1.742-3.485
				c1.493-0.332,4.812-0.248,4.812-0.248s-0.746,2.903-0.831,3.567c-0.081,0.663-1.573,8.049-1.573,8.049s-1.496,5.973-7.469,5.891
				c-5.891-0.083-14.354,2.407-11.118-9.625C18.27,16.162,18.186,15.747,18.186,15.747z"/>
			<path fill-rule="evenodd" clip-rule="evenodd" fill="#FFFFFF" d="M36.192,27.529h6.888c0,0-0.084,2.156,2.239,2.074
				c2.323-0.082,4.479-0.331,3.982-2.572c-1.079-0.498-8.711-1.493-8.711-1.493s-3.237-1.328-2.656-4.48
				c0.582-3.154,2.904-4.979,5.809-5.394c2.903-0.415,11.201-1.245,13.192,2.323c0.332,1.909,0.249,2.655,0.249,2.655h-6.719
				c0,0,0.579-2.324-4.482-1.577c-1.161,0.332-2.903,1.991-0.664,2.241c2.24,0.249,7.218,1.245,7.218,1.245s4.896,0.747,4.067,4.149
				c-0.83,3.402-2.241,6.39-8.049,6.555C42.747,33.419,35.361,34.415,36.192,27.529z"/>
			<polygon fill-rule="evenodd" clip-rule="evenodd" fill="#FFFFFF" points="54.779,32.922 60.671,32.922 68.222,20.477 
				69.218,26.367 65.813,26.367 63.824,30.018 69.55,30.018 70.379,32.84 76.767,32.84 72.869,15.664 66.312,15.664 			"/>
			<path fill-rule="evenodd" clip-rule="evenodd" fill="#FFFFFF" d="M92.729,22.166h6.554c0,0,0.631-6.177-6.616-6.87
				c-7.249-0.694-11.219,0.44-13.487,4.159c-2.27,3.719-4.601,12.794,3.401,13.866c7.249,0.063,9.077-0.063,11.283-1.513
				c2.204-1.449,3.781-3.465,4.6-5.735c-2.96,0-6.239,0-6.239,0s-1.448,3.34-5.733,3.277c-0.758-0.126-4.223-0.63-3.215-4.538
				c1.008-3.907,2.459-4.852,3.78-5.293C88.38,19.077,92.604,18.446,92.729,22.166z"/>
			<path fill-rule="evenodd" clip-rule="evenodd" fill="#FFFFFF" d="M115.983,32.879l-17.521-0.19l3.845-17.017h16.89l-0.755,3.782
				h-10.903l-1.009,2.899h10.462l-0.506,3.781h-10.462c0,0-1.196,2.837,0.38,2.837c1.574,0,10.209,0,10.209,0L115.983,32.879z"/>
			<polygon fill-rule="evenodd" clip-rule="evenodd" fill="#FFFFFF" points="121.023,15.799 127.013,15.799 124.177,28.529 
				134.701,28.529 133.755,32.815 117.432,32.815 			"/>
		</g>
	</g>
</g>
</svg>
