<?xml version="1.0" encoding="utf-8"?>
<!-- Generator: Adobe Illustrator 16.0.0, SVG Export Plug-In . SVG Version: 6.00 Build 0)  -->
<!DOCTYPE svg PUBLIC "-//W3C//DTD SVG 1.1//EN" "http://www.w3.org/Graphics/SVG/1.1/DTD/svg11.dtd">
<svg version="1.1" id="Layer_1" xmlns="http://www.w3.org/2000/svg" xmlns:xlink="http://www.w3.org/1999/xlink" x="0px" y="0px"
	 width="100px" height="100px" viewBox="0 0 100 100" enable-background="new 0 0 100 100" xml:space="preserve">
<linearGradient id="SVGID_1_" gradientUnits="userSpaceOnUse" x1="-164.5005" y1="86.6914" x2="-164.5005" y2="188.1665" gradientTransform="matrix(1 0 0 -1 214.5 192)">
	<stop  offset="0" style="stop-color:#00C6D7;stop-opacity:0.9"/>
	<stop  offset="1" style="stop-color:#005C84"/>
</linearGradient>
<path fill="url(#SVGID_1_)" d="M99.619,79.729c0,10.984-8.906,19.892-19.893,19.892H20.273c-10.985,0-19.892-8.906-19.892-19.892
	V20.273c0-10.986,8.907-19.892,19.892-19.892h59.454c10.985,0,19.893,8.906,19.893,19.892V79.729L99.619,79.729z"/>
<g>
	<g>
		<g>
			<defs>
				<rect id="SVGID_2_" x="11.738" y="18.499" width="77.817" height="49.431"/>
			</defs>
			<clipPath id="SVGID_3_">
				<use xlink:href="#SVGID_2_"  overflow="visible"/>
			</clipPath>
			<g clip-path="url(#SVGID_3_)">
				<g opacity="0.7">
					<g opacity="0.6">
					</g>
				</g>
				<g>
					<circle fill="#95979D" cx="51.335" cy="55.819" r="33.888"/>
					<g>
						
							<linearGradient id="SVGID_4_" gradientUnits="userSpaceOnUse" x1="37.7173" y1="1200.293" x2="51.8115" y2="1200.293" gradientTransform="matrix(0.1488 0.9889 0.9889 -0.1488 -1123.0264 163.9401)">
							<stop  offset="0" style="stop-color:#FFFFFF"/>
							<stop  offset="0.2199" style="stop-color:#FBFBFB"/>
							<stop  offset="0.4618" style="stop-color:#EDEEEF"/>
							<stop  offset="0.7142" style="stop-color:#D7D9DC"/>
							<stop  offset="0.9724" style="stop-color:#B9BCC0"/>
							<stop  offset="1" style="stop-color:#B5B8BD"/>
						</linearGradient>
						<path fill="url(#SVGID_4_)" d="M62.71,23.665c3.653,2.293,7.198,3.361,11.019,7.559c1.826,1.005,3.136,2.691,4.769,4.319
							C74.104,29.777,68.611,25.275,62.71,23.665L62.71,23.665z"/>
						
							<linearGradient id="SVGID_5_" gradientUnits="userSpaceOnUse" x1="63.5479" y1="1210.0527" x2="81.3613" y2="1210.0527" gradientTransform="matrix(0.1488 0.9889 0.9889 -0.1488 -1123.0264 163.9401)">
							<stop  offset="0" style="stop-color:#FFFFFF"/>
							<stop  offset="0.2199" style="stop-color:#FBFBFB"/>
							<stop  offset="0.4618" style="stop-color:#EDEEEF"/>
							<stop  offset="0.7142" style="stop-color:#D7D9DC"/>
							<stop  offset="0.9724" style="stop-color:#B9BCC0"/>
							<stop  offset="1" style="stop-color:#B5B8BD"/>
						</linearGradient>
						<path fill="url(#SVGID_5_)" d="M84.707,64.382c1.134-4.33,1.77-8.964-0.76-17.79c0.16,1.982,0.46,3.849,0.15,5.354
							c1.508,3.31,1.176,7.771,0.258,12.599L84.707,64.382L84.707,64.382z"/>
						
							<linearGradient id="SVGID_6_" gradientUnits="userSpaceOnUse" x1="81.2812" y1="1203.7891" x2="94.9854" y2="1203.7891" gradientTransform="matrix(0.1488 0.9889 0.9889 -0.1488 -1123.0264 163.9401)">
							<stop  offset="0" style="stop-color:#FFFFFF"/>
							<stop  offset="0.2199" style="stop-color:#FBFBFB"/>
							<stop  offset="0.4618" style="stop-color:#EDEEEF"/>
							<stop  offset="0.7142" style="stop-color:#D7D9DC"/>
							<stop  offset="0.9724" style="stop-color:#B9BCC0"/>
							<stop  offset="1" style="stop-color:#B5B8BD"/>
						</linearGradient>
						<path fill="url(#SVGID_6_)" d="M77.648,76.092l-1.235,3.426c4.381-5.211,6.921-10.224,8.203-15.094l-0.492,0.092
							C82.387,67.896,80.287,73.85,77.648,76.092L77.648,76.092z"/>
						<path fill="#FFFFFF" d="M34.13,47.194c-2.084,1.973-3.98,4.824-5.647,7.958l-1.813,4.449l0.372,1.469
							c0.762,2.279,1.706,4.213,2.732,5.979c0.753,1.789,1.695,3.464,2.941,4.96l0.593,1.026l0.893-0.095l5.533,0.865l4.185,0.36
							l2.241-0.062l1.261-0.263l4.583-7.688l2.549-4.391l-6.111-12.263l-0.602-1.064c-3.073-0.609-6.382-0.888-9.797-1.016
							L34.13,47.194L34.13,47.194z"/>
						<path fill="#FFFFFF" d="M55.962,36.586L52.109,42.3l-1.473,2.547l-1.791,3.88l2.205,4.302c0.87,2.082,1.857,4.006,2.873,5.883
							l1.547,2.787l13.586,1.115c3.139-3.775,5.441-7.793,7.086-11.861c-1.219-4.645-3.326-8.85-6.021-12.596l-3.554-1.438
							C62.617,36.511,58.889,36.262,55.962,36.586L55.962,36.586z"/>
						<path fill="#002878" d="M55.555,61.932c-2.156,4.021-4.994,7.99-7.927,11.952c2.775,3.634,5.931,6.244,9.233,8.447
							c5.555-1.449,9.916-3.756,13.076-6.914c0.541-4.233,0.057-8.298-0.893-12.282C64.469,62.844,60.128,62.225,55.555,61.932
							L55.555,61.932z"/>
						<path fill="#FFFFFF" d="M34,73.684l-0.62,0.375l-3.24,5.948c1.377,1.872,3.036,4.044,5.147,5.972l4.337,1.879l4.018,1.238
							l9.04-0.481c1.825-2.125,2.829-4.005,3.271-5.718c-3.129-2.513-6.169-5.107-8.829-8.062
							C42.905,75.389,38.511,74.895,34,73.684L34,73.684z"/>
						<path fill="#002878" d="M32.876,72.927c-2.616-3.587-4.69-7.44-6.225-11.562l-1.01-1.322c-1.974,0.007-3.988-0.242-6.02-0.578
							c-0.726,4.242-0.042,8.172,1.805,11.637c1.556,3.561,4.545,6.398,8.381,8.176L32.876,72.927L32.876,72.927z"/>
						<path fill="#FFFFFF" d="M19.725,58.788c2.288,0.282,4.317,0.405,6.544,0.321c1.526-4.271,3.8-8.387,7.258-12.354
							c-1.096-3.42-1.213-6.573-0.589-11.569c-1.633-0.676-4.241-0.509-6.914,0.118c-3.196,2.601-5.624,6.577-7.273,10.927
							C17.46,51.902,17.758,56.166,19.725,58.788L19.725,58.788z"/>
						<path fill="#FFFFFF" d="M46.53,27.806c3.855,2.392,7.111,4.986,9.396,7.915c4.204-0.557,8.582-0.086,13.1,1.239l1.797-1.456
							c0.601-1.361,1.291-2.54,2.045-3.557l-0.151-1.765c-2.321-2.733-5.926-4.715-9.883-6.485
							c-4.815-1.393-8.974-1.271-12.89-0.601C48.201,24.766,47.166,26.321,46.53,27.806L46.53,27.806z"/>
						<path fill="#FFFFFF" d="M76.672,51.729c-1.91,4.707-4.29,8.277-6.933,11.211c1.016,4.131,1.5,8.35,0.811,12.763
							c2.562,0.512,4.972,0.641,7.037-0.076c2.92-1.954,4.944-5.66,6.563-10.164c1.345-4.69,1.07-9.03-0.537-13.084
							C80.891,51.752,78.521,51.48,76.672,51.729L76.672,51.729z"/>
						<path fill="#FFFFFF" d="M56.919,82.745c-0.754,2.127-1.925,4.091-3.511,5.89c0.807,0.74,2.15,1.001,4.037,0.784
							c6.568-1.269,12.904-3.953,18.721-9.757l0.768-1.354l-0.117-0.521l0.529-1.53c-2.445,0.43-5.234,0.342-7.305-0.125
							C66.369,79.494,61.873,81.501,56.919,82.745L56.919,82.745z"/>
						<path fill="#FFFFFF" d="M27.211,32.57c-0.539,0.84-0.869,1.645-0.99,2.415c2.373-0.635,4.686-1.074,6.781-0.805
							c3.568-3.2,8.699-5.782,12.71-6.082c1.094-2.224,2.2-4.168,4.061-5.231c-0.374-0.421-0.921-0.597-1.642-0.532
							C39.791,23.468,32.979,27.148,27.211,32.57L27.211,32.57z"/>
						
							<linearGradient id="SVGID_7_" gradientUnits="userSpaceOnUse" x1="54.5918" y1="1144.5508" x2="76.043" y2="1144.5508" gradientTransform="matrix(0.1488 0.9889 0.9889 -0.1488 -1123.0264 163.9401)">
							<stop  offset="0" style="stop-color:#FFFFFF"/>
							<stop  offset="0.2199" style="stop-color:#FBFBFB"/>
							<stop  offset="0.4618" style="stop-color:#EDEEEF"/>
							<stop  offset="0.7142" style="stop-color:#D7D9DC"/>
							<stop  offset="0.9724" style="stop-color:#B9BCC0"/>
							<stop  offset="1" style="stop-color:#B5B8BD"/>
						</linearGradient>
						<path fill="url(#SVGID_7_)" d="M18.316,47.409c-2.103,7.36-1.355,14.5,1.584,21.455c-1.218-3.958-1.731-7.369-0.994-9.798
							C17.541,56.939,17.603,52.816,18.316,47.409L18.316,47.409z"/>
						
							<linearGradient id="SVGID_8_" gradientUnits="userSpaceOnUse" x1="81.3398" y1="1151.457" x2="95.2842" y2="1151.457" gradientTransform="matrix(0.1488 0.9889 0.9889 -0.1488 -1123.0264 163.9401)">
							<stop  offset="0" style="stop-color:#FFFFFF"/>
							<stop  offset="0.2199" style="stop-color:#FBFBFB"/>
							<stop  offset="0.4618" style="stop-color:#EDEEEF"/>
							<stop  offset="0.7142" style="stop-color:#D7D9DC"/>
							<stop  offset="0.9724" style="stop-color:#B9BCC0"/>
							<stop  offset="1" style="stop-color:#B5B8BD"/>
						</linearGradient>
						<path fill="url(#SVGID_8_)" d="M29.56,80.094c-2.461-0.959-4.831-3.346-7.229-6.238c3.777,5.699,8.215,10.03,12.919,12.158
							C33.445,84.586,31.573,82.77,29.56,80.094L29.56,80.094z"/>
						
							<linearGradient id="SVGID_9_" gradientUnits="userSpaceOnUse" x1="99.9609" y1="1171.7715" x2="102.0088" y2="1171.7715" gradientTransform="matrix(0.1488 0.9889 0.9889 -0.1488 -1123.0264 163.9401)">
							<stop  offset="0" style="stop-color:#FFFFFF"/>
							<stop  offset="0.2199" style="stop-color:#FBFBFB"/>
							<stop  offset="0.4618" style="stop-color:#EDEEEF"/>
							<stop  offset="0.7142" style="stop-color:#D7D9DC"/>
							<stop  offset="0.9724" style="stop-color:#B9BCC0"/>
							<stop  offset="1" style="stop-color:#B5B8BD"/>
						</linearGradient>
						<path fill="url(#SVGID_9_)" d="M44.553,89.343c2.912,0.829,6.207,1.291,12.419,0.183c-1.996,0.273-3.248,0.099-4.462-0.58
							C49.47,89.73,46.947,89.605,44.553,89.343L44.553,89.343z"/>
						
							<linearGradient id="SVGID_10_" gradientUnits="userSpaceOnUse" x1="41.3257" y1="1152.8662" x2="48.4233" y2="1152.8662" gradientTransform="matrix(0.1488 0.9889 0.9889 -0.1488 -1123.0264 163.9401)">
							<stop  offset="0" style="stop-color:#FFFFFF"/>
							<stop  offset="0.2199" style="stop-color:#FBFBFB"/>
							<stop  offset="0.4618" style="stop-color:#EDEEEF"/>
							<stop  offset="0.7142" style="stop-color:#D7D9DC"/>
							<stop  offset="0.9724" style="stop-color:#B9BCC0"/>
							<stop  offset="1" style="stop-color:#B5B8BD"/>
						</linearGradient>
						<path fill="url(#SVGID_10_)" d="M26.409,32.777c-2.652,3.204-4.344,5.804-5.378,7.986c1.31-2.31,2.762-4.545,4.897-6.427
							L26.409,32.777L26.409,32.777z"/>
					</g>
				</g>
				
					<radialGradient id="SVGID_11_" cx="444.4473" cy="645.0527" r="37.5435" gradientTransform="matrix(0.9093 0.4464 0.4469 -0.9104 -623.8486 437.6038)" gradientUnits="userSpaceOnUse">
					<stop  offset="0.2439" style="stop-color:#FFFFFF"/>
					<stop  offset="0.2439" style="stop-color:#FFFFFF"/>
					<stop  offset="0.2488" style="stop-color:#FFFFFF"/>
					<stop  offset="0.4211" style="stop-color:#E3E3E4"/>
					<stop  offset="0.6927" style="stop-color:#AFB1B3"/>
					<stop  offset="0.7196" style="stop-color:#A7A9AA"/>
					<stop  offset="0.9088" style="stop-color:#717172"/>
					<stop  offset="1" style="stop-color:#5C5C5C"/>
				</radialGradient>
				<path opacity="0.5" fill="url(#SVGID_11_)" enable-background="new    " d="M82.814,71.468c4.498-9.167,4.367-18.807,0.9-27.608
					c-3.066-7.792-8.395-14.766-16.498-18.746c-9.281-4.556-21.011-4.3-28.645-1.289c-7.64,3.013-14.034,9.253-17.964,17.236
					c-8.027,16.298-0.912,37.387,16.348,45.859C54.215,95.395,74.332,88.745,82.814,71.468z"/>
			</g>
		</g>
	</g>
	
		<linearGradient id="SVGID_12_" gradientUnits="userSpaceOnUse" x1="-132.1914" y1="142.7295" x2="-118.8047" y2="142.7295" gradientTransform="matrix(1 0 0 -1 214.5 192)">
		<stop  offset="0" style="stop-color:#4A4A4A"/>
		<stop  offset="1" style="stop-color:#D1D1D1"/>
	</linearGradient>
	<path fill="url(#SVGID_12_)" d="M85.884,56.512l9.812-8.633l-13.387-5.85c0,0,0.289,0.702,0.971,2.459
		C84.986,49.5,85.884,56.512,85.884,56.512z"/>
	
		<linearGradient id="SVGID_13_" gradientUnits="userSpaceOnUse" x1="-12438.082" y1="116.4727" x2="-12427.499" y2="116.4727" gradientTransform="matrix(-1 0 0 -1 -12423.1387 192)">
		<stop  offset="0" style="stop-color:#D1D1D1"/>
		<stop  offset="1" style="stop-color:#4A4A4A"/>
	</linearGradient>
	<polygon fill="url(#SVGID_13_)" points="14.944,81.501 4.361,74.572 14.944,69.555 	"/>
</g>
<path fill="#002878" d="M73.381,32.05l-0.617,0.805c-0.881,1.944-1.897,3.442-3.021,4.676c3.015,3.539,5.301,7.819,6.712,13.002
	c2.225,0.127,4.477,0.41,6.783,1.027C85.18,44.738,80.127,35.176,73.381,32.05L73.381,32.05z"/>
<path fill="#002878" d="M34.193,47.063c5.333-0.188,9.075,1.03,13.613,1.004l0.827-1.207l0.986-1.534
	c0.657-2.562,4.347-6.897,5.611-9.188c-2.198-3.296-5.483-5.349-8.528-7.719c-4.986,1.119-8.804,3.054-13.114,6.34
	C32.81,39.308,32.714,42.919,34.193,47.063L34.193,47.063z"/>
<polygon fill="#FED100" points="4.305,74.523 4.305,53.823 95.695,47.876 95.695,68.58 "/>
<text transform="matrix(0.9828 -0.0631 -0.1102 0.9939 5.7554 68.5879)" fill="#002878" font-family="'TeutonNormal-Bold'" font-size="15.2569">Gurú del Fútbol</text>
</svg>
