<?xml version="1.0" encoding="utf-8"?>
<!-- Generator: Adobe Illustrator 16.0.0, SVG Export Plug-In . SVG Version: 6.00 Build 0)  -->
<!DOCTYPE svg PUBLIC "-//W3C//DTD SVG 1.1//EN" "http://www.w3.org/Graphics/SVG/1.1/DTD/svg11.dtd">
<svg version="1.1" id="Layer_1" xmlns="http://www.w3.org/2000/svg" xmlns:xlink="http://www.w3.org/1999/xlink" x="0px" y="0px"
	 width="205.416px" height="49.71px" viewBox="0 0 205.416 49.71" enable-background="new 0 0 205.416 49.71" xml:space="preserve">
<g>
	<g>
		<g>
			<path fill="#FFFFFF" d="M201.696,40.379c-5.378,0-7.641-3.678-7.641-7.308V5.45h6.533v27.228c0,1.52,0.654,2.307,2.312,2.307
				h2.515v5.395H201.696z"/>
		</g>
		<g>
			<path fill="#FFFFFF" d="M12.046,28.545c0,6.227,3.858,10.784,10.727,10.784c5.363,0,7.999-1.49,11.103-4.558l7.433,7.161
				c-4.986,4.926-9.785,7.623-18.63,7.623C11.104,49.556,0,44.349,0,24.73C0,8.926,8.658,0,21.36,0
				c13.645,0,21.362,9.854,21.362,23.149v5.396H12.046z M29.547,15.062c-1.317-2.883-4.044-5.021-8.187-5.021
				c-4.14,0-6.87,2.138-8.186,5.021c-0.754,1.766-1.036,3.067-1.128,5.207h18.631C30.583,18.129,30.3,16.829,29.547,15.062z"/>
		</g>
		<g>
			<path fill="#FFFFFF" d="M170.801,28.115c0,3.706,2.342,6.413,6.514,6.413c3.26,0,4.859-0.884,6.746-2.707l4.515,4.256
				c-3.029,2.93-5.944,4.531-11.319,4.531c-7.027,0-13.773-3.094-13.773-14.76c0-9.398,5.26-14.704,12.975-14.704
				c8.289,0,12.977,5.861,12.977,13.765v3.206H170.801z M181.43,20.1c-0.799-1.713-2.457-2.985-4.973-2.985
				c-2.515,0-4.173,1.272-4.971,2.985c-0.457,1.05-0.629,1.825-0.686,3.095h11.316C182.059,21.925,181.89,21.149,181.43,20.1z"/>
		</g>
		<g>
			<path fill="#FFFFFF" d="M140.817,40.379h-7.242V22.966c0-1.806-0.514-3.168-1.538-4.09c-0.843-0.774-1.906-1.162-3.188-1.162
				c-1.32,0-2.401,0.388-3.242,1.162c-1.027,0.922-1.54,2.284-1.54,4.09v17.413h-7.186v-28.8h7.021v2.655
				c1.879-1.994,4.275-2.986,7.186-2.986c2.838,0,5.105,0.849,6.801,2.541c1.952,1.955,2.93,4.685,2.93,8.184V40.379z"/>
		</g>
		<g>
			<path fill="#FFFFFF" d="M147.254,5.516h8.259v6.275h4.05v5.87h-4.732v14.995c0,1.154,0.758,1.85,1.865,1.85h2.867v5.771h-3.898
				c-5.992,0-8.41-4.682-8.41-8.761V5.516z"/>
		</g>
		<g>
			<path fill="#FFFFFF" d="M111.221,28.115H92.588c0,1.917,0.579,3.465,1.743,4.644c1.162,1.181,2.752,1.77,4.772,1.77
				c2.629,0,4.877-0.902,6.745-2.707l4.516,4.256c-1.64,1.586-3.239,2.709-4.802,3.373c-1.791,0.772-3.962,1.158-6.516,1.158
				c-9.183,0-13.776-4.919-13.776-14.76c0-4.606,1.201-8.237,3.603-10.89c2.324-2.543,5.448-3.814,9.374-3.814
				c4.038,0,7.24,1.308,9.601,3.925c2.249,2.506,3.373,5.788,3.373,9.84V28.115z M103.904,23.194
				c-0.039-1.178-0.266-2.21-0.684-3.095c-0.916-1.991-2.573-2.985-4.973-2.985c-2.402,0-4.059,0.994-4.973,2.985
				c-0.421,0.885-0.648,1.917-0.686,3.095H103.904z"/>
		</g>
	</g>
	<g>
		<path fill="#FF6322" d="M54.458,3.204l-6.883,6.883c4.914,3.773,8.097,9.694,8.097,16.37c0,6.677-3.183,12.597-8.097,16.37
			l6.883,6.883c6.645-5.559,10.874-13.91,10.874-23.253C65.331,17.116,61.102,8.765,54.458,3.204z"/>
	</g>
</g>
</svg>
