<?xml version="1.0" encoding="utf-8"?>
<!-- Generator: Adobe Illustrator 16.0.0, SVG Export Plug-In . SVG Version: 6.00 Build 0)  -->
<!DOCTYPE svg PUBLIC "-//W3C//DTD SVG 1.1//EN" "http://www.w3.org/Graphics/SVG/1.1/DTD/svg11.dtd">
<svg version="1.1" id="Layer_1" xmlns="http://www.w3.org/2000/svg" xmlns:xlink="http://www.w3.org/1999/xlink" x="0px" y="0px"
	 width="179.82px" height="49.71px" viewBox="13.628 0 179.82 49.71" enable-background="new 13.628 0 179.82 49.71"
	 xml:space="preserve">
<g>
	<path fill="#BDD631" d="M47.728,43.556l13.643-13.541c0,0,3.643-3.488,7.848-3.488s7.437,2.411,8.309,6.822
		c0.872,4.41-0.923,10.976-9.438,11.027c-8.514,0.051-20.055-0.256-20.055-0.256S47.266,44.017,47.728,43.556z"/>
	<path fill="#BDD631" d="M44.547,43.556L30.904,30.015c0,0-3.642-3.488-7.848-3.488c-4.206,0-7.438,2.411-8.309,6.822
		c-0.872,4.41,0.923,10.976,9.438,11.027c8.514,0.051,20.055-0.256,20.055-0.256S45.009,44.017,44.547,43.556z"/>
	<path fill="#BDD631" d="M69.064,9.832c0-5.509-4.467-9.976-9.976-9.976c-4.923,0-9.01,3.566-9.826,8.256
		c-1.2-1.771-5.174-0.614-6.275-0.251c-0.925-4.553-4.95-7.98-9.776-7.98c-5.509,0-9.976,4.467-9.976,9.977
		c0,5.095,3.821,9.295,8.753,9.898c-0.757,6.97,3.173,11.13,3.173,11.13l10.36,11.182c0.706,0.604,1.18-0.102,1.18-0.102
		s5.693-5.925,10.31-10.771c4.438-4.66,3.116-10.954,3.008-11.432C65.092,19.293,69.064,15.028,69.064,9.832z"/>
	<path fill="#BDD631" d="M43.624,46.223H26.391c0,0-1.488,0.308-1.488,1.744s1.539,1.692,1.539,1.692h13.951
		C40.393,49.66,45.061,48.839,43.624,46.223z"/>
	<path fill="#BDD631" d="M48.925,46.274h17.234c0,0,1.487,0.308,1.487,1.744s-1.539,1.692-1.539,1.692H52.156
		C52.156,49.71,47.489,48.89,48.925,46.274z"/>
	<ellipse fill="#FFFFFF" cx="33.238" cy="10.024" rx="6.591" ry="6.552"/>
	<ellipse fill="#FFFFFF" cx="59.114" cy="10.063" rx="6.591" ry="6.552"/>
	<ellipse fill="#E6205A" cx="59.037" cy="10.063" rx="3.873" ry="3.885"/>
	<ellipse fill="#E6205A" cx="33.007" cy="9.961" rx="3.872" ry="3.885"/>
	<circle fill="#FFFFFF" cx="34.494" cy="8.832" r="1.291"/>
	<circle fill="#FFFFFF" cx="60.191" cy="8.832" r="1.291"/>
	<path fill="#00948E" d="M87.798,3.48c0,0-5.012-1.287-5.012,3.657c0,4.945,0,36.982,0,36.982s4.944,0.948,4.944-2.71s0-8.06,0-8.06
		l15.037,10.837c0,0,1.625,1.084,2.912-0.812s-0.203-3.184-0.203-3.184l-12.801-9.076l13.073-10.634c0,0,1.354-1.422-0.068-3.183
		c-1.422-1.762-3.725-0.271-3.725-0.271L88.001,28.337L87.798,3.48z"/>
	<path fill="#00948E" d="M142.796,3.48c0,0,5.216-0.881,5.216,3.048c0,3.928,0,37.659,0,37.659S143,44.525,143,40.597
		C143,36.668,142.796,3.48,142.796,3.48z"/>
	<path fill="#00948E" d="M193.054,17.229c0,0-4.945-0.746-4.945,3.319c0,4.064,0,23.639,0,23.639s5.081,0.271,5.081-3.454
		C193.189,37.007,193.054,17.229,193.054,17.229z"/>
	<path fill="#00948E" d="M193.054,13.64c0,0-5.08-0.542-5.08-3.861c0-3.319,0-3.929,0-3.929s4.945,0.881,4.945,4.064
		S193.054,13.64,193.054,13.64z"/>
	<path fill="#00948E" d="M136.769,30.708c0,7.518-6.066,13.613-13.547,13.613s-13.547-6.096-13.547-13.613
		c0-7.519,6.066-13.614,13.547-13.614S136.769,23.189,136.769,30.708z M123.358,21.564c-5.014,0-9.078,4.169-9.078,9.313
		s4.064,9.313,9.078,9.313c5.012,0,9.074-4.17,9.074-9.313S128.37,21.564,123.358,21.564z"/>
	<ellipse fill="#E9262C" cx="128.063" cy="9.747" rx="2.529" ry="2.542"/>
	<ellipse fill="#E9262C" cx="118.006" cy="9.778" rx="2.529" ry="2.542"/>
	<path fill="#00948E" d="M182.624,30.64c0,7.52-6.066,13.614-13.548,13.614c-4.234,0-8.014-1.953-10.499-5.012v1.151
		c0,4.674-5.012,3.726-5.012,3.726s0-31.903,0-36.847c0-4.945,5.012-3.861,5.012-3.861s0,9.289,0,18.626
		c2.485-3.058,6.265-5.012,10.499-5.012C176.558,17.026,182.624,23.122,182.624,30.64z M169.212,21.497
		c-5.012,0-9.076,4.169-9.076,9.313c0,5.144,4.064,9.312,9.076,9.312c5.014,0,9.076-4.169,9.076-9.312
		C178.288,25.666,174.226,21.497,169.212,21.497z"/>
</g>
</svg>
