<?xml version="1.0" encoding="utf-8"?>
<!-- Generator: Adobe Illustrator 16.0.0, SVG Export Plug-In . SVG Version: 6.00 Build 0)  -->
<!DOCTYPE svg PUBLIC "-//W3C//DTD SVG 1.1//EN" "http://www.w3.org/Graphics/SVG/1.1/DTD/svg11.dtd">
<svg version="1.1" id="Layer_1" xmlns="http://www.w3.org/2000/svg" xmlns:xlink="http://www.w3.org/1999/xlink" x="0px" y="0px"
	 width="125px" height="125px" viewBox="0 0 125 125" enable-background="new 0 0 125 125" xml:space="preserve">
<g>
	<path fill="#002878" d="M113.939,19.569c-21.312,0-37.638-6.088-51.441-19.514C48.694,13.481,32.369,19.569,11.061,19.569
		c0,34.958-7.232,85.037,51.438,105.375C121.172,104.607,113.939,54.528,113.939,19.569z"/>
</g>
<path fill="#002878" d="M86.518,36.02l-0.613,0.8c-0.875,1.931-1.885,3.419-3.002,4.645c2.996,3.515,5.267,7.766,6.668,12.915
	c2.209,0.126,4.445,0.408,6.738,1.02C98.234,48.624,93.218,39.125,86.518,36.02L86.518,36.02z"/>
<path fill="#002878" d="M47.59,50.933c5.297-0.186,9.014,1.022,13.522,0.998l0.821-1.199l0.98-1.524
	c0.651-2.544,4.317-6.85,5.573-9.126c-2.184-3.274-5.446-5.313-8.471-7.667c-4.953,1.111-8.745,3.034-13.027,6.297
	C46.217,43.23,46.121,46.816,47.59,50.933L47.59,50.933z"/>
<g>
	<g>
		
			<linearGradient id="SVGID_1_" gradientUnits="userSpaceOnUse" x1="115.8828" y1="1216.5879" x2="129.1816" y2="1216.5879" gradientTransform="matrix(1 0 0 1 -20.5 -1166.5)">
			<stop  offset="0" style="stop-color:#4A4A4A"/>
			<stop  offset="1" style="stop-color:#D1D1D1"/>
		</linearGradient>
		<path fill="url(#SVGID_1_)" d="M98.936,57.281l9.746-8.576l-13.299-5.81c0,0,0.288,0.697,0.965,2.442
			C98.044,50.315,98.936,57.281,98.936,57.281z"/>
		
			<linearGradient id="SVGID_2_" gradientUnits="userSpaceOnUse" x1="-12661.6074" y1="1242.6699" x2="-12651.0957" y2="1242.6699" gradientTransform="matrix(-1 0 0 1 -12633.1387 -1166.5)">
			<stop  offset="0" style="stop-color:#D1D1D1"/>
			<stop  offset="1" style="stop-color:#4A4A4A"/>
		</linearGradient>
		<polygon fill="url(#SVGID_2_)" points="28.469,82.104 17.957,75.221 28.469,70.236 		"/>
	</g>
	<polygon fill="#FED100" points="17.901,75.172 17.901,54.61 108.682,48.703 108.682,69.27 	"/>
	<g>
		<path fill="#002878" d="M24.98,70.088l-2.299,0.148l0.991-8.943l-1.659,0.104c-0.141,0.01-0.3,0.034-0.478,0.11l0.246-2.217
			l6.573-0.422l-0.245,2.215c-0.166-0.054-0.321-0.06-0.46-0.05l-1.673,0.107L24.98,70.088z"/>
		<path fill="#002878" d="M31.875,58.646l-1.228,11.081l-2.316,0.148l1.229-11.082L31.875,58.646z"/>
		<path fill="#002878" d="M41.522,69.025l-2.158,0.139l0.924-8.338l-1.855,6.088l-2.396,0.156l-0.521-5.94l-0.926,8.34l-2.19,0.141
			l1.229-11.079l3.506-0.225l0.45,6.164l1.834-6.312l3.334-0.213L41.522,69.025z"/>
		<path fill="#002878" d="M49.725,68.498l-2.318,0.148l1.228-11.079l4.993-0.32c1.47-0.095,1.893,0.726,1.756,1.962l-0.321,2.897
			c-0.136,1.231-0.7,2.118-2.157,2.211l-2.738,0.176L49.725,68.498z M50.405,62.357l2.018-0.129
			c0.219-0.014,0.356-0.135,0.391-0.435l0.219-1.978c0.031-0.287-0.082-0.404-0.3-0.391l-2.019,0.129L50.405,62.357z"/>
		<path fill="#002878" d="M57.792,65.938l-0.62,2.084l-2.502,0.16l3.872-11.248l2.85-0.183l1.386,10.91l-2.613,0.168l-0.179-2.031
			L57.792,65.938z M59.933,64.166l-0.382-4.422l-1.356,4.534L59.933,64.166z"/>
		<path fill="#002878" d="M66.052,65.453l3.287-0.209c0.142-0.01,0.3-0.037,0.461-0.111l-0.229,2.092l-6.059,0.389l1.229-11.08
			l2.315-0.147L66.052,65.453z"/>
		<path fill="#002878" d="M72.791,67.018l-2.314,0.148l1.227-11.081l4.995-0.32c1.469-0.098,1.892,0.729,1.757,1.961l-0.323,2.898
			c-0.137,1.232-0.7,2.117-2.155,2.213l-2.738,0.174L72.791,67.018z M73.475,60.875l2.017-0.131c0.22-0.015,0.356-0.132,0.393-0.433
			l0.22-1.98c0.029-0.283-0.08-0.402-0.299-0.388l-2.02,0.13L73.475,60.875z"/>
		<path fill="#002878" d="M82.3,55.406l-1.228,11.078l-2.316,0.146l1.229-11.078L82.3,55.406z"/>
		<path fill="#002878" d="M86.723,66.121l-2.302,0.148l0.99-8.944l-1.66,0.107c-0.14,0.009-0.299,0.033-0.476,0.107l0.244-2.214
			l6.573-0.423l-0.245,2.217c-0.164-0.052-0.318-0.059-0.461-0.051l-1.676,0.108L86.723,66.121z"/>
		<path fill="#002878" d="M93.391,56.689l-0.254,2.295l2.35-0.149c0.141-0.012,0.299-0.036,0.459-0.078L95.718,60.8
			c-0.153-0.023-0.31-0.027-0.448-0.02l-2.348,0.15l-0.312,2.817l3.475-0.225c0.143-0.012,0.3-0.033,0.463-0.107l-0.23,2.09
			l-6.243,0.4l1.229-11.079l6.039-0.388l-0.229,2.089c-0.168-0.054-0.321-0.059-0.461-0.05L93.391,56.689z"/>
		<path fill="#002878" d="M98.982,59.646c-0.853-0.716-0.979-1.257-0.867-2.27l0.104-0.917c0.139-1.237,0.766-2.125,2.223-2.218
			l4.117-0.266l-0.26,2.313c-0.174-0.115-0.48-0.144-0.748-0.126l-2.724,0.175c-0.188,0.014-0.312,0.146-0.343,0.432l-0.055,0.49
			c-0.02,0.175,0.014,0.316,0.123,0.417l2.452,2.026c0.866,0.716,0.978,1.271,0.862,2.285l-0.105,0.968
			c-0.138,1.232-0.748,2.121-2.221,2.214l-4.316,0.281l0.256-2.312c0.172,0.111,0.479,0.143,0.763,0.123l2.862-0.184
			c0.237-0.016,0.357-0.149,0.392-0.436l0.062-0.555c0.021-0.174-0.013-0.312-0.125-0.417L98.982,59.646z"/>
	</g>
</g>
</svg>
