<?xml version="1.0" encoding="utf-8"?>
<!-- Generator: Adobe Illustrator 16.0.0, SVG Export Plug-In . SVG Version: 6.00 Build 0)  -->
<!DOCTYPE svg PUBLIC "-//W3C//DTD SVG 1.1//EN" "http://www.w3.org/Graphics/SVG/1.1/DTD/svg11.dtd">
<svg version="1.1" id="Layer_1" xmlns="http://www.w3.org/2000/svg" xmlns:xlink="http://www.w3.org/1999/xlink" x="0px" y="0px"
	 width="125px" height="125px" viewBox="0 0 125 125" enable-background="new 0 0 125 125" xml:space="preserve">
<g>
	<path d="M113.939,19.569c-21.312,0-37.642-6.088-51.441-19.514C48.694,13.481,32.369,19.569,11.061,19.569
		c0,34.958-7.232,85.037,51.438,105.375C121.172,104.607,113.939,54.528,113.939,19.569z"/>
</g>
<g>
	<circle fill="#A41F30" cx="62.501" cy="44.449" r="23.826"/>
	
		<radialGradient id="SVGID_1_" cx="-151.9985" cy="155.9365" r="22.9898" gradientTransform="matrix(1 0 0 -1 214.5 217)" gradientUnits="userSpaceOnUse">
		<stop  offset="0" style="stop-color:#EB97A6"/>
		<stop  offset="0.323" style="stop-color:#D35D67"/>
		<stop  offset="0.6391" style="stop-color:#BD2B2F"/>
		<stop  offset="0.8734" style="stop-color:#B00C0D"/>
		<stop  offset="1" style="stop-color:#AB0000"/>
	</radialGradient>
	<circle opacity="0.8" fill="url(#SVGID_1_)" enable-background="new    " cx="62.501" cy="44.449" r="23.826"/>
	
		<linearGradient id="SVGID_2_" gradientUnits="userSpaceOnUse" x1="-151.9985" y1="192.502" x2="-151.9985" y2="175.0842" gradientTransform="matrix(1 0 0 -1 214.5 217)">
		<stop  offset="0.0843" style="stop-color:#FFFFFF"/>
		<stop  offset="0.0855" style="stop-color:#FFFFFE"/>
		<stop  offset="0.2469" style="stop-color:#F4C4B7"/>
		<stop  offset="0.3629" style="stop-color:#EDA08A"/>
		<stop  offset="0.4213" style="stop-color:#EA9279"/>
		<stop  offset="0.4483" style="stop-color:#E48973"/>
		<stop  offset="0.5972" style="stop-color:#C95B56"/>
		<stop  offset="0.7298" style="stop-color:#B53A41"/>
		<stop  offset="0.84" style="stop-color:#A82635"/>
		<stop  offset="0.9141" style="stop-color:#A41F30"/>
	</linearGradient>
	<path opacity="0.8" fill="url(#SVGID_2_)" enable-background="new    " d="M77.137,35.029c0-6.423-8.359-11.63-14.636-11.63
		c-6.483,0-14.635,5.208-14.635,11.63c0,6.424,6.552,2.857,14.635,2.857S77.137,41.453,77.137,35.029z"/>
	<g id="TEXT_20_">
		<path fill="#FFFFFF" d="M75.862,42.807c-0.797-0.797-1.762-1.186-2.854-1.186c-1.092,0-2.04,0.389-2.816,1.186
			c-0.799,0.797-1.188,1.761-1.188,2.873c0,1.113,0.39,2.077,1.188,2.855c0.776,0.797,1.725,1.205,2.816,1.205
			c1.093,0,2.058-0.407,2.854-1.205c0.778-0.778,1.168-1.742,1.168-2.855S76.641,43.604,75.862,42.807L75.862,42.807z
			 M74.511,47.181c-0.41,0.428-0.908,0.631-1.503,0.631c-0.574,0-1.075-0.203-1.481-0.631c-0.411-0.426-0.631-0.927-0.631-1.501
			c0-0.611,0.222-1.112,0.631-1.519c0.407-0.427,0.908-0.631,1.481-0.612c0.595-0.019,1.093,0.187,1.52,0.612
			c0.39,0.408,0.593,0.909,0.613,1.519C75.121,46.254,74.917,46.754,74.511,47.181L74.511,47.181z"/>
		<path fill="#FFFFFF" d="M47.63,39.636c-1.39-0.019-2.54,0.464-3.503,1.465c-0.983,0.982-1.464,2.15-1.464,3.54
			c0,1.373,0.482,2.576,1.464,3.559c0.964,0.964,2.113,1.447,3.503,1.447c1.112,0,2.132-0.334,3.021-1.019
			c0.872-0.705,1.446-1.576,1.743-2.65h-2.021c-0.259,0.519-0.629,0.944-1.093,1.28c-0.519,0.315-1.057,0.481-1.65,0.481
			c-0.853,0-1.575-0.315-2.169-0.909c-0.611-0.611-0.908-1.334-0.889-2.187c-0.018-0.853,0.278-1.576,0.889-2.188
			c0.594-0.593,1.316-0.909,2.169-0.909c0.593,0,1.131,0.166,1.65,0.5c0.463,0.315,0.834,0.761,1.093,1.281h2.021
			c-0.296-1.076-0.871-1.965-1.743-2.652C49.762,39.971,48.743,39.617,47.63,39.636L47.63,39.636z"/>
		<path fill="#FFFFFF" d="M59.865,41.602c-1.299-0.019-2.206,0.333-2.725,1.019c-0.334,0.427-0.501,0.982-0.557,1.688h1.928
			c0.037-0.333,0.148-0.556,0.278-0.705c0.204-0.258,0.537-0.39,1.02-0.371c0.408-0.018,0.723,0.056,0.945,0.187
			c0.222,0.109,0.315,0.333,0.333,0.648c0,0.259-0.148,0.464-0.444,0.593L59.161,44.9c-0.687,0.092-1.242,0.258-1.669,0.499
			c-0.723,0.427-1.075,1.112-1.057,2.095c-0.019,0.685,0.203,1.242,0.649,1.65c0.389,0.333,0.927,0.519,1.575,0.537
			c1.057-0.019,1.892-0.278,2.484-0.797v0.797h1.929V44.01c0-0.927-0.334-1.575-0.965-1.91
			C61.441,41.75,60.699,41.582,59.865,41.602L59.865,41.602z M60.68,45.958l0.37-0.204v0.778c0,0.667-0.185,1.131-0.537,1.391
			c-0.372,0.26-0.761,0.389-1.205,0.389c-0.278,0-0.5-0.074-0.686-0.222c-0.186-0.167-0.278-0.409-0.278-0.76
			c0-0.39,0.148-0.667,0.464-0.871c0.185-0.112,0.5-0.205,0.908-0.26L60.68,45.958L60.68,45.958z"/>
		<polygon fill="#FFFFFF" points="55.305,39.636 53.377,39.636 53.377,49.684 55.305,49.684 		"/>
		<path fill="#FFFFFF" d="M67.575,41.88c-0.517,0.203-0.98,0.557-1.372,1.093v-0.982l-1.835-0.019v7.712h1.91v-3.689
			c0-0.63,0.075-1.075,0.24-1.353c0.13-0.297,0.37-0.538,0.665-0.742c0.337-0.222,0.688-0.334,1.059-0.334l0.593,0.037l-0.019-1.965
			l-0.501,0.036L67.575,41.88L67.575,41.88z"/>
		<polygon fill="#FFFFFF" points="77.364,41.917 82.017,37.263 80.793,36.041 76.141,40.692 		"/>
		<polygon fill="#FFFFFF" points="74.101,40.063 74.101,35.076 72.377,35.076 72.377,40.063 		"/>
		<polygon fill="#FFFFFF" points="78.215,43.845 78.215,45.568 83.314,45.568 83.314,43.845 		"/>
	</g>
</g>
<text transform="matrix(0.9828 -0.0631 -0.1101 0.9939 20.5771 86.3701)" fill="#FFFFFF" font-family="'TeutonNormal-Bold'" font-size="14.9736">PREDICCIONES</text>
</svg>
