<?xml version="1.0" encoding="utf-8"?>
<!-- Generator: Adobe Illustrator 16.0.0, SVG Export Plug-In . SVG Version: 6.00 Build 0)  -->
<!DOCTYPE svg PUBLIC "-//W3C//DTD SVG 1.1//EN" "http://www.w3.org/Graphics/SVG/1.1/DTD/svg11.dtd">
<svg version="1.1" id="Layer_1" xmlns="http://www.w3.org/2000/svg" xmlns:xlink="http://www.w3.org/1999/xlink" x="0px" y="0px"
	 width="125px" height="125px" viewBox="0 0 125 125" enable-background="new 0 0 125 125" xml:space="preserve">
<g>
	<g>
		<path fill="#00899D" d="M106.494,15.673c-36.15,0-42.266-13.723-42.322-13.851c-0.264-0.671-0.918-1.12-1.66-1.136
			c0,0-0.016,0-0.031,0c-0.719,0-1.381,0.449-1.67,1.104c-0.043,0.146-6.291,13.883-42.307,13.883c-1.006,0-1.801,0.814-1.801,1.799
			V78.96c0,25.171,43.234,44.401,45.064,45.21c0.242,0.104,0.473,0.145,0.732,0.145c0.238,0,0.496-0.041,0.726-0.145
			c1.852-0.809,45.071-20.039,45.071-45.21V17.472C108.289,16.487,107.49,15.673,106.494,15.673z"/>
	</g>
</g>
<g>
	<circle fill="#A41F30" cx="62.501" cy="44.169" r="23.816"/>
	
		<radialGradient id="SVGID_1_" cx="-151.9985" cy="156.2227" r="22.9803" gradientTransform="matrix(1 0 0 -1 214.5 217)" gradientUnits="userSpaceOnUse">
		<stop  offset="0" style="stop-color:#EB97A6"/>
		<stop  offset="0.323" style="stop-color:#D35D67"/>
		<stop  offset="0.6391" style="stop-color:#BD2B2F"/>
		<stop  offset="0.8734" style="stop-color:#B00C0D"/>
		<stop  offset="1" style="stop-color:#AB0000"/>
	</radialGradient>
	<circle opacity="0.8" fill="url(#SVGID_1_)" enable-background="new    " cx="62.501" cy="44.169" r="23.816"/>
	
		<linearGradient id="SVGID_2_" gradientUnits="userSpaceOnUse" x1="-151.9985" y1="192.7734" x2="-151.9985" y2="175.3623" gradientTransform="matrix(1 0 0 -1 214.5 217)">
		<stop  offset="0.0843" style="stop-color:#FFFFFF"/>
		<stop  offset="0.0855" style="stop-color:#FFFFFE"/>
		<stop  offset="0.2469" style="stop-color:#F4C4B7"/>
		<stop  offset="0.3629" style="stop-color:#EDA08A"/>
		<stop  offset="0.4213" style="stop-color:#EA9279"/>
		<stop  offset="0.4483" style="stop-color:#E48973"/>
		<stop  offset="0.5972" style="stop-color:#C95B56"/>
		<stop  offset="0.7298" style="stop-color:#B53A41"/>
		<stop  offset="0.84" style="stop-color:#A82635"/>
		<stop  offset="0.9141" style="stop-color:#A41F30"/>
	</linearGradient>
	<path opacity="0.8" fill="url(#SVGID_2_)" enable-background="new    " d="M77.131,34.753c0-6.42-8.356-11.625-14.63-11.625
		c-6.481,0-14.629,5.206-14.629,11.625c0,6.421,6.549,2.856,14.629,2.856C70.581,37.609,77.131,41.175,77.131,34.753z"/>
	<g id="TEXT_20_">
		<path fill="#FFFFFF" d="M75.856,42.527c-0.797-0.797-1.761-1.186-2.853-1.186c-1.093,0-2.039,0.389-2.816,1.186
			c-0.798,0.796-1.187,1.76-1.187,2.872s0.389,2.076,1.187,2.854c0.777,0.797,1.724,1.204,2.816,1.204
			c1.092,0,2.056-0.407,2.853-1.204c0.778-0.778,1.167-1.742,1.167-2.854C77.023,44.287,76.635,43.324,75.856,42.527L75.856,42.527z
			 M74.506,46.899c-0.41,0.428-0.908,0.63-1.502,0.63c-0.575,0-1.075-0.203-1.482-0.63c-0.408-0.426-0.63-0.926-0.63-1.5
			c0-0.611,0.223-1.112,0.63-1.518c0.408-0.427,0.908-0.63,1.482-0.612c0.594-0.018,1.092,0.186,1.518,0.612
			c0.39,0.407,0.594,0.909,0.612,1.518C75.116,45.974,74.911,46.474,74.506,46.899L74.506,46.899z"/>
		<path fill="#FFFFFF" d="M47.636,39.358c-1.389-0.019-2.538,0.463-3.501,1.464c-0.982,0.982-1.463,2.149-1.463,3.539
			c0,1.371,0.481,2.575,1.463,3.558c0.963,0.964,2.112,1.446,3.501,1.446c1.112,0,2.131-0.334,3.021-1.019
			c0.871-0.705,1.446-1.576,1.742-2.649h-2.02c-0.259,0.519-0.63,0.944-1.092,1.279c-0.519,0.315-1.057,0.481-1.65,0.481
			c-0.853,0-1.574-0.314-2.168-0.908c-0.611-0.612-0.908-1.334-0.889-2.186c-0.018-0.853,0.278-1.575,0.889-2.187
			c0.594-0.593,1.315-0.908,2.168-0.908c0.593,0,1.13,0.167,1.65,0.5c0.462,0.315,0.833,0.761,1.092,1.28h2.02
			c-0.296-1.075-0.871-1.964-1.742-2.65C49.767,39.693,48.749,39.339,47.636,39.358L47.636,39.358z"/>
		<path fill="#FFFFFF" d="M59.866,41.323c-1.298-0.019-2.205,0.333-2.724,1.019c-0.334,0.427-0.501,0.982-0.557,1.686h1.927
			c0.037-0.333,0.148-0.555,0.278-0.704c0.203-0.259,0.537-0.39,1.02-0.371c0.408-0.018,0.722,0.056,0.945,0.186
			c0.222,0.11,0.314,0.333,0.333,0.648c0,0.259-0.148,0.464-0.443,0.593l-1.483,0.241c-0.687,0.092-1.241,0.258-1.667,0.499
			c-0.723,0.427-1.075,1.111-1.057,2.095c-0.018,0.685,0.203,1.241,0.649,1.649c0.389,0.333,0.927,0.518,1.574,0.537
			c1.056-0.019,1.891-0.278,2.483-0.797V49.4h1.928v-5.67c0-0.927-0.335-1.574-0.965-1.909C61.441,41.471,60.7,41.303,59.866,41.323
			L59.866,41.323z M60.681,45.677l0.37-0.204v0.778c0,0.667-0.185,1.131-0.536,1.39c-0.372,0.26-0.761,0.389-1.205,0.389
			c-0.278,0-0.5-0.074-0.686-0.222c-0.185-0.167-0.277-0.409-0.277-0.76c0-0.39,0.148-0.667,0.463-0.871
			c0.184-0.111,0.5-0.205,0.908-0.259L60.681,45.677L60.681,45.677z"/>
		<polygon fill="#FFFFFF" points="55.308,39.358 53.381,39.358 53.381,49.401 55.308,49.401 		"/>
		<path fill="#FFFFFF" d="M67.573,41.601c-0.518,0.203-0.98,0.557-1.371,1.093v-0.981l-1.835-0.019v7.709h1.91v-3.688
			c0-0.63,0.074-1.074,0.24-1.353c0.129-0.296,0.37-0.538,0.665-0.741c0.335-0.223,0.687-0.334,1.058-0.334l0.592,0.037
			l-0.018-1.964l-0.501,0.036L67.573,41.601L67.573,41.601z"/>
		<polygon fill="#FFFFFF" points="77.358,41.638 82.008,36.987 80.786,35.764 76.135,40.414 		"/>
		<polygon fill="#FFFFFF" points="74.096,39.785 74.096,34.8 72.373,34.8 72.373,39.785 		"/>
		<polygon fill="#FFFFFF" points="78.209,43.564 78.209,45.287 83.306,45.287 83.306,43.564 		"/>
	</g>
</g>
<text transform="matrix(0.9828 -0.0631 -0.1101 0.9939 20.5957 86.0713)" fill="#FFFFFF" font-family="'TeutonNormal-Bold'" font-size="14.9672">PREDICCIONES</text>
</svg>
