<?xml version="1.0" encoding="utf-8"?>
<!-- Generator: Adobe Illustrator 16.0.0, SVG Export Plug-In . SVG Version: 6.00 Build 0)  -->
<!DOCTYPE svg PUBLIC "-//W3C//DTD SVG 1.1//EN" "http://www.w3.org/Graphics/SVG/1.1/DTD/svg11.dtd">
<svg version="1.1" id="Layer_1" xmlns="http://www.w3.org/2000/svg" xmlns:xlink="http://www.w3.org/1999/xlink" x="0px" y="0px"
	 width="125px" height="125px" viewBox="0 0 125 125" enable-background="new 0 0 125 125" xml:space="preserve">
<g>
	<g>
		<path fill="#CE0500" d="M106.494,15.673c-36.15,0-42.266-13.723-42.322-13.851c-0.264-0.671-0.918-1.12-1.66-1.136
			c0,0-0.016,0-0.031,0c-0.719,0-1.381,0.449-1.67,1.104c-0.043,0.146-6.291,13.883-42.307,13.883c-1.006,0-1.801,0.814-1.801,1.799
			V78.96c0,25.171,43.234,44.401,45.064,45.21c0.242,0.104,0.473,0.145,0.732,0.145c0.238,0,0.496-0.041,0.726-0.145
			c1.848-0.809,45.071-20.039,45.071-45.21V17.472C108.289,16.487,107.49,15.673,106.494,15.673z"/>
	</g>
	<g>
		<g>
			<g>
				<g>
					<defs>
						<rect id="SVGID_1_" x="28.473" y="28.96" width="69.332" height="44.041"/>
					</defs>
					<clipPath id="SVGID_2_">
						<use xlink:href="#SVGID_1_"  overflow="visible"/>
					</clipPath>
					<g clip-path="url(#SVGID_2_)">
						<g opacity="0.7">
							<g opacity="0.6">
							</g>
						</g>
						<g>
							<circle fill="#95979D" cx="63.751" cy="62.21" r="30.193"/>
							<g>
								
									<linearGradient id="SVGID_3_" gradientUnits="userSpaceOnUse" x1="270.9248" y1="-557.9731" x2="283.4814" y2="-557.9731" gradientTransform="matrix(0.1488 0.9889 -0.9889 0.1488 -512.1084 -152.246)">
									<stop  offset="0" style="stop-color:#FFFFFF"/>
									<stop  offset="0.2199" style="stop-color:#FBFBFB"/>
									<stop  offset="0.4618" style="stop-color:#EDEEEF"/>
									<stop  offset="0.7142" style="stop-color:#D7D9DC"/>
									<stop  offset="0.9724" style="stop-color:#B9BCC0"/>
									<stop  offset="1" style="stop-color:#B5B8BD"/>
								</linearGradient>
								<path fill="url(#SVGID_3_)" d="M73.886,33.563c3.255,2.042,6.413,2.994,9.817,6.734c1.627,0.896,2.793,2.397,4.249,3.848
									C84.037,39.008,79.145,34.997,73.886,33.563L73.886,33.563z"/>
								
									<linearGradient id="SVGID_4_" gradientUnits="userSpaceOnUse" x1="293.9395" y1="-566.668" x2="309.8096" y2="-566.668" gradientTransform="matrix(0.1488 0.9889 -0.9889 0.1488 -512.1084 -152.246)">
									<stop  offset="0" style="stop-color:#FFFFFF"/>
									<stop  offset="0.2199" style="stop-color:#FBFBFB"/>
									<stop  offset="0.4618" style="stop-color:#EDEEEF"/>
									<stop  offset="0.7142" style="stop-color:#D7D9DC"/>
									<stop  offset="0.9724" style="stop-color:#B9BCC0"/>
									<stop  offset="1" style="stop-color:#B5B8BD"/>
								</linearGradient>
								<path fill="url(#SVGID_4_)" d="M93.484,69.839c1.01-3.856,1.576-7.985-0.678-15.849c0.144,1.766,0.409,3.429,0.135,4.769
									c1.344,2.949,1.047,6.925,0.229,11.226L93.484,69.839L93.484,69.839z"/>
								
									<linearGradient id="SVGID_5_" gradientUnits="userSpaceOnUse" x1="309.7363" y1="-561.0879" x2="321.9482" y2="-561.0879" gradientTransform="matrix(0.1488 0.9889 -0.9889 0.1488 -512.1084 -152.246)">
									<stop  offset="0" style="stop-color:#FFFFFF"/>
									<stop  offset="0.2199" style="stop-color:#FBFBFB"/>
									<stop  offset="0.4618" style="stop-color:#EDEEEF"/>
									<stop  offset="0.7142" style="stop-color:#D7D9DC"/>
									<stop  offset="0.9724" style="stop-color:#B9BCC0"/>
									<stop  offset="1" style="stop-color:#B5B8BD"/>
								</linearGradient>
								<path fill="url(#SVGID_5_)" d="M87.195,80.271l-1.1,3.054c3.901-4.644,6.164-9.108,7.307-13.449l-0.438,0.083
									C91.417,72.971,89.546,78.273,87.195,80.271L87.195,80.271z"/>
								<path fill="#FFFFFF" d="M48.423,54.526c-1.857,1.758-3.546,4.298-5.032,7.09l-1.615,3.964l0.332,1.311
									c0.68,2.028,1.521,3.752,2.434,5.325c0.672,1.595,1.511,3.087,2.621,4.42l0.529,0.914l0.794-0.084l4.931,0.771l3.729,0.322
									l1.996-0.056l1.123-0.233l4.084-6.851l2.271-3.912l-5.444-10.925l-0.536-0.948c-2.737-0.542-5.686-0.792-8.729-0.905
									L48.423,54.526L48.423,54.526z"/>
								<path fill="#FFFFFF" d="M67.874,45.075l-3.433,5.09l-1.312,2.27l-1.596,3.457l1.965,3.833
									c0.775,1.854,1.654,3.569,2.561,5.241l1.377,2.483l12.105,0.994c2.795-3.364,4.848-6.944,6.312-10.568
									c-1.086-4.138-2.963-7.885-5.364-11.223l-3.165-1.281C73.803,45.008,70.48,44.786,67.874,45.075L67.874,45.075z"/>
								<path fill="#002878" d="M67.511,67.657c-1.921,3.582-4.448,7.118-7.062,10.647c2.472,3.236,5.283,5.562,8.227,7.525
									c4.949-1.29,8.835-3.346,11.65-6.159c0.482-3.772,0.05-7.394-0.797-10.942C75.453,68.47,71.585,67.917,67.511,67.657
									L67.511,67.657z"/>
								<path fill="#FFFFFF" d="M48.308,78.126l-0.554,0.335l-2.886,5.3c1.227,1.669,2.704,3.604,4.585,5.32l3.864,1.675l3.58,1.104
									l8.054-0.43c1.626-1.895,2.521-3.568,2.913-5.095c-2.786-2.237-5.495-4.55-7.866-7.183
									C56.239,79.646,52.326,79.206,48.308,78.126L48.308,78.126z"/>
								<path fill="#002878" d="M47.305,77.453c-2.33-3.196-4.178-6.63-5.546-10.303l-0.9-1.178
									c-1.758,0.006-3.553-0.216-5.362-0.516c-0.647,3.779-0.037,7.281,1.608,10.369c1.387,3.171,4.049,5.699,7.466,7.283
									L47.305,77.453L47.305,77.453z"/>
								<path fill="#FFFFFF" d="M35.588,64.855c2.039,0.252,3.847,0.36,5.831,0.285c1.359-3.805,3.385-7.472,6.467-11.007
									c-0.977-3.047-1.081-5.856-0.525-10.307c-1.455-0.603-3.778-0.454-6.161,0.105c-2.846,2.317-5.009,5.859-6.479,9.735
									C33.57,58.721,33.835,62.519,35.588,64.855L35.588,64.855z"/>
								<path fill="#FFFFFF" d="M59.471,37.252c3.434,2.131,6.335,4.442,8.371,7.052c3.745-0.497,7.646-0.077,11.672,1.104
									l1.602-1.297c0.535-1.212,1.15-2.263,1.82-3.169l-0.135-1.572c-2.068-2.435-5.279-4.201-8.806-5.779
									c-4.29-1.24-7.994-1.132-11.483-0.535C60.959,34.544,60.037,35.929,59.471,37.252L59.471,37.252z"/>
								<path fill="#FFFFFF" d="M86.326,58.566c-1.703,4.194-3.823,7.375-6.18,9.989c0.906,3.682,1.338,7.438,0.724,11.37
									c2.282,0.456,4.431,0.571,6.271-0.067c2.603-1.74,4.404-5.043,5.848-9.056c1.199-4.179,0.955-8.045-0.479-11.657
									C90.084,58.587,87.973,58.345,86.326,58.566L86.326,58.566z"/>
								<path fill="#FFFFFF" d="M68.727,86.2c-0.672,1.895-1.715,3.645-3.127,5.248c0.719,0.659,1.916,0.892,3.596,0.698
									c5.853-1.131,11.498-3.522,16.681-8.693l0.685-1.205l-0.104-0.464l0.472-1.364c-2.179,0.383-4.662,0.305-6.508-0.111
									C77.146,83.305,73.141,85.092,68.727,86.2L68.727,86.2z"/>
								<path fill="#FFFFFF" d="M42.258,41.496c-0.48,0.75-0.773,1.466-0.882,2.152c2.114-0.566,4.176-0.957,6.041-0.717
									c3.18-2.851,7.751-5.151,11.325-5.418c0.975-1.981,1.96-3.714,3.618-4.661c-0.334-0.375-0.822-0.532-1.464-0.475
									C53.466,33.387,47.396,36.666,42.258,41.496L42.258,41.496z"/>
								
									<linearGradient id="SVGID_6_" gradientUnits="userSpaceOnUse" x1="285.958" y1="-508.3096" x2="305.0713" y2="-508.3096" gradientTransform="matrix(0.1488 0.9889 -0.9889 0.1488 -512.1084 -152.246)">
									<stop  offset="0" style="stop-color:#FFFFFF"/>
									<stop  offset="0.2199" style="stop-color:#FBFBFB"/>
									<stop  offset="0.4618" style="stop-color:#EDEEEF"/>
									<stop  offset="0.7142" style="stop-color:#D7D9DC"/>
									<stop  offset="0.9724" style="stop-color:#B9BCC0"/>
									<stop  offset="1" style="stop-color:#B5B8BD"/>
								</linearGradient>
								<path fill="url(#SVGID_6_)" d="M34.333,54.718c-1.873,6.558-1.207,12.919,1.411,19.116c-1.085-3.527-1.542-6.566-0.886-8.73
									C33.643,63.209,33.698,59.535,34.333,54.718L34.333,54.718z"/>
								
									<linearGradient id="SVGID_7_" gradientUnits="userSpaceOnUse" x1="309.79" y1="-514.4648" x2="322.2139" y2="-514.4648" gradientTransform="matrix(0.1488 0.9889 -0.9889 0.1488 -512.1084 -152.246)">
									<stop  offset="0" style="stop-color:#FFFFFF"/>
									<stop  offset="0.2199" style="stop-color:#FBFBFB"/>
									<stop  offset="0.4618" style="stop-color:#EDEEEF"/>
									<stop  offset="0.7142" style="stop-color:#D7D9DC"/>
									<stop  offset="0.9724" style="stop-color:#B9BCC0"/>
									<stop  offset="1" style="stop-color:#B5B8BD"/>
								</linearGradient>
								<path fill="url(#SVGID_7_)" d="M44.351,83.838c-2.192-0.854-4.305-2.98-6.439-5.559c3.363,5.078,7.317,8.937,11.51,10.832
									C47.812,87.841,46.145,86.223,44.351,83.838L44.351,83.838z"/>
								
									<linearGradient id="SVGID_8_" gradientUnits="userSpaceOnUse" x1="326.3799" y1="-532.5615" x2="328.2061" y2="-532.5615" gradientTransform="matrix(0.1488 0.9889 -0.9889 0.1488 -512.1084 -152.246)">
									<stop  offset="0" style="stop-color:#FFFFFF"/>
									<stop  offset="0.2199" style="stop-color:#FBFBFB"/>
									<stop  offset="0.4618" style="stop-color:#EDEEEF"/>
									<stop  offset="0.7142" style="stop-color:#D7D9DC"/>
									<stop  offset="0.9724" style="stop-color:#B9BCC0"/>
									<stop  offset="1" style="stop-color:#B5B8BD"/>
								</linearGradient>
								<path fill="url(#SVGID_8_)" d="M57.709,92.078c2.594,0.738,5.53,1.15,11.064,0.163c-1.777,0.243-2.894,0.088-3.975-0.517
									C62.091,92.424,59.842,92.312,57.709,92.078L57.709,92.078z"/>
								
									<linearGradient id="SVGID_9_" gradientUnits="userSpaceOnUse" x1="274.1396" y1="-515.7178" x2="280.4629" y2="-515.7178" gradientTransform="matrix(0.1488 0.9889 -0.9889 0.1488 -512.1084 -152.246)">
									<stop  offset="0" style="stop-color:#FFFFFF"/>
									<stop  offset="0.2199" style="stop-color:#FBFBFB"/>
									<stop  offset="0.4618" style="stop-color:#EDEEEF"/>
									<stop  offset="0.7142" style="stop-color:#D7D9DC"/>
									<stop  offset="0.9724" style="stop-color:#B9BCC0"/>
									<stop  offset="1" style="stop-color:#B5B8BD"/>
								</linearGradient>
								<path fill="url(#SVGID_9_)" d="M41.543,41.681c-2.362,2.854-3.871,5.171-4.791,7.115c1.167-2.058,2.461-4.05,4.362-5.726
									L41.543,41.681L41.543,41.681z"/>
							</g>
						</g>
						
							<radialGradient id="SVGID_10_" cx="794.8975" cy="494.042" r="33.4501" gradientTransform="matrix(0.9093 0.4464 -0.4469 0.9104 -422.915 -748.7075)" gradientUnits="userSpaceOnUse">
							<stop  offset="0.2439" style="stop-color:#FFFFFF"/>
							<stop  offset="0.2439" style="stop-color:#FFFFFF"/>
							<stop  offset="0.2488" style="stop-color:#FFFFFF"/>
							<stop  offset="0.4211" style="stop-color:#E3E3E4"/>
							<stop  offset="0.6927" style="stop-color:#AFB1B3"/>
							<stop  offset="0.7196" style="stop-color:#A7A9AA"/>
							<stop  offset="0.9088" style="stop-color:#717172"/>
							<stop  offset="1" style="stop-color:#5C5C5C"/>
						</radialGradient>
						<path opacity="0.5" fill="url(#SVGID_10_)" enable-background="new    " d="M91.798,76.152
							c4.009-8.168,3.892-16.755,0.804-24.597c-2.732-6.942-7.479-13.156-14.699-16.702c-8.271-4.059-18.72-3.831-25.521-1.149
							c-6.809,2.685-12.504,8.244-16.006,15.357c-7.151,14.52-0.813,33.31,14.565,40.858C66.316,97.471,84.24,91.546,91.798,76.152z
							"/>
					</g>
				</g>
			</g>
		</g>
		
			<linearGradient id="SVGID_11_" gradientUnits="userSpaceOnUse" x1="111.8457" y1="1222.877" x2="123.7734" y2="1222.877" gradientTransform="matrix(1 0 0 1 -20.5 -1166.5)">
			<stop  offset="0" style="stop-color:#4A4A4A"/>
			<stop  offset="1" style="stop-color:#D1D1D1"/>
		</linearGradient>
		<path fill="url(#SVGID_11_)" d="M94.532,62.828l8.741-7.692l-11.928-5.211c0,0,0.258,0.625,0.865,2.19
			C93.732,56.581,94.532,62.828,94.532,62.828z"/>
		
			<linearGradient id="SVGID_12_" gradientUnits="userSpaceOnUse" x1="-13054.4668" y1="1246.2695" x2="-13045.0371" y2="1246.2695" gradientTransform="matrix(-1 0 0 1 -13023.1387 -1166.5)">
			<stop  offset="0" style="stop-color:#D1D1D1"/>
			<stop  offset="1" style="stop-color:#4A4A4A"/>
		</linearGradient>
		<polygon fill="url(#SVGID_12_)" points="31.328,85.092 21.899,78.919 31.328,74.448 		"/>
	</g>
	<path d="M83.395,41.033l-0.551,0.717c-0.785,1.732-1.689,3.067-2.691,4.167c2.688,3.152,4.724,6.966,5.979,11.584
		c1.981,0.113,3.988,0.366,6.044,0.915C93.904,52.338,89.404,43.818,83.395,41.033L83.395,41.033z"/>
	<path d="M48.479,54.409c4.751-0.167,8.085,0.917,12.129,0.895l0.736-1.076l0.879-1.366c0.584-2.283,3.873-6.145,5-8.186
		c-1.959-2.937-4.886-4.766-7.599-6.877c-4.442,0.997-7.844,2.721-11.685,5.648C47.247,47.5,47.161,50.717,48.479,54.409
		L48.479,54.409z"/>
	<polygon points="21.85,78.875 21.85,60.433 103.273,55.133 103.273,73.58 	"/>
	
		<text transform="matrix(0.9828 -0.0631 -0.1102 0.9939 24.8506 73.4473)" fill="#CE0500" font-family="'TeutonNormal-Bold'" font-size="13">Gurú del Fútbol</text>
	<g>
		<g>
			<g>
				<g>
					<defs>
						<rect id="SVGID_13_" x="3968.285" y="3920.561" width="77.297" height="49.101"/>
					</defs>
					<clipPath id="SVGID_14_">
						<use xlink:href="#SVGID_13_"  overflow="visible"/>
					</clipPath>
					<g clip-path="url(#SVGID_14_)">
						<g opacity="0.7">
							<g opacity="0.6">
							</g>
						</g>
						<g>
							<circle fill="#95979D" cx="4007.617" cy="3957.63" r="33.662"/>
							<g>
								
									<linearGradient id="SVGID_15_" gradientUnits="userSpaceOnUse" x1="4872.5703" y1="-3687.7334" x2="4886.5703" y2="-3687.7334" gradientTransform="matrix(0.1488 0.9889 -0.9889 0.1488 -346.124 -345.081)">
									<stop  offset="0" style="stop-color:#FFFFFF"/>
									<stop  offset="0.2199" style="stop-color:#FBFBFB"/>
									<stop  offset="0.4618" style="stop-color:#EDEEEF"/>
									<stop  offset="0.7142" style="stop-color:#D7D9DC"/>
									<stop  offset="0.9724" style="stop-color:#B9BCC0"/>
									<stop  offset="1" style="stop-color:#B5B8BD"/>
								</linearGradient>
								<path fill="url(#SVGID_15_)" d="M4018.916,3925.691c3.629,2.276,7.15,3.338,10.945,7.508
									c1.813,0.998,3.113,2.673,4.736,4.29C4030.232,3931.762,4024.777,3927.291,4018.916,3925.691L4018.916,3925.691z"/>
								
									<linearGradient id="SVGID_16_" gradientUnits="userSpaceOnUse" x1="4898.2285" y1="-3697.4287" x2="4915.9199" y2="-3697.4287" gradientTransform="matrix(0.1488 0.9889 -0.9889 0.1488 -346.124 -345.081)">
									<stop  offset="0" style="stop-color:#FFFFFF"/>
									<stop  offset="0.2199" style="stop-color:#FBFBFB"/>
									<stop  offset="0.4618" style="stop-color:#EDEEEF"/>
									<stop  offset="0.7142" style="stop-color:#D7D9DC"/>
									<stop  offset="0.9724" style="stop-color:#B9BCC0"/>
									<stop  offset="1" style="stop-color:#B5B8BD"/>
								</linearGradient>
								<path fill="url(#SVGID_16_)" d="M4040.768,3966.135c1.125-4.301,1.756-8.902-0.757-17.669
									c0.16,1.968,0.457,3.821,0.15,5.316c1.498,3.288,1.167,7.72,0.256,12.514L4040.768,3966.135L4040.768,3966.135z"/>
								
									<linearGradient id="SVGID_17_" gradientUnits="userSpaceOnUse" x1="4915.8408" y1="-3691.207" x2="4929.4551" y2="-3691.207" gradientTransform="matrix(0.1488 0.9889 -0.9889 0.1488 -346.124 -345.081)">
									<stop  offset="0" style="stop-color:#FFFFFF"/>
									<stop  offset="0.2199" style="stop-color:#FBFBFB"/>
									<stop  offset="0.4618" style="stop-color:#EDEEEF"/>
									<stop  offset="0.7142" style="stop-color:#D7D9DC"/>
									<stop  offset="0.9724" style="stop-color:#B9BCC0"/>
									<stop  offset="1" style="stop-color:#B5B8BD"/>
								</linearGradient>
								<path fill="url(#SVGID_17_)" d="M4033.755,3977.768l-1.226,3.403c4.351-5.177,6.873-10.153,8.146-14.994l-0.487,0.093
									C4038.462,3969.627,4036.376,3975.54,4033.755,3977.768L4033.755,3977.768z"/>
								<path fill="#FFFFFF" d="M3990.527,3949.062c-2.07,1.959-3.953,4.791-5.609,7.904l-1.801,4.419l0.369,1.46
									c0.759,2.264,1.695,4.186,2.714,5.938c0.749,1.778,1.685,3.44,2.922,4.928l0.59,1.021l0.886-0.094l5.498,0.857l4.156,0.357
									l2.227-0.061l1.252-0.262l4.553-7.637l2.531-4.361l-6.07-12.18l-0.598-1.06c-3.053-0.604-6.34-0.882-9.732-1.008
									L3990.527,3949.062L3990.527,3949.062z"/>
								<path fill="#FFFFFF" d="M4012.214,3938.525l-3.827,5.676l-1.463,2.531l-1.779,3.854l2.19,4.271
									c0.864,2.069,1.847,3.979,2.854,5.844l1.535,2.769l13.496,1.108c3.116-3.75,5.405-7.741,7.038-11.782
									c-1.211-4.614-3.303-8.791-5.979-12.512l-3.528-1.429C4018.823,3938.451,4015.119,3938.204,4012.214,3938.525
									L4012.214,3938.525z"/>
								<path fill="#002878" d="M4011.809,3963.703c-2.142,3.992-4.959,7.936-7.873,11.87c2.756,3.608,5.892,6.202,9.172,8.392
									c5.518-1.438,9.851-3.73,12.988-6.867c0.538-4.205,0.057-8.242-0.888-12.199
									C4020.664,3964.607,4016.352,3963.992,4011.809,3963.703L4011.809,3963.703z"/>
								<path fill="#FFFFFF" d="M3990.398,3975.374l-0.617,0.374l-3.217,5.908c1.367,1.859,3.015,4.017,5.111,5.932l4.309,1.867
									l3.992,1.229l8.979-0.479c1.812-2.111,2.812-3.979,3.248-5.68c-3.105-2.496-6.127-5.072-8.771-8.008
									C3999.242,3977.068,3994.879,3976.579,3990.398,3975.374L3990.398,3975.374z"/>
								<path fill="#002878" d="M3989.281,3974.624c-2.598-3.563-4.658-7.392-6.184-11.485l-1.004-1.312
									c-1.96,0.006-3.961-0.24-5.979-0.575c-0.723,4.215-0.042,8.118,1.793,11.561c1.546,3.535,4.514,6.355,8.322,8.121
									L3989.281,3974.624L3989.281,3974.624z"/>
								<path fill="#FFFFFF" d="M3976.218,3960.581c2.273,0.28,4.289,0.401,6.501,0.317c1.516-4.242,3.773-8.33,7.209-12.271
									c-1.088-3.397-1.205-6.528-0.585-11.492c-1.622-0.671-4.212-0.506-6.868,0.117c-3.174,2.583-5.584,6.533-7.225,10.854
									C3973.969,3953.74,3974.264,3957.975,3976.218,3960.581L3976.218,3960.581z"/>
								<path fill="#FFFFFF" d="M4002.846,3929.805c3.827,2.375,7.062,4.952,9.332,7.862c4.176-0.554,8.524-0.086,13.012,1.229
									l1.787-1.445c0.597-1.352,1.281-2.523,2.029-3.534l-0.15-1.752c-2.306-2.715-5.885-4.685-9.816-6.442
									c-4.783-1.383-8.913-1.263-12.803-0.596C4004.504,3926.785,4003.477,3928.329,4002.846,3929.805L4002.846,3929.805z"/>
								<path fill="#FFFFFF" d="M4032.786,3953.566c-1.899,4.676-4.263,8.223-6.89,11.137c1.011,4.104,1.49,8.294,0.807,12.677
									c2.545,0.509,4.939,0.638,6.99-0.075c2.9-1.94,4.91-5.621,6.521-10.096c1.336-4.659,1.063-8.97-0.534-12.997
									C4036.977,3953.59,4034.621,3953.322,4032.786,3953.566L4032.786,3953.566z"/>
								<path fill="#FFFFFF" d="M4013.164,3984.376c-0.749,2.112-1.912,4.063-3.487,5.853c0.802,0.733,2.138,0.994,4.011,0.777
									c6.523-1.261,12.817-3.927,18.597-9.691l0.762-1.345l-0.116-0.517l0.525-1.521c-2.43,0.428-5.198,0.34-7.255-0.123
									C4022.551,3981.146,4018.085,3983.141,4013.164,3984.376L4013.164,3984.376z"/>
								<path fill="#FFFFFF" d="M3983.654,3934.536c-0.536,0.835-0.862,1.635-0.983,2.399c2.356-0.631,4.655-1.066,6.735-0.801
									c3.545-3.178,8.642-5.742,12.626-6.041c1.086-2.209,2.185-4.14,4.034-5.195c-0.373-0.42-0.918-0.594-1.633-0.529
									C3996.15,3925.496,3989.383,3929.15,3983.654,3934.536L3983.654,3934.536z"/>
								
									<linearGradient id="SVGID_18_" gradientUnits="userSpaceOnUse" x1="4889.332" y1="-3632.3652" x2="4910.6406" y2="-3632.3652" gradientTransform="matrix(0.1488 0.9889 -0.9889 0.1488 -346.124 -345.081)">
									<stop  offset="0" style="stop-color:#FFFFFF"/>
									<stop  offset="0.2199" style="stop-color:#FBFBFB"/>
									<stop  offset="0.4618" style="stop-color:#EDEEEF"/>
									<stop  offset="0.7142" style="stop-color:#D7D9DC"/>
									<stop  offset="0.9724" style="stop-color:#B9BCC0"/>
									<stop  offset="1" style="stop-color:#B5B8BD"/>
								</linearGradient>
								<path fill="url(#SVGID_18_)" d="M3974.818,3949.277c-2.088,7.311-1.346,14.402,1.574,21.312
									c-1.209-3.933-1.72-7.32-0.988-9.734C3974.049,3958.744,3974.111,3954.646,3974.818,3949.277L3974.818,3949.277z"/>
								
									<linearGradient id="SVGID_19_" gradientUnits="userSpaceOnUse" x1="4915.9004" y1="-3639.2256" x2="4929.7529" y2="-3639.2256" gradientTransform="matrix(0.1488 0.9889 -0.9889 0.1488 -346.124 -345.081)">
									<stop  offset="0" style="stop-color:#FFFFFF"/>
									<stop  offset="0.2199" style="stop-color:#FBFBFB"/>
									<stop  offset="0.4618" style="stop-color:#EDEEEF"/>
									<stop  offset="0.7142" style="stop-color:#D7D9DC"/>
									<stop  offset="0.9724" style="stop-color:#B9BCC0"/>
									<stop  offset="1" style="stop-color:#B5B8BD"/>
								</linearGradient>
								<path fill="url(#SVGID_19_)" d="M3985.988,3981.742c-2.444-0.952-4.799-3.322-7.18-6.197
									c3.75,5.663,8.157,9.964,12.832,12.078C3989.848,3986.205,3987.988,3984.4,3985.988,3981.742L3985.988,3981.742z"/>
								
									<linearGradient id="SVGID_20_" gradientUnits="userSpaceOnUse" x1="4934.3965" y1="-3659.4033" x2="4936.4307" y2="-3659.4033" gradientTransform="matrix(0.1488 0.9889 -0.9889 0.1488 -346.124 -345.081)">
									<stop  offset="0" style="stop-color:#FFFFFF"/>
									<stop  offset="0.2199" style="stop-color:#FBFBFB"/>
									<stop  offset="0.4618" style="stop-color:#EDEEEF"/>
									<stop  offset="0.7142" style="stop-color:#D7D9DC"/>
									<stop  offset="0.9724" style="stop-color:#B9BCC0"/>
									<stop  offset="1" style="stop-color:#B5B8BD"/>
								</linearGradient>
								<path fill="url(#SVGID_20_)" d="M4000.881,3990.93c2.893,0.823,6.166,1.282,12.337,0.182
									c-1.981,0.272-3.227,0.099-4.432-0.575C4005.766,3991.314,4003.259,3991.191,4000.881,3990.93L4000.881,3990.93z"/>
								
									<linearGradient id="SVGID_21_" gradientUnits="userSpaceOnUse" x1="4876.1553" y1="-3640.6221" x2="4883.2041" y2="-3640.6221" gradientTransform="matrix(0.1488 0.9889 -0.9889 0.1488 -346.124 -345.081)">
									<stop  offset="0" style="stop-color:#FFFFFF"/>
									<stop  offset="0.2199" style="stop-color:#FBFBFB"/>
									<stop  offset="0.4618" style="stop-color:#EDEEEF"/>
									<stop  offset="0.7142" style="stop-color:#D7D9DC"/>
									<stop  offset="0.9724" style="stop-color:#B9BCC0"/>
									<stop  offset="1" style="stop-color:#B5B8BD"/>
								</linearGradient>
								<path fill="url(#SVGID_21_)" d="M3982.857,3934.742c-2.635,3.183-4.316,5.766-5.342,7.933
									c1.301-2.295,2.744-4.515,4.863-6.384L3982.857,3934.742L3982.857,3934.742z"/>
							</g>
						</g>
						
							<radialGradient id="SVGID_22_" cx="6007.9053" cy="2311.5479" r="37.2935" gradientTransform="matrix(0.9093 0.4464 -0.4469 0.9104 -405.2285 -835.7563)" gradientUnits="userSpaceOnUse">
							<stop  offset="0.2439" style="stop-color:#FFFFFF"/>
							<stop  offset="0.2439" style="stop-color:#FFFFFF"/>
							<stop  offset="0.2488" style="stop-color:#FFFFFF"/>
							<stop  offset="0.4211" style="stop-color:#E3E3E4"/>
							<stop  offset="0.6927" style="stop-color:#AFB1B3"/>
							<stop  offset="0.7196" style="stop-color:#A7A9AA"/>
							<stop  offset="0.9088" style="stop-color:#717172"/>
							<stop  offset="1" style="stop-color:#5C5C5C"/>
						</radialGradient>
						<path opacity="0.5" fill="url(#SVGID_22_)" enable-background="new    " d="M4038.887,3973.174
							c4.469-9.105,4.338-18.681,0.896-27.422c-3.048-7.74-8.339-14.668-16.388-18.621c-9.221-4.525-20.871-4.271-28.453-1.281
							c-7.592,2.993-13.941,9.191-17.846,17.121c-7.973,16.188-0.906,37.137,16.239,45.553
							C4010.479,3996.941,4030.46,3990.336,4038.887,3973.174z"/>
					</g>
				</g>
			</g>
		</g>
		
			<linearGradient id="SVGID_23_" gradientUnits="userSpaceOnUse" x1="4058.8828" y1="5117.626" x2="4072.1816" y2="5117.626" gradientTransform="matrix(1 0 0 1 -20.5 -1166.5)">
			<stop  offset="0" style="stop-color:#4A4A4A"/>
			<stop  offset="1" style="stop-color:#D1D1D1"/>
		</linearGradient>
		<path fill="url(#SVGID_23_)" d="M4041.936,3958.318l9.746-8.575l-13.299-5.81c0,0,0.288,0.696,0.965,2.441
			C4041.044,3951.354,4041.936,3958.318,4041.936,3958.318z"/>
		
			<linearGradient id="SVGID_24_" gradientUnits="userSpaceOnUse" x1="-16604.6074" y1="5143.707" x2="-16594.0957" y2="5143.707" gradientTransform="matrix(-1 0 0 1 -12633.1387 -1166.5)">
			<stop  offset="0" style="stop-color:#D1D1D1"/>
			<stop  offset="1" style="stop-color:#4A4A4A"/>
		</linearGradient>
		<polygon fill="url(#SVGID_24_)" points="3971.469,3983.141 3960.957,3976.259 3971.469,3971.273 		"/>
	</g>
</g>
</svg>
