<?xml version="1.0" encoding="utf-8"?>
<!-- Generator: Adobe Illustrator 16.0.0, SVG Export Plug-In . SVG Version: 6.00 Build 0)  -->
<!DOCTYPE svg PUBLIC "-//W3C//DTD SVG 1.1//EN" "http://www.w3.org/Graphics/SVG/1.1/DTD/svg11.dtd">
<svg version="1.1" id="Layer_1" xmlns="http://www.w3.org/2000/svg" xmlns:xlink="http://www.w3.org/1999/xlink" x="0px" y="0px"
	 width="125px" height="125px" viewBox="0 0 125 125" enable-background="new 0 0 125 125" xml:space="preserve">
<g>
	<path fill="#002878" d="M113.939,19.569c-21.311,0-37.637-6.088-51.441-19.514C48.694,13.481,32.369,19.569,11.061,19.569
		c0,34.958-7.232,85.037,51.438,105.375C121.172,104.607,113.939,54.528,113.939,19.569z"/>
</g>
<g>
	<g>
		<g>
			<defs>
				<rect id="SVGID_1_" x="25.285" y="22.56" width="77.297" height="49.101"/>
			</defs>
			<clipPath id="SVGID_2_">
				<use xlink:href="#SVGID_1_"  overflow="visible"/>
			</clipPath>
			<g clip-path="url(#SVGID_2_)">
				<g opacity="0.7">
					<g opacity="0.6">
						
							<image overflow="visible" enable-background="new    " width="1766" height="1766" xlink:href="../Documents/Tim Futebol/D06F58C607251782.png"  transform="matrix(-0.0094 0.042 -0.042 -0.0094 104.877 34.6387)">
						</image>
					</g>
				</g>
				<g>
					<circle fill="#95979D" cx="64.617" cy="59.63" r="33.662"/>
					<g>
						
							<linearGradient id="SVGID_3_" gradientUnits="userSpaceOnUse" x1="491.5117" y1="765.125" x2="505.5127" y2="765.125" gradientTransform="matrix(0.1488 0.9889 0.9889 -0.1488 -747.0529 -345.5372)">
							<stop  offset="0" style="stop-color:#FFFFFF"/>
							<stop  offset="0.2199" style="stop-color:#FBFBFB"/>
							<stop  offset="0.4618" style="stop-color:#EDEEEF"/>
							<stop  offset="0.7142" style="stop-color:#D7D9DC"/>
							<stop  offset="0.9724" style="stop-color:#B9BCC0"/>
							<stop  offset="1" style="stop-color:#B5B8BD"/>
						</linearGradient>
						<path fill="url(#SVGID_3_)" d="M75.916,27.691c3.629,2.277,7.15,3.338,10.945,7.508c1.814,0.998,3.114,2.673,4.737,4.29
							C87.233,33.762,81.778,29.291,75.916,27.691L75.916,27.691z"/>
						
							<linearGradient id="SVGID_4_" gradientUnits="userSpaceOnUse" x1="517.1709" y1="774.8203" x2="534.8623" y2="774.8203" gradientTransform="matrix(0.1488 0.9889 0.9889 -0.1488 -747.0529 -345.5372)">
							<stop  offset="0" style="stop-color:#FFFFFF"/>
							<stop  offset="0.2199" style="stop-color:#FBFBFB"/>
							<stop  offset="0.4618" style="stop-color:#EDEEEF"/>
							<stop  offset="0.7142" style="stop-color:#D7D9DC"/>
							<stop  offset="0.9724" style="stop-color:#B9BCC0"/>
							<stop  offset="1" style="stop-color:#B5B8BD"/>
						</linearGradient>
						<path fill="url(#SVGID_4_)" d="M97.767,68.135c1.126-4.301,1.757-8.902-0.756-17.669c0.16,1.968,0.457,3.821,0.15,5.316
							c1.498,3.288,1.167,7.72,0.256,12.514L97.767,68.135L97.767,68.135z"/>
						
							<linearGradient id="SVGID_5_" gradientUnits="userSpaceOnUse" x1="534.7832" y1="768.5996" x2="548.3975" y2="768.5996" gradientTransform="matrix(0.1488 0.9889 0.9889 -0.1488 -747.0529 -345.5372)">
							<stop  offset="0" style="stop-color:#FFFFFF"/>
							<stop  offset="0.2199" style="stop-color:#FBFBFB"/>
							<stop  offset="0.4618" style="stop-color:#EDEEEF"/>
							<stop  offset="0.7142" style="stop-color:#D7D9DC"/>
							<stop  offset="0.9724" style="stop-color:#B9BCC0"/>
							<stop  offset="1" style="stop-color:#B5B8BD"/>
						</linearGradient>
						<path fill="url(#SVGID_5_)" d="M90.755,79.768l-1.226,3.403c4.351-5.177,6.873-10.154,8.146-14.994l-0.488,0.093
							C95.462,71.627,93.376,77.54,90.755,79.768L90.755,79.768z"/>
						<path fill="#FFFFFF" d="M47.528,51.062c-2.071,1.959-3.954,4.792-5.61,7.905l-1.801,4.419l0.37,1.46
							c0.758,2.263,1.695,4.185,2.713,5.938c0.749,1.778,1.685,3.441,2.922,4.928l0.59,1.02l0.885-0.094l5.498,0.858l4.157,0.358
							l2.226-0.061l1.252-0.262l4.553-7.637l2.531-4.361l-6.07-12.18l-0.598-1.059c-3.052-0.604-6.339-0.882-9.732-1.008
							L47.528,51.062L47.528,51.062z"/>
						<path fill="#FFFFFF" d="M69.214,40.526l-3.827,5.675l-1.463,2.531l-1.779,3.854l2.19,4.272
							c0.864,2.069,1.846,3.979,2.854,5.843l1.536,2.769l13.496,1.108c3.116-3.75,5.405-7.741,7.038-11.782
							c-1.211-4.614-3.303-8.791-5.98-12.512l-3.528-1.428C75.823,40.451,72.119,40.204,69.214,40.526L69.214,40.526z"/>
						<path fill="#002878" d="M68.809,65.703c-2.142,3.993-4.96,7.936-7.874,11.87c2.756,3.609,5.892,6.203,9.172,8.392
							c5.518-1.438,9.851-3.73,12.989-6.867c0.538-4.205,0.056-8.243-0.888-12.2C77.664,66.608,73.351,65.992,68.809,65.703
							L68.809,65.703z"/>
						<path fill="#FFFFFF" d="M47.399,77.374l-0.618,0.374l-3.217,5.908c1.368,1.86,3.015,4.017,5.112,5.932l4.308,1.867
							l3.992,1.229l8.979-0.479c1.812-2.111,2.812-3.978,3.248-5.68c-3.106-2.495-6.127-5.072-8.771-8.008
							C56.242,79.068,51.879,78.579,47.399,77.374L47.399,77.374z"/>
						<path fill="#002878" d="M46.281,76.624c-2.598-3.563-4.658-7.392-6.183-11.485l-1.004-1.312
							c-1.96,0.006-3.961-0.24-5.979-0.575c-0.722,4.215-0.042,8.118,1.793,11.561c1.546,3.535,4.514,6.355,8.323,8.12
							L46.281,76.624L46.281,76.624z"/>
						<path fill="#FFFFFF" d="M33.218,62.581c2.273,0.28,4.289,0.401,6.501,0.318c1.516-4.243,3.773-8.33,7.209-12.271
							c-1.088-3.397-1.205-6.529-0.585-11.492c-1.623-0.671-4.212-0.506-6.869,0.117c-3.173,2.583-5.584,6.533-7.224,10.854
							C30.969,55.74,31.264,59.975,33.218,62.581L33.218,62.581z"/>
						<path fill="#FFFFFF" d="M59.845,31.804c3.828,2.376,7.063,4.953,9.333,7.863c4.176-0.554,8.524-0.086,13.012,1.23l1.786-1.446
							c0.597-1.352,1.282-2.523,2.03-3.534l-0.15-1.752c-2.306-2.715-5.886-4.684-9.817-6.442
							c-4.783-1.383-8.913-1.263-12.803-0.596C61.504,28.785,60.477,30.329,59.845,31.804L59.845,31.804z"/>
						<path fill="#FFFFFF" d="M89.786,55.567c-1.899,4.675-4.263,8.222-6.889,11.136c1.01,4.104,1.49,8.294,0.806,12.677
							c2.545,0.509,4.939,0.637,6.991-0.075c2.9-1.941,4.91-5.622,6.52-10.096c1.336-4.659,1.063-8.97-0.534-12.997
							C93.976,55.59,91.621,55.322,89.786,55.567L89.786,55.567z"/>
						<path fill="#FFFFFF" d="M70.164,86.376c-0.749,2.112-1.912,4.063-3.487,5.852c0.802,0.734,2.137,0.994,4.01,0.778
							c6.524-1.261,12.818-3.927,18.597-9.692l0.762-1.344l-0.116-0.517l0.525-1.521c-2.429,0.427-5.198,0.34-7.255-0.124
							C79.551,83.147,75.085,85.141,70.164,86.376L70.164,86.376z"/>
						<path fill="#FFFFFF" d="M40.654,36.536c-0.536,0.835-0.862,1.635-0.983,2.399c2.357-0.631,4.655-1.066,6.735-0.8
							c3.545-3.178,8.642-5.743,12.626-6.041c1.086-2.209,2.185-4.14,4.034-5.196c-0.372-0.419-0.917-0.593-1.632-0.529
							C53.15,27.496,46.383,31.151,40.654,36.536L40.654,36.536z"/>
						
							<linearGradient id="SVGID_6_" gradientUnits="userSpaceOnUse" x1="508.2734" y1="709.7568" x2="529.582" y2="709.7568" gradientTransform="matrix(0.1488 0.9889 0.9889 -0.1488 -747.0529 -345.5372)">
							<stop  offset="0" style="stop-color:#FFFFFF"/>
							<stop  offset="0.2199" style="stop-color:#FBFBFB"/>
							<stop  offset="0.4618" style="stop-color:#EDEEEF"/>
							<stop  offset="0.7142" style="stop-color:#D7D9DC"/>
							<stop  offset="0.9724" style="stop-color:#B9BCC0"/>
							<stop  offset="1" style="stop-color:#B5B8BD"/>
						</linearGradient>
						<path fill="url(#SVGID_6_)" d="M31.819,51.277c-2.088,7.311-1.346,14.403,1.573,21.313c-1.209-3.933-1.719-7.321-0.987-9.734
							C31.049,60.744,31.111,56.647,31.819,51.277L31.819,51.277z"/>
						
							<linearGradient id="SVGID_7_" gradientUnits="userSpaceOnUse" x1="534.8408" y1="716.6172" x2="548.6934" y2="716.6172" gradientTransform="matrix(0.1488 0.9889 0.9889 -0.1488 -747.0529 -345.5372)">
							<stop  offset="0" style="stop-color:#FFFFFF"/>
							<stop  offset="0.2199" style="stop-color:#FBFBFB"/>
							<stop  offset="0.4618" style="stop-color:#EDEEEF"/>
							<stop  offset="0.7142" style="stop-color:#D7D9DC"/>
							<stop  offset="0.9724" style="stop-color:#B9BCC0"/>
							<stop  offset="1" style="stop-color:#B5B8BD"/>
						</linearGradient>
						<path fill="url(#SVGID_7_)" d="M42.988,83.742c-2.444-0.952-4.799-3.322-7.18-6.197c3.75,5.663,8.158,9.964,12.833,12.078
							C46.847,88.205,44.988,86.4,42.988,83.742L42.988,83.742z"/>
						
							<linearGradient id="SVGID_8_" gradientUnits="userSpaceOnUse" x1="553.3389" y1="736.7949" x2="555.373" y2="736.7949" gradientTransform="matrix(0.1488 0.9889 0.9889 -0.1488 -747.0529 -345.5372)">
							<stop  offset="0" style="stop-color:#FFFFFF"/>
							<stop  offset="0.2199" style="stop-color:#FBFBFB"/>
							<stop  offset="0.4618" style="stop-color:#EDEEEF"/>
							<stop  offset="0.7142" style="stop-color:#D7D9DC"/>
							<stop  offset="0.9724" style="stop-color:#B9BCC0"/>
							<stop  offset="1" style="stop-color:#B5B8BD"/>
						</linearGradient>
						<path fill="url(#SVGID_8_)" d="M57.881,92.93c2.892,0.823,6.166,1.282,12.337,0.182c-1.982,0.272-3.227,0.098-4.432-0.576
							C62.766,93.315,60.259,93.191,57.881,92.93L57.881,92.93z"/>
						
							<linearGradient id="SVGID_9_" gradientUnits="userSpaceOnUse" x1="495.0967" y1="718.0156" x2="502.1465" y2="718.0156" gradientTransform="matrix(0.1488 0.9889 0.9889 -0.1488 -747.0529 -345.5372)">
							<stop  offset="0" style="stop-color:#FFFFFF"/>
							<stop  offset="0.2199" style="stop-color:#FBFBFB"/>
							<stop  offset="0.4618" style="stop-color:#EDEEEF"/>
							<stop  offset="0.7142" style="stop-color:#D7D9DC"/>
							<stop  offset="0.9724" style="stop-color:#B9BCC0"/>
							<stop  offset="1" style="stop-color:#B5B8BD"/>
						</linearGradient>
						<path fill="url(#SVGID_9_)" d="M39.857,36.742c-2.634,3.183-4.316,5.766-5.341,7.933c1.301-2.295,2.744-4.515,4.863-6.384
							L39.857,36.742L39.857,36.742z"/>
					</g>
				</g>
				
					<radialGradient id="SVGID_10_" cx="903.4395" cy="215.2666" r="37.2929" gradientTransform="matrix(0.9093 0.4464 0.4469 -0.9104 -835.9719 -154.7095)" gradientUnits="userSpaceOnUse">
					<stop  offset="0.2439" style="stop-color:#FFFFFF"/>
					<stop  offset="0.2439" style="stop-color:#FFFFFF"/>
					<stop  offset="0.2488" style="stop-color:#FFFFFF"/>
					<stop  offset="0.4211" style="stop-color:#E3E3E4"/>
					<stop  offset="0.6927" style="stop-color:#AFB1B3"/>
					<stop  offset="0.7196" style="stop-color:#A7A9AA"/>
					<stop  offset="0.9088" style="stop-color:#717172"/>
					<stop  offset="1" style="stop-color:#5C5C5C"/>
				</radialGradient>
				<path opacity="0.5" fill="url(#SVGID_10_)" enable-background="new    " d="M95.887,75.174
					c4.468-9.105,4.338-18.681,0.895-27.422c-3.047-7.74-8.339-14.668-16.388-18.621c-9.22-4.525-20.871-4.271-28.453-1.281
					C44.35,30.843,38,37.041,34.096,44.971c-7.973,16.188-0.907,37.137,16.239,45.552C67.479,98.941,87.46,92.336,95.887,75.174z"/>
			</g>
		</g>
	</g>
	
		<linearGradient id="SVGID_11_" gradientUnits="userSpaceOnUse" x1="330.3828" y1="-286.626" x2="343.6816" y2="-286.626" gradientTransform="matrix(1 0 0 -1 -235 -233.5)">
		<stop  offset="0" style="stop-color:#4A4A4A"/>
		<stop  offset="1" style="stop-color:#D1D1D1"/>
	</linearGradient>
	<path fill="url(#SVGID_11_)" d="M98.935,60.319l9.747-8.576l-13.299-5.81c0,0,0.288,0.697,0.965,2.442
		C98.044,53.353,98.935,60.319,98.935,60.319z"/>
	
		<linearGradient id="SVGID_12_" gradientUnits="userSpaceOnUse" x1="-11978.1074" y1="-312.7075" x2="-11967.5957" y2="-312.7075" gradientTransform="matrix(-1 0 0 -1 -11949.6387 -233.5)">
		<stop  offset="0" style="stop-color:#D1D1D1"/>
		<stop  offset="1" style="stop-color:#4A4A4A"/>
	</linearGradient>
	<polygon fill="url(#SVGID_12_)" points="28.469,85.141 17.957,78.259 28.469,73.274 	"/>
</g>
<path fill="#002878" d="M86.517,36.02l-0.613,0.8c-0.875,1.931-1.885,3.419-3.001,4.645c2.995,3.515,5.266,7.766,6.667,12.915
	c2.21,0.126,4.446,0.408,6.738,1.02C98.235,48.624,93.218,39.125,86.517,36.02L86.517,36.02z"/>
<path fill="#002878" d="M47.59,50.933c5.297-0.186,9.014,1.022,13.522,0.998l0.821-1.199l0.98-1.524
	c0.651-2.544,4.317-6.85,5.574-9.126c-2.184-3.274-5.447-5.313-8.472-7.667c-4.953,1.111-8.745,3.034-13.027,6.297
	C46.217,43.23,46.121,46.816,47.59,50.933L47.59,50.933z"/>
<polygon fill="#FED100" points="17.901,78.21 17.901,57.648 108.682,51.74 108.682,72.307 "/>
<g>
	<path fill="#002878" d="M24.98,73.125l-2.299,0.148l0.991-8.942l-1.659,0.105c-0.141,0.009-0.3,0.034-0.478,0.11l0.246-2.217
		l6.573-0.422l-0.245,2.215c-0.166-0.053-0.321-0.059-0.46-0.05l-1.673,0.107L24.98,73.125z"/>
	<path fill="#002878" d="M31.875,61.683l-1.228,11.08l-2.316,0.149l1.229-11.081L31.875,61.683z"/>
	<path fill="#002878" d="M41.522,72.062l-2.158,0.14l0.924-8.339l-1.855,6.089l-2.396,0.155l-0.521-5.939l-0.926,8.341l-2.19,0.14
		l1.229-11.079l3.506-0.225l0.45,6.163l1.834-6.312l3.334-0.213L41.522,72.062z"/>
	<path fill="#002878" d="M49.725,71.535l-2.318,0.149l1.228-11.079l4.993-0.32c1.47-0.095,1.893,0.726,1.756,1.962l-0.321,2.897
		c-0.136,1.232-0.7,2.118-2.157,2.212l-2.738,0.175L49.725,71.535z M50.405,65.394l2.018-0.128c0.219-0.014,0.356-0.135,0.391-0.435
		l0.219-1.978c0.031-0.287-0.082-0.404-0.3-0.391l-2.019,0.129L50.405,65.394z"/>
	<path fill="#002878" d="M57.792,68.975l-0.62,2.083L54.67,71.22l3.872-11.249l2.85-0.183l1.386,10.91l-2.613,0.168l-0.179-2.032
		L57.792,68.975z M59.933,67.204l-0.382-4.423l-1.356,4.534L59.933,67.204z"/>
	<path fill="#002878" d="M66.052,68.491l3.287-0.21c0.142-0.01,0.299-0.036,0.461-0.11l-0.23,2.091l-6.058,0.389l1.229-11.08
		l2.315-0.147L66.052,68.491z"/>
	<path fill="#002878" d="M72.791,70.054l-2.315,0.149l1.227-11.08l4.995-0.32c1.469-0.098,1.892,0.728,1.757,1.961l-0.323,2.898
		c-0.137,1.233-0.7,2.117-2.155,2.213l-2.739,0.175L72.791,70.054z M73.474,63.913l2.017-0.131c0.22-0.015,0.357-0.132,0.393-0.433
		l0.22-1.98c0.029-0.283-0.08-0.402-0.3-0.388l-2.019,0.13L73.474,63.913z"/>
	<path fill="#002878" d="M82.3,58.444l-1.228,11.078l-2.316,0.147l1.228-11.078L82.3,58.444z"/>
	<path fill="#002878" d="M86.722,69.158l-2.301,0.148l0.99-8.943l-1.66,0.107c-0.14,0.009-0.299,0.033-0.476,0.107l0.245-2.214
		l6.573-0.423l-0.245,2.217c-0.165-0.052-0.319-0.059-0.461-0.051l-1.676,0.108L86.722,69.158z"/>
	<path fill="#002878" d="M93.391,59.727l-0.254,2.295l2.35-0.149c0.14-0.012,0.298-0.036,0.458-0.078l-0.227,2.043
		c-0.153-0.023-0.31-0.027-0.448-0.02l-2.348,0.151l-0.312,2.816l3.474-0.225c0.142-0.01,0.3-0.033,0.463-0.107l-0.231,2.09
		l-6.243,0.401l1.229-11.079l6.039-0.388l-0.229,2.089c-0.168-0.054-0.322-0.059-0.462-0.05L93.391,59.727z"/>
	<path fill="#002878" d="M98.983,62.684c-0.853-0.716-0.979-1.257-0.868-2.27l0.104-0.917c0.138-1.237,0.765-2.125,2.222-2.218
		l4.117-0.266l-0.259,2.313c-0.174-0.115-0.48-0.144-0.748-0.126l-2.724,0.175c-0.188,0.014-0.311,0.146-0.342,0.432l-0.056,0.49
		c-0.019,0.175,0.014,0.316,0.124,0.417l2.452,2.026c0.866,0.716,0.977,1.272,0.862,2.286l-0.105,0.967
		c-0.138,1.232-0.748,2.121-2.221,2.215l-4.317,0.28l0.256-2.312c0.173,0.111,0.479,0.142,0.763,0.124l2.863-0.185
		c0.237-0.015,0.357-0.148,0.391-0.435l0.062-0.555c0.02-0.174-0.013-0.313-0.126-0.417L98.983,62.684z"/>
</g>
</svg>
