<?xml version="1.0" encoding="utf-8"?>
<!-- Generator: Adobe Illustrator 16.0.0, SVG Export Plug-In . SVG Version: 6.00 Build 0)  -->
<!DOCTYPE svg PUBLIC "-//W3C//DTD SVG 1.1//EN" "http://www.w3.org/Graphics/SVG/1.1/DTD/svg11.dtd">
<svg version="1.1" id="Layer_1" xmlns="http://www.w3.org/2000/svg" xmlns:xlink="http://www.w3.org/1999/xlink" x="0px" y="0px"
	 width="125px" height="125px" viewBox="0 0 125 125" enable-background="new 0 0 125 125" xml:space="preserve">
<g>
	<g>
		<path fill="#00BDDC" d="M106.494,15.673c-36.15,0-42.266-13.723-42.322-13.851c-0.264-0.671-0.918-1.12-1.66-1.136
			c0,0-0.016,0-0.031,0c-0.719,0-1.381,0.449-1.67,1.104c-0.043,0.146-6.291,13.883-42.307,13.883c-1.006,0-1.801,0.814-1.801,1.799
			V78.96c0,25.171,43.234,44.401,45.064,45.21c0.242,0.104,0.473,0.145,0.732,0.145c0.238,0,0.496-0.041,0.726-0.145
			c1.85-0.809,45.071-20.039,45.071-45.21V17.472C108.289,16.487,107.49,15.673,106.494,15.673z"/>
	</g>
</g>
<g>
	<g>
		<g>
			<g>
				<g>
					<g>
						<g>
							<defs>
								<rect id="SVGID_1_" x="28.169" y="27.994" width="69.528" height="44.166"/>
							</defs>
							<clipPath id="SVGID_2_">
								<use xlink:href="#SVGID_1_"  overflow="visible"/>
							</clipPath>
							<g clip-path="url(#SVGID_2_)">
								<g>
									<circle fill="#95979D" cx="63.549" cy="61.339" r="30.278"/>
									<g>
										
											<linearGradient id="SVGID_3_" gradientUnits="userSpaceOnUse" x1="-132.1167" y1="-1169.9487" x2="-119.5229" y2="-1169.9487" gradientTransform="matrix(0.1488 0.9889 -0.9889 0.1488 -1057.4756 336.4288)">
											<stop  offset="0" style="stop-color:#FFFFFF"/>
											<stop  offset="0.2199" style="stop-color:#FBFBFB"/>
											<stop  offset="0.4618" style="stop-color:#EDEEEF"/>
											<stop  offset="0.7142" style="stop-color:#D7D9DC"/>
											<stop  offset="0.9724" style="stop-color:#B9BCC0"/>
											<stop  offset="1" style="stop-color:#B5B8BD"/>
										</linearGradient>
										<path fill="url(#SVGID_3_)" d="M73.712,32.61c3.265,2.048,6.433,3.002,9.847,6.754c1.631,0.896,2.801,2.404,4.26,3.859
											C83.893,38.071,78.984,34.048,73.712,32.61L73.712,32.61z"/>
										
											<linearGradient id="SVGID_4_" gradientUnits="userSpaceOnUse" x1="-109.0386" y1="-1178.6689" x2="-93.1235" y2="-1178.6689" gradientTransform="matrix(0.1488 0.9889 -0.9889 0.1488 -1057.4756 336.4288)">
											<stop  offset="0" style="stop-color:#FFFFFF"/>
											<stop  offset="0.2199" style="stop-color:#FBFBFB"/>
											<stop  offset="0.4618" style="stop-color:#EDEEEF"/>
											<stop  offset="0.7142" style="stop-color:#D7D9DC"/>
											<stop  offset="0.9724" style="stop-color:#B9BCC0"/>
											<stop  offset="1" style="stop-color:#B5B8BD"/>
										</linearGradient>
										<path fill="url(#SVGID_4_)" d="M93.366,68.99c1.014-3.868,1.581-8.011-0.679-15.896c0.143,1.771,0.41,3.439,0.133,4.783
											c1.35,2.958,1.053,6.943,0.23,11.257L93.366,68.99L93.366,68.99z"/>
										
											<linearGradient id="SVGID_5_" gradientUnits="userSpaceOnUse" x1="-93.1938" y1="-1173.0742" x2="-80.9478" y2="-1173.0742" gradientTransform="matrix(0.1488 0.9889 -0.9889 0.1488 -1057.4756 336.4288)">
											<stop  offset="0" style="stop-color:#FFFFFF"/>
											<stop  offset="0.2199" style="stop-color:#FBFBFB"/>
											<stop  offset="0.4618" style="stop-color:#EDEEEF"/>
											<stop  offset="0.7142" style="stop-color:#D7D9DC"/>
											<stop  offset="0.9724" style="stop-color:#B9BCC0"/>
											<stop  offset="1" style="stop-color:#B5B8BD"/>
										</linearGradient>
										<path fill="url(#SVGID_5_)" d="M87.061,79.452l-1.104,3.062c3.915-4.656,6.186-9.135,7.33-13.486l-0.438,0.082
											C91.294,72.13,89.418,77.449,87.061,79.452L87.061,79.452z"/>
										<path fill="#FFFFFF" d="M48.176,53.632c-1.862,1.764-3.556,4.31-5.045,7.111l-1.62,3.975l0.333,1.313
											c0.682,2.035,1.524,3.764,2.44,5.341c0.673,1.599,1.515,3.096,2.628,4.433l0.531,0.916l0.797-0.085l4.944,0.773
											l3.739,0.321l2.002-0.057l1.127-0.234l4.095-6.869l2.277-3.922l-5.46-10.958l-0.538-0.951
											c-2.745-0.543-5.702-0.793-8.753-0.908L48.176,53.632L48.176,53.632z"/>
										<path fill="#FFFFFF" d="M67.684,44.154L64.24,49.26l-1.316,2.276l-1.599,3.465l1.969,3.844
											c0.776,1.861,1.659,3.579,2.567,5.257l1.383,2.49l12.14,0.996c2.804-3.373,4.86-6.963,6.331-10.598
											c-1.091-4.149-2.973-7.906-5.381-11.254l-3.176-1.285C73.629,44.087,70.298,43.864,67.684,44.154L67.684,44.154z"/>
										<path fill="#002878" d="M67.318,66.8c-1.926,3.593-4.462,7.14-7.083,10.681c2.479,3.246,5.299,5.58,8.25,7.55
											c4.964-1.296,8.859-3.356,11.685-6.181c0.481-3.781,0.052-7.414-0.799-10.975C75.283,67.615,71.404,67.062,67.318,66.8
											L67.318,66.8z"/>
										<path fill="#FFFFFF" d="M48.06,77.3l-0.554,0.335l-2.894,5.316c1.23,1.672,2.712,3.611,4.598,5.335l3.875,1.678
											l3.59,1.106l8.077-0.428c1.631-1.899,2.527-3.58,2.923-5.11c-2.796-2.244-5.512-4.562-7.889-7.202
											C56.016,78.824,52.091,78.382,48.06,77.3L48.06,77.3z"/>
										<path fill="#002878" d="M47.056,76.625c-2.337-3.206-4.191-6.648-5.562-10.331l-0.902-1.181
											c-1.763,0.007-3.563-0.219-5.378-0.52c-0.649,3.791-0.037,7.303,1.613,10.397c1.391,3.183,4.061,5.717,7.488,7.305
											L47.056,76.625L47.056,76.625z"/>
										<path fill="#FFFFFF" d="M35.305,63.992c2.045,0.252,3.857,0.361,5.848,0.285c1.363-3.815,3.395-7.492,6.485-11.037
											c-0.979-3.056-1.084-5.873-0.527-10.337c-1.459-0.604-3.789-0.455-6.178,0.106c-2.855,2.324-5.024,5.876-6.498,9.762
											C33.282,57.839,33.547,61.648,35.305,63.992L35.305,63.992z"/>
										<path fill="#FFFFFF" d="M59.255,36.311c3.445,2.136,6.354,4.454,8.396,7.071c3.759-0.498,7.668-0.077,11.705,1.107
											l1.605-1.301c0.537-1.216,1.153-2.27,1.827-3.178l-0.136-1.577c-2.072-2.442-5.295-4.213-8.829-5.794
											c-4.302-1.244-8.021-1.136-11.518-0.538C60.749,33.593,59.824,34.982,59.255,36.311L59.255,36.311z"/>
										<path fill="#FFFFFF" d="M86.188,57.684c-1.707,4.206-3.832,7.396-6.193,10.018c0.906,3.69,1.341,7.462,0.727,11.403
											c2.287,0.457,4.44,0.57,6.286-0.067c2.608-1.745,4.418-5.058,5.863-9.082c1.2-4.19,0.957-8.067-0.479-11.69
											C89.957,57.705,87.84,57.462,86.188,57.684L86.188,57.684z"/>
										<path fill="#FFFFFF" d="M68.538,85.398c-0.674,1.897-1.72,3.651-3.138,5.261c0.722,0.661,1.922,0.896,3.605,0.702
											c5.869-1.135,11.53-3.532,16.729-8.719l0.687-1.209l-0.104-0.469L86.79,79.6c-2.185,0.385-4.677,0.308-6.526-0.109
											C76.98,82.492,72.964,84.286,68.538,85.398L68.538,85.398z"/>
										<path fill="#FFFFFF" d="M41.994,40.566c-0.482,0.75-0.777,1.47-0.885,2.157c2.12-0.567,4.188-0.959,6.059-0.719
											c3.188-2.858,7.772-5.166,11.356-5.434c0.978-1.987,1.966-3.724,3.629-4.674c-0.335-0.377-0.823-0.534-1.467-0.475
											C53.234,32.433,47.147,35.722,41.994,40.566L41.994,40.566z"/>
										
											<linearGradient id="SVGID_6_" gradientUnits="userSpaceOnUse" x1="-117.0405" y1="-1120.1436" x2="-97.8735" y2="-1120.1436" gradientTransform="matrix(0.1488 0.9889 -0.9889 0.1488 -1057.4756 336.4288)">
											<stop  offset="0" style="stop-color:#FFFFFF"/>
											<stop  offset="0.2199" style="stop-color:#FBFBFB"/>
											<stop  offset="0.4618" style="stop-color:#EDEEEF"/>
											<stop  offset="0.7142" style="stop-color:#D7D9DC"/>
											<stop  offset="0.9724" style="stop-color:#B9BCC0"/>
											<stop  offset="1" style="stop-color:#B5B8BD"/>
										</linearGradient>
										<path fill="url(#SVGID_6_)" d="M34.046,53.825c-1.879,6.576-1.211,12.957,1.416,19.17
											c-1.089-3.537-1.547-6.584-0.888-8.755C33.354,62.34,33.41,58.656,34.046,53.825L34.046,53.825z"/>
										
											<linearGradient id="SVGID_7_" gradientUnits="userSpaceOnUse" x1="-93.1411" y1="-1126.3149" x2="-80.6831" y2="-1126.3149" gradientTransform="matrix(0.1488 0.9889 -0.9889 0.1488 -1057.4756 336.4288)">
											<stop  offset="0" style="stop-color:#FFFFFF"/>
											<stop  offset="0.2199" style="stop-color:#FBFBFB"/>
											<stop  offset="0.4618" style="stop-color:#EDEEEF"/>
											<stop  offset="0.7142" style="stop-color:#D7D9DC"/>
											<stop  offset="0.9724" style="stop-color:#B9BCC0"/>
											<stop  offset="1" style="stop-color:#B5B8BD"/>
										</linearGradient>
										<path fill="url(#SVGID_7_)" d="M44.093,83.027c-2.199-0.856-4.317-2.989-6.459-5.573
											c3.375,5.092,7.34,8.963,11.543,10.862C47.564,87.041,45.892,85.419,44.093,83.027L44.093,83.027z"/>
										
											<linearGradient id="SVGID_8_" gradientUnits="userSpaceOnUse" x1="-76.5034" y1="-1144.4648" x2="-74.6738" y2="-1144.4648" gradientTransform="matrix(0.1488 0.9889 -0.9889 0.1488 -1057.4756 336.4288)">
											<stop  offset="0" style="stop-color:#FFFFFF"/>
											<stop  offset="0.2199" style="stop-color:#FBFBFB"/>
											<stop  offset="0.4618" style="stop-color:#EDEEEF"/>
											<stop  offset="0.7142" style="stop-color:#D7D9DC"/>
											<stop  offset="0.9724" style="stop-color:#B9BCC0"/>
											<stop  offset="1" style="stop-color:#B5B8BD"/>
										</linearGradient>
										<path fill="url(#SVGID_8_)" d="M57.489,91.292c2.602,0.74,5.545,1.153,11.097,0.163c-1.784,0.244-2.9,0.089-3.988-0.518
											C61.883,91.639,59.628,91.525,57.489,91.292L57.489,91.292z"/>
										
											<linearGradient id="SVGID_9_" gradientUnits="userSpaceOnUse" x1="-128.8921" y1="-1127.5742" x2="-122.5522" y2="-1127.5742" gradientTransform="matrix(0.1488 0.9889 -0.9889 0.1488 -1057.4756 336.4288)">
											<stop  offset="0" style="stop-color:#FFFFFF"/>
											<stop  offset="0.2199" style="stop-color:#FBFBFB"/>
											<stop  offset="0.4618" style="stop-color:#EDEEEF"/>
											<stop  offset="0.7142" style="stop-color:#D7D9DC"/>
											<stop  offset="0.9724" style="stop-color:#B9BCC0"/>
											<stop  offset="1" style="stop-color:#B5B8BD"/>
										</linearGradient>
										<path fill="url(#SVGID_9_)" d="M41.278,40.751c-2.37,2.862-3.882,5.186-4.805,7.135c1.17-2.062,2.467-4.062,4.375-5.743
											L41.278,40.751L41.278,40.751z"/>
									</g>
								</g>
								
									<radialGradient id="SVGID_10_" cx="200.0127" cy="575.915" r="33.5468" gradientTransform="matrix(0.9093 0.4464 -0.4469 0.9104 154.4456 -558.5767)" gradientUnits="userSpaceOnUse">
									<stop  offset="0.2439" style="stop-color:#FFFFFF"/>
									<stop  offset="0.2439" style="stop-color:#FFFFFF"/>
									<stop  offset="0.2488" style="stop-color:#FFFFFF"/>
									<stop  offset="0.4211" style="stop-color:#E3E3E4"/>
									<stop  offset="0.6927" style="stop-color:#AFB1B3"/>
									<stop  offset="0.7196" style="stop-color:#A7A9AA"/>
									<stop  offset="0.9088" style="stop-color:#717172"/>
									<stop  offset="1" style="stop-color:#5C5C5C"/>
								</radialGradient>
								<path opacity="0.5" fill="url(#SVGID_10_)" enable-background="new    " d="M91.676,75.322
									c4.02-8.192,3.902-16.805,0.803-24.669c-2.736-6.961-7.5-13.193-14.738-16.749c-8.292-4.07-18.773-3.842-25.595-1.151
									c-6.825,2.691-12.539,8.268-16.05,15.399C28.921,62.715,35.279,81.559,50.7,89.127
									C66.122,96.699,84.098,90.759,91.676,75.322z"/>
							</g>
						</g>
					</g>
				</g>
			</g>
		</g>
		
			<linearGradient id="SVGID_11_" gradientUnits="userSpaceOnUse" x1="-766.7754" y1="1512.4883" x2="-754.8145" y2="1512.4883" gradientTransform="matrix(1 0 0 1 858 -1457)">
			<stop  offset="0" style="stop-color:#4A4A4A"/>
			<stop  offset="1" style="stop-color:#D1D1D1"/>
		</linearGradient>
		<path fill="url(#SVGID_11_)" d="M94.418,61.958l8.768-7.713l-11.961-5.227c0,0,0.258,0.626,0.866,2.197
			C93.615,55.693,94.418,61.958,94.418,61.958z"/>
		
			<linearGradient id="SVGID_12_" gradientUnits="userSpaceOnUse" x1="-14504.6719" y1="1535.9492" x2="-14495.2168" y2="1535.9492" gradientTransform="matrix(-1 0 0 1 -14473.6387 -1457)">
			<stop  offset="0" style="stop-color:#D1D1D1"/>
			<stop  offset="1" style="stop-color:#4A4A4A"/>
		</linearGradient>
		<polygon fill="url(#SVGID_12_)" points="31.033,84.286 21.578,78.094 31.033,73.611 		"/>
	</g>
	<path fill="#002878" d="M83.246,40.102l-0.551,0.72C81.908,42.558,81,43.897,79.996,45c2.693,3.162,4.736,6.985,5.997,11.617
		c1.987,0.113,4,0.366,6.062,0.917C93.789,51.438,89.273,42.895,83.246,40.102L83.246,40.102z"/>
	<path fill="#002878" d="M48.233,53.515c4.764-0.167,8.107,0.92,12.163,0.897l0.739-1.079l0.881-1.37
		c0.586-2.29,3.884-6.162,5.013-8.209c-1.963-2.946-4.898-4.78-7.619-6.897c-4.456,1-7.866,2.728-11.718,5.665
		C46.997,46.587,46.911,49.812,48.233,53.515L48.233,53.515z"/>
	<polygon fill="#FED100" points="21.527,78.051 21.527,59.557 103.186,54.242 103.186,72.741 	"/>
	
		<text transform="matrix(0.9828 -0.0631 -0.1102 0.9939 22.8237 72.749)" fill="#002878" font-family="'TeutonNormal-Bold'" font-size="13.6318">Gurú del Fútbol</text>
</g>
</svg>
