<?xml version="1.0" encoding="utf-8"?>
<!-- Generator: Adobe Illustrator 16.0.0, SVG Export Plug-In . SVG Version: 6.00 Build 0)  -->
<!DOCTYPE svg PUBLIC "-//W3C//DTD SVG 1.1//EN" "http://www.w3.org/Graphics/SVG/1.1/DTD/svg11.dtd">
<svg version="1.1" id="Layer_1" xmlns="http://www.w3.org/2000/svg" xmlns:xlink="http://www.w3.org/1999/xlink" x="0px" y="0px"
	 width="125px" height="125px" viewBox="0 0 125 125" enable-background="new 0 0 125 125" xml:space="preserve">
<g>
	<g>
		<path d="M113.939,19.569c-21.312,0-37.638-6.088-51.441-19.514C48.694,13.481,32.369,19.569,11.061,19.569
			c0,34.958-7.232,85.037,51.438,105.375C121.172,104.607,113.939,54.528,113.939,19.569z"/>
	</g>
</g>
<g>
	<g>
		<g>
			<g>
				<defs>
					<rect id="SVGID_1_" x="25.285" y="22.56" width="77.297" height="49.101"/>
				</defs>
				<clipPath id="SVGID_2_">
					<use xlink:href="#SVGID_1_"  overflow="visible"/>
				</clipPath>
				<g clip-path="url(#SVGID_2_)">
					<g opacity="0.7">
						<g opacity="0.6">
						</g>
					</g>
					<g>
						<circle fill="#95979D" cx="64.617" cy="59.63" r="33.662"/>
						<g>
							
								<linearGradient id="SVGID_3_" gradientUnits="userSpaceOnUse" x1="431.4062" y1="-368.7383" x2="445.4062" y2="-368.7383" gradientTransform="matrix(0.1488 0.9889 -0.9889 0.1488 -346.124 -345.081)">
								<stop  offset="0" style="stop-color:#FFFFFF"/>
								<stop  offset="0.2199" style="stop-color:#FBFBFB"/>
								<stop  offset="0.4618" style="stop-color:#EDEEEF"/>
								<stop  offset="0.7142" style="stop-color:#D7D9DC"/>
								<stop  offset="0.9724" style="stop-color:#B9BCC0"/>
								<stop  offset="1" style="stop-color:#B5B8BD"/>
							</linearGradient>
							<path fill="url(#SVGID_3_)" d="M75.916,27.691c3.629,2.277,7.15,3.338,10.945,7.508c1.813,0.998,3.113,2.673,4.736,4.29
								C87.232,33.762,81.777,29.291,75.916,27.691L75.916,27.691z"/>
							
								<linearGradient id="SVGID_4_" gradientUnits="userSpaceOnUse" x1="457.0654" y1="-378.4336" x2="474.7568" y2="-378.4336" gradientTransform="matrix(0.1488 0.9889 -0.9889 0.1488 -346.124 -345.081)">
								<stop  offset="0" style="stop-color:#FFFFFF"/>
								<stop  offset="0.2199" style="stop-color:#FBFBFB"/>
								<stop  offset="0.4618" style="stop-color:#EDEEEF"/>
								<stop  offset="0.7142" style="stop-color:#D7D9DC"/>
								<stop  offset="0.9724" style="stop-color:#B9BCC0"/>
								<stop  offset="1" style="stop-color:#B5B8BD"/>
							</linearGradient>
							<path fill="url(#SVGID_4_)" d="M97.768,68.135c1.125-4.301,1.756-8.902-0.757-17.669c0.16,1.968,0.457,3.821,0.15,5.316
								c1.498,3.288,1.167,7.72,0.256,12.514L97.768,68.135L97.768,68.135z"/>
							
								<linearGradient id="SVGID_5_" gradientUnits="userSpaceOnUse" x1="474.6777" y1="-372.2119" x2="488.292" y2="-372.2119" gradientTransform="matrix(0.1488 0.9889 -0.9889 0.1488 -346.124 -345.081)">
								<stop  offset="0" style="stop-color:#FFFFFF"/>
								<stop  offset="0.2199" style="stop-color:#FBFBFB"/>
								<stop  offset="0.4618" style="stop-color:#EDEEEF"/>
								<stop  offset="0.7142" style="stop-color:#D7D9DC"/>
								<stop  offset="0.9724" style="stop-color:#B9BCC0"/>
								<stop  offset="1" style="stop-color:#B5B8BD"/>
							</linearGradient>
							<path fill="url(#SVGID_5_)" d="M90.755,79.768l-1.226,3.403c4.351-5.177,6.873-10.153,8.146-14.994l-0.487,0.093
								C95.462,71.627,93.376,77.54,90.755,79.768L90.755,79.768z"/>
							<path fill="#FFFFFF" d="M47.528,51.062c-2.071,1.959-3.954,4.792-5.61,7.905l-1.801,4.419l0.37,1.46
								c0.758,2.264,1.695,4.186,2.713,5.938c0.749,1.778,1.685,3.44,2.922,4.928l0.59,1.021l0.885-0.094l5.498,0.857l4.157,0.357
								l2.226-0.061l1.252-0.262l4.553-7.637l2.531-4.361l-6.07-12.18l-0.598-1.059c-3.052-0.604-6.339-0.882-9.732-1.008
								L47.528,51.062L47.528,51.062z"/>
							<path fill="#FFFFFF" d="M69.214,40.526l-3.827,5.675l-1.463,2.531l-1.779,3.854l2.19,4.272
								c0.864,2.069,1.847,3.979,2.854,5.843l1.535,2.769l13.496,1.108c3.116-3.75,5.405-7.741,7.038-11.782
								c-1.211-4.614-3.303-8.791-5.979-12.512l-3.528-1.428C75.823,40.451,72.119,40.204,69.214,40.526L69.214,40.526z"/>
							<path fill="#002878" d="M68.809,65.703c-2.142,3.992-4.959,7.936-7.874,11.87c2.756,3.608,5.892,6.202,9.172,8.392
								c5.518-1.438,9.851-3.73,12.988-6.867c0.538-4.205,0.057-8.242-0.888-12.199C77.664,66.607,73.352,65.992,68.809,65.703
								L68.809,65.703z"/>
							<path fill="#FFFFFF" d="M47.399,77.374l-0.618,0.374l-3.217,5.908c1.368,1.859,3.015,4.017,5.112,5.932l4.308,1.867
								l3.992,1.229l8.979-0.479c1.812-2.111,2.812-3.979,3.248-5.68c-3.105-2.496-6.127-5.072-8.771-8.008
								C56.242,79.068,51.879,78.579,47.399,77.374L47.399,77.374z"/>
							<path fill="#002878" d="M46.281,76.624c-2.598-3.563-4.658-7.392-6.183-11.485l-1.004-1.312
								c-1.96,0.006-3.961-0.24-5.979-0.575c-0.722,4.215-0.042,8.118,1.793,11.561c1.546,3.535,4.514,6.355,8.323,8.121
								L46.281,76.624L46.281,76.624z"/>
							<path fill="#FFFFFF" d="M33.218,62.581c2.273,0.28,4.289,0.401,6.501,0.318c1.516-4.243,3.773-8.33,7.209-12.271
								c-1.088-3.397-1.205-6.529-0.585-11.492c-1.623-0.671-4.212-0.506-6.869,0.117c-3.173,2.583-5.584,6.533-7.224,10.854
								C30.969,55.74,31.264,59.975,33.218,62.581L33.218,62.581z"/>
							<path fill="#FFFFFF" d="M59.845,31.804c3.828,2.376,7.063,4.953,9.333,7.863c4.176-0.554,8.524-0.086,13.012,1.23
								l1.787-1.446c0.597-1.352,1.281-2.523,2.029-3.534l-0.15-1.752c-2.306-2.715-5.885-4.684-9.816-6.442
								c-4.783-1.383-8.913-1.263-12.803-0.596C61.504,28.785,60.477,30.329,59.845,31.804L59.845,31.804z"/>
							<path fill="#FFFFFF" d="M89.786,55.567c-1.899,4.675-4.263,8.222-6.89,11.136c1.011,4.104,1.49,8.294,0.807,12.677
								c2.545,0.509,4.939,0.638,6.99-0.075c2.9-1.94,4.91-5.621,6.521-10.096c1.336-4.659,1.063-8.97-0.534-12.997
								C93.977,55.59,91.621,55.322,89.786,55.567L89.786,55.567z"/>
							<path fill="#FFFFFF" d="M70.164,86.376c-0.749,2.112-1.912,4.063-3.487,5.853c0.802,0.733,2.138,0.994,4.011,0.777
								c6.523-1.261,12.817-3.927,18.597-9.691l0.762-1.345l-0.116-0.517l0.525-1.521c-2.43,0.428-5.198,0.34-7.255-0.123
								C79.551,83.146,75.085,85.141,70.164,86.376L70.164,86.376z"/>
							<path fill="#FFFFFF" d="M40.654,36.536c-0.536,0.835-0.862,1.635-0.983,2.399c2.357-0.631,4.655-1.066,6.735-0.8
								c3.545-3.178,8.642-5.743,12.626-6.041c1.086-2.209,2.185-4.14,4.034-5.196c-0.373-0.419-0.917-0.593-1.632-0.529
								C53.15,27.496,46.383,31.151,40.654,36.536L40.654,36.536z"/>
							
								<linearGradient id="SVGID_6_" gradientUnits="userSpaceOnUse" x1="448.168" y1="-313.3701" x2="469.4766" y2="-313.3701" gradientTransform="matrix(0.1488 0.9889 -0.9889 0.1488 -346.124 -345.081)">
								<stop  offset="0" style="stop-color:#FFFFFF"/>
								<stop  offset="0.2199" style="stop-color:#FBFBFB"/>
								<stop  offset="0.4618" style="stop-color:#EDEEEF"/>
								<stop  offset="0.7142" style="stop-color:#D7D9DC"/>
								<stop  offset="0.9724" style="stop-color:#B9BCC0"/>
								<stop  offset="1" style="stop-color:#B5B8BD"/>
							</linearGradient>
							<path fill="url(#SVGID_6_)" d="M31.819,51.277c-2.088,7.311-1.346,14.403,1.573,21.313c-1.209-3.933-1.719-7.32-0.987-9.734
								C31.049,60.744,31.111,56.647,31.819,51.277L31.819,51.277z"/>
							
								<linearGradient id="SVGID_7_" gradientUnits="userSpaceOnUse" x1="474.7354" y1="-320.231" x2="488.5879" y2="-320.231" gradientTransform="matrix(0.1488 0.9889 -0.9889 0.1488 -346.124 -345.081)">
								<stop  offset="0" style="stop-color:#FFFFFF"/>
								<stop  offset="0.2199" style="stop-color:#FBFBFB"/>
								<stop  offset="0.4618" style="stop-color:#EDEEEF"/>
								<stop  offset="0.7142" style="stop-color:#D7D9DC"/>
								<stop  offset="0.9724" style="stop-color:#B9BCC0"/>
								<stop  offset="1" style="stop-color:#B5B8BD"/>
							</linearGradient>
							<path fill="url(#SVGID_7_)" d="M42.988,83.742c-2.444-0.952-4.799-3.322-7.18-6.197c3.75,5.663,8.158,9.964,12.833,12.078
								C46.847,88.205,44.988,86.4,42.988,83.742L42.988,83.742z"/>
							
								<linearGradient id="SVGID_8_" gradientUnits="userSpaceOnUse" x1="493.2334" y1="-340.4082" x2="495.2676" y2="-340.4082" gradientTransform="matrix(0.1488 0.9889 -0.9889 0.1488 -346.124 -345.081)">
								<stop  offset="0" style="stop-color:#FFFFFF"/>
								<stop  offset="0.2199" style="stop-color:#FBFBFB"/>
								<stop  offset="0.4618" style="stop-color:#EDEEEF"/>
								<stop  offset="0.7142" style="stop-color:#D7D9DC"/>
								<stop  offset="0.9724" style="stop-color:#B9BCC0"/>
								<stop  offset="1" style="stop-color:#B5B8BD"/>
							</linearGradient>
							<path fill="url(#SVGID_8_)" d="M57.881,92.93c2.892,0.823,6.166,1.282,12.337,0.182c-1.981,0.272-3.227,0.099-4.432-0.575
								C62.766,93.314,60.259,93.191,57.881,92.93L57.881,92.93z"/>
							
								<linearGradient id="SVGID_9_" gradientUnits="userSpaceOnUse" x1="434.9912" y1="-321.6284" x2="442.04" y2="-321.6284" gradientTransform="matrix(0.1488 0.9889 -0.9889 0.1488 -346.124 -345.081)">
								<stop  offset="0" style="stop-color:#FFFFFF"/>
								<stop  offset="0.2199" style="stop-color:#FBFBFB"/>
								<stop  offset="0.4618" style="stop-color:#EDEEEF"/>
								<stop  offset="0.7142" style="stop-color:#D7D9DC"/>
								<stop  offset="0.9724" style="stop-color:#B9BCC0"/>
								<stop  offset="1" style="stop-color:#B5B8BD"/>
							</linearGradient>
							<path fill="url(#SVGID_9_)" d="M39.857,36.742c-2.634,3.183-4.316,5.766-5.341,7.933c1.301-2.295,2.744-4.515,4.863-6.384
								L39.857,36.742L39.857,36.742z"/>
						</g>
					</g>
					
						<radialGradient id="SVGID_10_" cx="817.9854" cy="574.708" r="37.2935" gradientTransform="matrix(0.9093 0.4464 -0.4469 0.9104 -405.2285 -835.7563)" gradientUnits="userSpaceOnUse">
						<stop  offset="0.2439" style="stop-color:#FFFFFF"/>
						<stop  offset="0.2439" style="stop-color:#FFFFFF"/>
						<stop  offset="0.2488" style="stop-color:#FFFFFF"/>
						<stop  offset="0.4211" style="stop-color:#E3E3E4"/>
						<stop  offset="0.6927" style="stop-color:#AFB1B3"/>
						<stop  offset="0.7196" style="stop-color:#A7A9AA"/>
						<stop  offset="0.9088" style="stop-color:#717172"/>
						<stop  offset="1" style="stop-color:#5C5C5C"/>
					</radialGradient>
					<path opacity="0.5" fill="url(#SVGID_10_)" enable-background="new    " d="M95.887,75.174
						c4.469-9.105,4.338-18.681,0.896-27.422c-3.048-7.74-8.339-14.668-16.388-18.621c-9.221-4.525-20.872-4.271-28.454-1.281
						C44.35,30.843,38,37.041,34.096,44.971c-7.973,16.188-0.907,37.136,16.239,45.552C67.479,98.941,87.46,92.336,95.887,75.174z"
						/>
				</g>
			</g>
		</g>
	</g>
	
		<linearGradient id="SVGID_11_" gradientUnits="userSpaceOnUse" x1="115.8828" y1="1219.626" x2="129.1816" y2="1219.626" gradientTransform="matrix(1 0 0 1 -20.5 -1166.5)">
		<stop  offset="0" style="stop-color:#4A4A4A"/>
		<stop  offset="1" style="stop-color:#D1D1D1"/>
	</linearGradient>
	<path fill="url(#SVGID_11_)" d="M98.936,60.319l9.746-8.576l-13.299-5.81c0,0,0.288,0.697,0.965,2.442
		C98.044,53.353,98.936,60.319,98.936,60.319z"/>
	
		<linearGradient id="SVGID_12_" gradientUnits="userSpaceOnUse" x1="-12661.6074" y1="1245.707" x2="-12651.0957" y2="1245.707" gradientTransform="matrix(-1 0 0 1 -12633.1387 -1166.5)">
		<stop  offset="0" style="stop-color:#D1D1D1"/>
		<stop  offset="1" style="stop-color:#4A4A4A"/>
	</linearGradient>
	<polygon fill="url(#SVGID_12_)" points="28.469,85.141 17.957,78.259 28.469,73.273 	"/>
</g>
<path fill="#CE0500" d="M86.518,36.02l-0.613,0.8c-0.875,1.931-1.885,3.419-3.002,4.645c2.996,3.515,5.267,7.766,6.668,12.915
	c2.209,0.126,4.445,0.408,6.738,1.02C98.234,48.624,93.218,39.125,86.518,36.02L86.518,36.02z"/>
<path fill="#CE0500" d="M47.59,50.933c5.297-0.186,9.014,1.022,13.522,0.998l0.821-1.199l0.98-1.524
	c0.651-2.544,4.317-6.85,5.573-9.126c-2.184-3.274-5.446-5.313-8.471-7.667c-4.953,1.111-8.745,3.034-13.027,6.297
	C46.217,43.23,46.121,46.816,47.59,50.933L47.59,50.933z"/>
<polygon fill="#CE0500" points="17.901,78.21 17.901,57.648 108.682,51.74 108.682,72.307 "/>
<text transform="matrix(0.9828 -0.0631 -0.1102 0.9939 20.0869 73.2734)" font-family="'TeutonNormal-Bold'" font-size="15.0406">Gurú del Fútbol</text>
</svg>
