<?xml version="1.0" encoding="utf-8"?>
<!-- Generator: Adobe Illustrator 16.0.0, SVG Export Plug-In . SVG Version: 6.00 Build 0)  -->
<!DOCTYPE svg PUBLIC "-//W3C//DTD SVG 1.1//EN" "http://www.w3.org/Graphics/SVG/1.1/DTD/svg11.dtd">
<svg version="1.1" id="Layer_1" xmlns="http://www.w3.org/2000/svg" xmlns:xlink="http://www.w3.org/1999/xlink" x="0px" y="0px"
	 width="125px" height="125px" viewBox="0 0 125 125" enable-background="new 0 0 125 125" xml:space="preserve">
<g>
	<g>
		<path fill="#7AB800" d="M106.494,15.673c-36.15,0-42.266-13.723-42.322-13.851c-0.264-0.671-0.918-1.12-1.66-1.136
			c0,0-0.016,0-0.031,0c-0.719,0-1.381,0.449-1.67,1.104c-0.043,0.146-6.291,13.883-42.307,13.883c-1.006,0-1.801,0.814-1.801,1.799
			V78.96c0,25.171,43.234,44.402,45.064,45.21c0.242,0.104,0.473,0.144,0.732,0.144c0.238,0,0.496-0.04,0.725-0.144
			c1.848-0.808,45.072-20.039,45.072-45.21V17.472C108.289,16.487,107.49,15.673,106.494,15.673z"/>
	</g>
	<g>
		<g>
			<g>
				<defs>
					<rect id="SVGID_1_" x="28.473" y="28.96" width="69.331" height="44.041"/>
				</defs>
				<clipPath id="SVGID_2_">
					<use xlink:href="#SVGID_1_"  overflow="visible"/>
				</clipPath>
				<g clip-path="url(#SVGID_2_)">
					<g opacity="0.7">
						<g opacity="0.6">
							
								<image overflow="visible" enable-background="new    " width="1766" height="1766" xlink:href="../Documents/Tim Futebol/D06F58C607251782.png"  transform="matrix(-0.0085 0.0377 -0.0377 -0.0085 99.8623 39.7939)">
							</image>
						</g>
					</g>
					<g>
						<circle fill="#95979D" cx="63.751" cy="62.21" r="30.193"/>
						<g>
							
								<linearGradient id="SVGID_3_" gradientUnits="userSpaceOnUse" x1="331.0303" y1="954.3594" x2="343.5879" y2="954.3594" gradientTransform="matrix(0.1488 0.9889 0.9889 -0.1488 -913.0377 -152.7016)">
								<stop  offset="0" style="stop-color:#FFFFFF"/>
								<stop  offset="0.2199" style="stop-color:#FBFBFB"/>
								<stop  offset="0.4618" style="stop-color:#EDEEEF"/>
								<stop  offset="0.7142" style="stop-color:#D7D9DC"/>
								<stop  offset="0.9724" style="stop-color:#B9BCC0"/>
								<stop  offset="1" style="stop-color:#B5B8BD"/>
							</linearGradient>
							<path fill="url(#SVGID_3_)" d="M73.886,33.563c3.255,2.042,6.413,2.994,9.817,6.734c1.627,0.896,2.793,2.397,4.249,3.848
								C84.037,39.008,79.144,34.997,73.886,33.563L73.886,33.563z"/>
							
								<linearGradient id="SVGID_4_" gradientUnits="userSpaceOnUse" x1="354.0439" y1="963.0547" x2="369.9131" y2="963.0547" gradientTransform="matrix(0.1488 0.9889 0.9889 -0.1488 -913.0377 -152.7016)">
								<stop  offset="0" style="stop-color:#FFFFFF"/>
								<stop  offset="0.2199" style="stop-color:#FBFBFB"/>
								<stop  offset="0.4618" style="stop-color:#EDEEEF"/>
								<stop  offset="0.7142" style="stop-color:#D7D9DC"/>
								<stop  offset="0.9724" style="stop-color:#B9BCC0"/>
								<stop  offset="1" style="stop-color:#B5B8BD"/>
							</linearGradient>
							<path fill="url(#SVGID_4_)" d="M93.484,69.839c1.01-3.857,1.576-7.985-0.678-15.849c0.144,1.766,0.41,3.429,0.135,4.769
								c1.344,2.949,1.047,6.924,0.229,11.225L93.484,69.839L93.484,69.839z"/>
							
								<linearGradient id="SVGID_5_" gradientUnits="userSpaceOnUse" x1="369.8418" y1="957.4746" x2="382.0537" y2="957.4746" gradientTransform="matrix(0.1488 0.9889 0.9889 -0.1488 -913.0377 -152.7016)">
								<stop  offset="0" style="stop-color:#FFFFFF"/>
								<stop  offset="0.2199" style="stop-color:#FBFBFB"/>
								<stop  offset="0.4618" style="stop-color:#EDEEEF"/>
								<stop  offset="0.7142" style="stop-color:#D7D9DC"/>
								<stop  offset="0.9724" style="stop-color:#B9BCC0"/>
								<stop  offset="1" style="stop-color:#B5B8BD"/>
							</linearGradient>
							<path fill="url(#SVGID_5_)" d="M87.195,80.272l-1.1,3.053c3.902-4.644,6.165-9.108,7.308-13.449l-0.438,0.083
								C91.417,72.971,89.546,78.274,87.195,80.272L87.195,80.272z"/>
							<path fill="#FFFFFF" d="M48.423,54.526c-1.857,1.758-3.546,4.298-5.032,7.09l-1.615,3.964l0.332,1.31
								c0.68,2.029,1.521,3.753,2.434,5.326c0.672,1.595,1.511,3.087,2.621,4.42l0.529,0.914l0.794-0.084l4.931,0.771l3.729,0.321
								l1.996-0.055l1.123-0.234l4.084-6.85l2.271-3.912l-5.444-10.925l-0.536-0.948c-2.737-0.542-5.686-0.792-8.729-0.905
								L48.423,54.526L48.423,54.526z"/>
							<path fill="#FFFFFF" d="M67.874,45.075l-3.433,5.09l-1.312,2.27l-1.596,3.457l1.965,3.833
								c0.775,1.854,1.655,3.569,2.56,5.241l1.378,2.483l12.105,0.994c2.795-3.364,4.848-6.944,6.312-10.568
								c-1.086-4.138-2.963-7.885-5.364-11.223l-3.165-1.281C73.803,45.008,70.48,44.786,67.874,45.075L67.874,45.075z"/>
							<path fill="#002878" d="M67.511,67.657c-1.921,3.582-4.449,7.118-7.062,10.647c2.472,3.237,5.284,5.563,8.227,7.526
								c4.949-1.29,8.835-3.346,11.65-6.159c0.482-3.772,0.05-7.394-0.796-10.943C75.453,68.47,71.585,67.917,67.511,67.657
								L67.511,67.657z"/>
							<path fill="#FFFFFF" d="M48.308,78.126l-0.554,0.335l-2.886,5.3c1.227,1.668,2.704,3.603,4.585,5.32l3.864,1.675l3.58,1.103
								l8.054-0.43c1.626-1.894,2.521-3.567,2.913-5.094c-2.786-2.238-5.495-4.55-7.866-7.183
								C56.239,79.646,52.326,79.206,48.308,78.126L48.308,78.126z"/>
							<path fill="#002878" d="M47.305,77.453c-2.33-3.196-4.178-6.63-5.546-10.302l-0.9-1.178
								c-1.758,0.006-3.553-0.216-5.362-0.516c-0.647,3.78-0.037,7.281,1.608,10.369c1.387,3.171,4.049,5.7,7.466,7.283
								L47.305,77.453L47.305,77.453z"/>
							<path fill="#FFFFFF" d="M35.588,64.856c2.039,0.251,3.847,0.36,5.831,0.285c1.359-3.805,3.385-7.472,6.467-11.007
								c-0.977-3.047-1.081-5.856-0.525-10.307c-1.455-0.603-3.778-0.454-6.161,0.105c-2.846,2.317-5.009,5.859-6.479,9.735
								C33.57,58.721,33.835,62.519,35.588,64.856L35.588,64.856z"/>
							<path fill="#FFFFFF" d="M59.471,37.252c3.434,2.131,6.335,4.442,8.371,7.052c3.745-0.497,7.646-0.077,11.671,1.104
								l1.602-1.297c0.535-1.212,1.15-2.263,1.821-3.169l-0.135-1.572c-2.068-2.435-5.279-4.201-8.806-5.779
								c-4.29-1.24-7.994-1.132-11.483-0.535C60.959,34.544,60.037,35.929,59.471,37.252L59.471,37.252z"/>
							<path fill="#FFFFFF" d="M86.326,58.566c-1.703,4.194-3.823,7.375-6.179,9.989c0.906,3.681,1.337,7.438,0.723,11.37
								c2.283,0.456,4.431,0.571,6.271-0.067c2.602-1.741,4.404-5.043,5.848-9.056c1.198-4.179,0.954-8.045-0.479-11.657
								C90.084,58.587,87.973,58.345,86.326,58.566L86.326,58.566z"/>
							<path fill="#FFFFFF" d="M68.727,86.2c-0.672,1.895-1.715,3.645-3.128,5.248c0.719,0.659,1.916,0.892,3.597,0.698
								c5.852-1.131,11.497-3.522,16.68-8.693l0.684-1.205l-0.104-0.464l0.472-1.364c-2.179,0.383-4.663,0.305-6.508-0.111
								C77.146,83.304,73.141,85.092,68.727,86.2L68.727,86.2z"/>
							<path fill="#FFFFFF" d="M42.258,41.496c-0.48,0.75-0.773,1.466-0.882,2.152c2.114-0.566,4.176-0.957,6.041-0.717
								c3.18-2.851,7.751-5.151,11.325-5.418c0.975-1.981,1.96-3.714,3.618-4.661c-0.334-0.375-0.822-0.532-1.464-0.475
								C53.466,33.387,47.396,36.666,42.258,41.496L42.258,41.496z"/>
							
								<linearGradient id="SVGID_6_" gradientUnits="userSpaceOnUse" x1="346.0635" y1="904.6953" x2="365.1758" y2="904.6953" gradientTransform="matrix(0.1488 0.9889 0.9889 -0.1488 -913.0377 -152.7016)">
								<stop  offset="0" style="stop-color:#FFFFFF"/>
								<stop  offset="0.2199" style="stop-color:#FBFBFB"/>
								<stop  offset="0.4618" style="stop-color:#EDEEEF"/>
								<stop  offset="0.7142" style="stop-color:#D7D9DC"/>
								<stop  offset="0.9724" style="stop-color:#B9BCC0"/>
								<stop  offset="1" style="stop-color:#B5B8BD"/>
							</linearGradient>
							<path fill="url(#SVGID_6_)" d="M34.333,54.718c-1.873,6.558-1.207,12.919,1.411,19.116c-1.085-3.527-1.542-6.566-0.886-8.73
								C33.643,63.209,33.698,59.535,34.333,54.718L34.333,54.718z"/>
							
								<linearGradient id="SVGID_7_" gradientUnits="userSpaceOnUse" x1="369.8945" y1="910.8496" x2="382.3193" y2="910.8496" gradientTransform="matrix(0.1488 0.9889 0.9889 -0.1488 -913.0377 -152.7016)">
								<stop  offset="0" style="stop-color:#FFFFFF"/>
								<stop  offset="0.2199" style="stop-color:#FBFBFB"/>
								<stop  offset="0.4618" style="stop-color:#EDEEEF"/>
								<stop  offset="0.7142" style="stop-color:#D7D9DC"/>
								<stop  offset="0.9724" style="stop-color:#B9BCC0"/>
								<stop  offset="1" style="stop-color:#B5B8BD"/>
							</linearGradient>
							<path fill="url(#SVGID_7_)" d="M44.351,83.838c-2.192-0.854-4.305-2.98-6.439-5.559c3.363,5.079,7.317,8.937,11.51,10.833
								C47.812,87.841,46.145,86.222,44.351,83.838L44.351,83.838z"/>
							
								<linearGradient id="SVGID_8_" gradientUnits="userSpaceOnUse" x1="386.4854" y1="928.9473" x2="388.3105" y2="928.9473" gradientTransform="matrix(0.1488 0.9889 0.9889 -0.1488 -913.0377 -152.7016)">
								<stop  offset="0" style="stop-color:#FFFFFF"/>
								<stop  offset="0.2199" style="stop-color:#FBFBFB"/>
								<stop  offset="0.4618" style="stop-color:#EDEEEF"/>
								<stop  offset="0.7142" style="stop-color:#D7D9DC"/>
								<stop  offset="0.9724" style="stop-color:#B9BCC0"/>
								<stop  offset="1" style="stop-color:#B5B8BD"/>
							</linearGradient>
							<path fill="url(#SVGID_8_)" d="M57.709,92.078c2.594,0.738,5.53,1.15,11.065,0.163c-1.778,0.244-2.894,0.088-3.975-0.517
								C62.091,92.424,59.842,92.312,57.709,92.078L57.709,92.078z"/>
							
								<linearGradient id="SVGID_9_" gradientUnits="userSpaceOnUse" x1="334.2451" y1="912.1035" x2="340.5684" y2="912.1035" gradientTransform="matrix(0.1488 0.9889 0.9889 -0.1488 -913.0377 -152.7016)">
								<stop  offset="0" style="stop-color:#FFFFFF"/>
								<stop  offset="0.2199" style="stop-color:#FBFBFB"/>
								<stop  offset="0.4618" style="stop-color:#EDEEEF"/>
								<stop  offset="0.7142" style="stop-color:#D7D9DC"/>
								<stop  offset="0.9724" style="stop-color:#B9BCC0"/>
								<stop  offset="1" style="stop-color:#B5B8BD"/>
							</linearGradient>
							<path fill="url(#SVGID_9_)" d="M41.543,41.681c-2.362,2.854-3.871,5.171-4.791,7.115c1.167-2.058,2.461-4.05,4.362-5.726
								L41.543,41.681L41.543,41.681z"/>
						</g>
					</g>
					
						<radialGradient id="SVGID_10_" cx="880.3525" cy="295.9326" r="33.4501" gradientTransform="matrix(0.9093 0.4464 0.4469 -0.9104 -853.6582 -67.6617)" gradientUnits="userSpaceOnUse">
						<stop  offset="0.2439" style="stop-color:#FFFFFF"/>
						<stop  offset="0.2439" style="stop-color:#FFFFFF"/>
						<stop  offset="0.2488" style="stop-color:#FFFFFF"/>
						<stop  offset="0.4211" style="stop-color:#E3E3E4"/>
						<stop  offset="0.6927" style="stop-color:#AFB1B3"/>
						<stop  offset="0.7196" style="stop-color:#A7A9AA"/>
						<stop  offset="0.9088" style="stop-color:#717172"/>
						<stop  offset="1" style="stop-color:#5C5C5C"/>
					</radialGradient>
					<path opacity="0.5" fill="url(#SVGID_10_)" enable-background="new    " d="M91.798,76.152
						c4.008-8.167,3.892-16.755,0.803-24.597c-2.732-6.942-7.479-13.156-14.699-16.702c-8.27-4.059-18.72-3.831-25.521-1.149
						c-6.809,2.685-12.504,8.244-16.006,15.357c-7.151,14.52-0.813,33.31,14.565,40.858C66.317,97.471,84.24,91.546,91.798,76.152z"
						/>
				</g>
			</g>
		</g>
		
			<linearGradient id="SVGID_11_" gradientUnits="userSpaceOnUse" x1="326.3467" y1="-289.876" x2="338.2744" y2="-289.876" gradientTransform="matrix(1 0 0 -1 -235 -233.5)">
			<stop  offset="0" style="stop-color:#4A4A4A"/>
			<stop  offset="1" style="stop-color:#D1D1D1"/>
		</linearGradient>
		<path fill="url(#SVGID_11_)" d="M94.532,62.828l8.742-7.692l-11.928-5.211c0,0,0.258,0.625,0.865,2.19
			C93.733,56.581,94.532,62.828,94.532,62.828z"/>
		
			<linearGradient id="SVGID_12_" gradientUnits="userSpaceOnUse" x1="-12370.9668" y1="-313.27" x2="-12361.5381" y2="-313.27" gradientTransform="matrix(-1 0 0 -1 -12339.6387 -233.5)">
			<stop  offset="0" style="stop-color:#D1D1D1"/>
			<stop  offset="1" style="stop-color:#4A4A4A"/>
		</linearGradient>
		<polygon fill="url(#SVGID_12_)" points="31.328,85.092 21.899,78.919 31.328,74.448 		"/>
	</g>
	<path fill="#002878" d="M83.394,41.033l-0.55,0.717c-0.785,1.732-1.69,3.067-2.691,4.167c2.687,3.152,4.723,6.966,5.979,11.584
		c1.982,0.113,3.988,0.366,6.044,0.915C93.905,52.338,89.404,43.818,83.394,41.033L83.394,41.033z"/>
	<path fill="#002878" d="M48.479,54.409c4.751-0.167,8.085,0.917,12.129,0.895l0.736-1.076l0.879-1.366
		c0.584-2.283,3.872-6.145,5-8.186c-1.959-2.937-4.886-4.766-7.599-6.877c-4.442,0.997-7.844,2.721-11.685,5.648
		C47.247,47.5,47.161,50.717,48.479,54.409L48.479,54.409z"/>
	<polygon fill="#FED100" points="21.85,78.875 21.85,60.433 103.274,55.133 103.274,73.58 	"/>
	<g>
		<path fill="#002878" d="M28.199,74.314l-2.062,0.133l0.889-8.021l-1.488,0.095c-0.126,0.008-0.269,0.03-0.429,0.099l0.221-1.988
			l5.896-0.379l-0.22,1.987c-0.148-0.048-0.288-0.053-0.413-0.045l-1.501,0.097L28.199,74.314z"/>
		<path fill="#002878" d="M34.384,64.052l-1.102,9.938l-2.077,0.134l1.102-9.938L34.384,64.052z"/>
		<path fill="#002878" d="M43.036,73.361l-1.936,0.125l0.829-7.479l-1.664,5.462l-2.149,0.139l-0.468-5.327l-0.83,7.481
			l-1.965,0.125l1.103-9.937l3.145-0.202l0.403,5.528l1.646-5.661l2.99-0.191L43.036,73.361z"/>
		<path fill="#002878" d="M50.394,72.889l-2.079,0.134l1.102-9.938l4.479-0.287c1.318-0.085,1.697,0.651,1.575,1.76l-0.288,2.599
			c-0.122,1.105-0.628,1.9-1.935,1.984l-2.456,0.156L50.394,72.889z M51.004,67.38l1.81-0.115c0.196-0.012,0.319-0.12,0.351-0.39
			l0.196-1.773c0.028-0.258-0.073-0.362-0.269-0.351l-1.811,0.116L51.004,67.38z"/>
		<path fill="#002878" d="M57.63,70.592l-0.556,1.868l-2.245,0.146l3.473-10.09l2.556-0.164l1.243,9.786l-2.344,0.15l-0.16-1.822
			L57.63,70.592z M59.55,69.004l-0.343-3.968l-1.217,4.066L59.55,69.004z"/>
		<path fill="#002878" d="M65.038,70.158l2.948-0.188c0.127-0.009,0.268-0.032,0.413-0.099l-0.206,1.875l-5.434,0.349l1.103-9.938
			l2.077-0.132L65.038,70.158z"/>
		<path fill="#002878" d="M71.083,71.56l-2.077,0.134l1.101-9.938l4.479-0.287c1.317-0.087,1.697,0.652,1.576,1.759l-0.29,2.599
			c-0.122,1.106-0.628,1.899-1.933,1.985l-2.457,0.157L71.083,71.56z M71.695,66.052l1.809-0.117
			c0.197-0.014,0.32-0.118,0.352-0.389l0.197-1.775c0.026-0.254-0.071-0.36-0.269-0.348l-1.811,0.116L71.695,66.052z"/>
		<path fill="#002878" d="M79.611,61.146l-1.101,9.937l-2.078,0.133l1.102-9.937L79.611,61.146z"/>
		<path fill="#002878" d="M83.578,70.757l-2.064,0.133l0.889-8.021l-1.489,0.096c-0.125,0.008-0.268,0.03-0.427,0.096l0.22-1.986
			l5.896-0.378l-0.22,1.988c-0.148-0.047-0.287-0.053-0.414-0.046l-1.503,0.097L83.578,70.757z"/>
		<path fill="#002878" d="M89.56,62.297l-0.228,2.059l2.107-0.134c0.125-0.011,0.267-0.032,0.41-0.07l-0.203,1.833
			c-0.138-0.021-0.277-0.024-0.401-0.018l-2.106,0.136l-0.279,2.526l3.116-0.201c0.127-0.009,0.269-0.03,0.415-0.097l-0.208,1.874
			l-5.6,0.36l1.102-9.938l5.417-0.348l-0.205,1.874c-0.15-0.047-0.289-0.052-0.414-0.044L89.56,62.297z"/>
		<path fill="#002878" d="M94.576,64.949c-0.765-0.643-0.878-1.128-0.779-2.036l0.093-0.823c0.124-1.109,0.687-1.905,1.993-1.989
			l3.692-0.238l-0.231,2.074c-0.156-0.103-0.432-0.129-0.671-0.113l-2.443,0.157c-0.168,0.013-0.278,0.131-0.307,0.388l-0.05,0.439
			c-0.017,0.157,0.013,0.283,0.111,0.374l2.199,1.817c0.777,0.642,0.876,1.142,0.773,2.051l-0.095,0.867
			c-0.123,1.105-0.671,1.902-1.991,1.986l-3.873,0.251l0.229-2.073c0.155,0.101,0.431,0.127,0.685,0.111l2.568-0.165
			c0.213-0.014,0.32-0.134,0.35-0.39l0.057-0.498c0.018-0.156-0.012-0.281-0.113-0.374L94.576,64.949z"/>
	</g>
</g>
</svg>
