<?xml version="1.0" encoding="utf-8"?>
<!-- Generator: Adobe Illustrator 16.0.0, SVG Export Plug-In . SVG Version: 6.00 Build 0)  -->
<!DOCTYPE svg PUBLIC "-//W3C//DTD SVG 1.1//EN" "http://www.w3.org/Graphics/SVG/1.1/DTD/svg11.dtd">
<svg version="1.1" id="Layer_1" xmlns="http://www.w3.org/2000/svg" xmlns:xlink="http://www.w3.org/1999/xlink" x="0px" y="0px"
	 width="125px" height="125px" viewBox="0 0 125 125" enable-background="new 0 0 125 125" xml:space="preserve">
<g>
	<g>
		<path fill="#7AB800" d="M106.494,15.673c-36.15,0-42.266-13.723-42.322-13.851c-0.264-0.671-0.918-1.12-1.66-1.136
			c0,0-0.016,0-0.031,0c-0.719,0-1.381,0.449-1.67,1.104c-0.043,0.146-6.291,13.883-42.307,13.883c-1.006,0-1.801,0.814-1.801,1.799
			V78.96c0,25.171,43.234,44.401,45.064,45.21c0.242,0.104,0.473,0.145,0.732,0.145c0.238,0,0.496-0.041,0.726-0.145
			c1.848-0.809,45.071-20.039,45.071-45.21V17.472C108.289,16.487,107.49,15.673,106.494,15.673z"/>
	</g>
</g>
<g>
	<g>
		
			<linearGradient id="SVGID_1_" gradientUnits="userSpaceOnUse" x1="111.7832" y1="1217.8691" x2="123.7109" y2="1217.8691" gradientTransform="matrix(1 0 0 1 -20.5 -1166.5)">
			<stop  offset="0" style="stop-color:#4A4A4A"/>
			<stop  offset="1" style="stop-color:#D1D1D1"/>
		</linearGradient>
		<path fill="url(#SVGID_1_)" d="M94.47,57.82l8.741-7.692l-11.928-5.211c0,0,0.258,0.625,0.865,2.19
			C93.67,51.573,94.47,57.82,94.47,57.82z"/>
		
			<linearGradient id="SVGID_2_" gradientUnits="userSpaceOnUse" x1="-13054.4043" y1="1241.2617" x2="-13044.9756" y2="1241.2617" gradientTransform="matrix(-1 0 0 1 -13023.1387 -1166.5)">
			<stop  offset="0" style="stop-color:#D1D1D1"/>
			<stop  offset="1" style="stop-color:#4A4A4A"/>
		</linearGradient>
		<polygon fill="url(#SVGID_2_)" points="31.266,80.084 21.837,73.911 31.266,69.44 		"/>
	</g>
	<polygon fill="#FED100" points="21.788,73.867 21.788,55.425 103.211,50.125 103.211,68.572 	"/>
	<g>
		<path fill="#002878" d="M28.137,69.307l-2.062,0.133l0.889-8.021l-1.488,0.096c-0.126,0.008-0.269,0.029-0.429,0.099l0.221-1.988
			l5.896-0.379l-0.221,1.987c-0.147-0.049-0.288-0.053-0.413-0.045l-1.501,0.097L28.137,69.307z"/>
		<path fill="#002878" d="M34.321,59.044l-1.102,9.938l-2.077,0.134l1.103-9.938L34.321,59.044z"/>
		<path fill="#002878" d="M42.974,68.354l-1.936,0.125l0.829-7.479l-1.664,5.462L38.054,66.6l-0.468-5.326l-0.83,7.48l-1.965,0.125
			l1.103-9.937l3.146-0.202l0.402,5.527l1.646-5.66l2.99-0.191L42.974,68.354z"/>
		<path fill="#002878" d="M50.332,67.881l-2.079,0.135l1.102-9.938l4.479-0.287c1.317-0.085,1.696,0.651,1.575,1.761l-0.288,2.599
			c-0.122,1.104-0.628,1.899-1.936,1.983l-2.456,0.156L50.332,67.881z M50.941,62.372l1.811-0.114
			c0.195-0.013,0.318-0.121,0.351-0.391l0.196-1.773c0.028-0.258-0.073-0.361-0.27-0.351l-1.811,0.116L50.941,62.372z"/>
		<path fill="#002878" d="M57.567,65.584l-0.556,1.868l-2.245,0.146l3.473-10.09l2.557-0.164l1.243,9.787l-2.345,0.149l-0.159-1.822
			L57.567,65.584z M59.487,63.996l-0.343-3.968l-1.217,4.065L59.487,63.996z"/>
		<path fill="#002878" d="M64.976,65.15l2.948-0.188c0.127-0.009,0.268-0.032,0.412-0.099l-0.205,1.875l-5.435,0.349l1.103-9.938
			l2.078-0.133L64.976,65.15z"/>
		<path fill="#002878" d="M71.021,66.553l-2.077,0.133l1.102-9.938l4.479-0.287c1.316-0.087,1.697,0.652,1.576,1.76l-0.29,2.599
			c-0.122,1.106-0.628,1.899-1.933,1.985l-2.457,0.156L71.021,66.553z M71.633,61.044l1.809-0.116
			c0.197-0.015,0.32-0.119,0.352-0.39l0.197-1.774c0.026-0.254-0.07-0.36-0.269-0.349l-1.812,0.116L71.633,61.044z"/>
		<path fill="#002878" d="M79.549,56.138l-1.102,9.938l-2.078,0.133l1.103-9.938L79.549,56.138z"/>
		<path fill="#002878" d="M83.516,65.749l-2.064,0.134l0.889-8.021l-1.488,0.096c-0.125,0.008-0.268,0.03-0.428,0.096l0.221-1.985
			l5.896-0.378l-0.221,1.987c-0.148-0.047-0.287-0.053-0.414-0.046l-1.503,0.097L83.516,65.749z"/>
		<path fill="#002878" d="M89.498,57.289l-0.229,2.059l2.107-0.133c0.125-0.012,0.267-0.033,0.41-0.07l-0.203,1.832
			c-0.139-0.021-0.277-0.023-0.401-0.018l-2.106,0.137l-0.279,2.525l3.117-0.201c0.127-0.009,0.269-0.029,0.414-0.097l-0.207,1.874
			l-5.601,0.359l1.103-9.938l5.416-0.349l-0.205,1.874c-0.149-0.047-0.289-0.052-0.414-0.044L89.498,57.289z"/>
		<path fill="#002878" d="M94.514,59.941c-0.766-0.643-0.878-1.129-0.779-2.036l0.094-0.823c0.123-1.109,0.687-1.905,1.992-1.989
			l3.692-0.238l-0.231,2.074c-0.156-0.103-0.432-0.129-0.671-0.112l-2.442,0.156C96,56.986,95.89,57.104,95.86,57.361l-0.05,0.438
			c-0.018,0.157,0.013,0.283,0.111,0.374l2.199,1.817c0.776,0.642,0.875,1.142,0.772,2.051l-0.095,0.867
			c-0.123,1.104-0.672,1.901-1.991,1.985l-3.873,0.252l0.229-2.073c0.154,0.101,0.431,0.127,0.685,0.11l2.567-0.164
			c0.213-0.014,0.32-0.135,0.351-0.391l0.057-0.498c0.019-0.156-0.012-0.281-0.112-0.373L94.514,59.941z"/>
	</g>
</g>
</svg>
