<?xml version="1.0" encoding="utf-8"?>
<!-- Generator: Adobe Illustrator 16.0.0, SVG Export Plug-In . SVG Version: 6.00 Build 0)  -->
<!DOCTYPE svg PUBLIC "-//W3C//DTD SVG 1.1//EN" "http://www.w3.org/Graphics/SVG/1.1/DTD/svg11.dtd">
<svg version="1.1" id="Layer_1" xmlns="http://www.w3.org/2000/svg" xmlns:xlink="http://www.w3.org/1999/xlink" x="0px" y="0px"
	 width="50.75px" height="50px" viewBox="48.562 0 50.75 50" enable-background="new 48.562 0 50.75 50" xml:space="preserve">
<g>
	<circle fill="#A41F30" cx="74.038" cy="25" r="24.391"/>
	<radialGradient id="SVGID_1_" cx="74.0381" cy="42.0098" r="23.5346" gradientUnits="userSpaceOnUse">
		<stop  offset="0" style="stop-color:#EB97A6"/>
		<stop  offset="0.323" style="stop-color:#D35D67"/>
		<stop  offset="0.6391" style="stop-color:#BD2B2F"/>
		<stop  offset="0.8734" style="stop-color:#B00C0D"/>
		<stop  offset="1" style="stop-color:#AB0000"/>
	</radialGradient>
	<circle opacity="0.8" fill-rule="evenodd" clip-rule="evenodd" fill="url(#SVGID_1_)" cx="74.038" cy="25" r="24.391"/>
	<linearGradient id="SVGID_2_" gradientUnits="userSpaceOnUse" x1="74.0381" y1="4.5762" x2="74.0381" y2="22.4077">
		<stop  offset="0.0843" style="stop-color:#FFFFFF"/>
		<stop  offset="0.0855" style="stop-color:#FFFFFE"/>
		<stop  offset="0.2469" style="stop-color:#F4C4B7"/>
		<stop  offset="0.3629" style="stop-color:#EDA08A"/>
		<stop  offset="0.4213" style="stop-color:#EA9279"/>
		<stop  offset="0.4483" style="stop-color:#E48973"/>
		<stop  offset="0.5972" style="stop-color:#C95B56"/>
		<stop  offset="0.7298" style="stop-color:#B53A41"/>
		<stop  offset="0.84" style="stop-color:#A82635"/>
		<stop  offset="0.9141" style="stop-color:#A41F30"/>
	</linearGradient>
	<path opacity="0.8" fill-rule="evenodd" clip-rule="evenodd" fill="url(#SVGID_2_)" d="M89.021,15.357
		c0-6.577-8.559-11.906-14.982-11.906c-6.638,0-14.983,5.33-14.983,11.906c0,6.576,6.708,2.924,14.983,2.924
		C82.312,18.282,89.021,21.934,89.021,15.357z"/>
	<g id="TEXT_2_">
		<path fill-rule="evenodd" clip-rule="evenodd" fill="#FFFFFF" d="M87.716,23.319c-0.815-0.817-1.803-1.215-2.922-1.215
			c-1.12,0-2.088,0.398-2.884,1.215c-0.818,0.816-1.215,1.802-1.215,2.94c0,1.141,0.396,2.127,1.215,2.925
			c0.796,0.814,1.764,1.232,2.884,1.232c1.119,0,2.106-0.418,2.922-1.232c0.797-0.798,1.195-1.784,1.195-2.925
			C88.911,25.122,88.513,24.135,87.716,23.319L87.716,23.319z M86.331,27.797c-0.418,0.438-0.931,0.646-1.537,0.646
			c-0.589,0-1.1-0.208-1.52-0.646c-0.417-0.436-0.646-0.947-0.646-1.537c0-0.624,0.229-1.138,0.646-1.555
			c0.42-0.437,0.931-0.645,1.52-0.627c0.606-0.017,1.119,0.191,1.556,0.627c0.398,0.417,0.606,0.931,0.627,1.555
			C86.956,26.85,86.748,27.361,86.331,27.797L86.331,27.797z"/>
		<path fill-rule="evenodd" clip-rule="evenodd" fill="#FFFFFF" d="M58.814,20.074c-1.423-0.02-2.601,0.475-3.587,1.499
			c-1.007,1.006-1.499,2.202-1.499,3.626c0,1.404,0.492,2.636,1.499,3.642c0.986,0.986,2.164,1.481,3.587,1.481
			c1.138,0,2.182-0.343,3.093-1.044c0.893-0.723,1.48-1.612,1.784-2.715h-2.069c-0.266,0.532-0.645,0.968-1.119,1.309
			c-0.532,0.323-1.083,0.495-1.689,0.495c-0.874,0-1.613-0.321-2.22-0.931c-0.627-0.626-0.93-1.366-0.912-2.238
			c-0.018-0.874,0.285-1.613,0.912-2.241c0.607-0.607,1.347-0.93,2.22-0.93c0.606,0,1.157,0.171,1.689,0.513
			c0.474,0.323,0.853,0.778,1.119,1.309h2.069c-0.304-1.1-0.892-2.012-1.784-2.713C60.996,20.416,59.952,20.055,58.814,20.074
			L58.814,20.074z"/>
		<path fill-rule="evenodd" clip-rule="evenodd" fill="#FFFFFF" d="M71.339,22.086c-1.328-0.02-2.258,0.34-2.79,1.044
			c-0.341,0.435-0.512,1.005-0.569,1.727h1.973c0.038-0.342,0.152-0.571,0.285-0.722c0.208-0.266,0.55-0.399,1.044-0.381
			c0.417-0.018,0.74,0.058,0.967,0.191c0.228,0.115,0.323,0.341,0.341,0.664c0,0.266-0.15,0.475-0.454,0.608l-1.518,0.247
			c-0.704,0.094-1.272,0.264-1.708,0.513c-0.74,0.436-1.101,1.139-1.082,2.145c-0.019,0.7,0.209,1.271,0.664,1.689
			c0.399,0.341,0.949,0.529,1.614,0.549c1.082-0.02,1.937-0.283,2.543-0.815v0.815h1.974v-5.807c0-0.949-0.342-1.612-0.987-1.955
			C72.953,22.238,72.194,22.066,71.339,22.086L71.339,22.086z M72.173,26.545l0.381-0.208v0.795c0,0.685-0.19,1.158-0.551,1.424
			c-0.38,0.266-0.778,0.399-1.232,0.399c-0.285,0-0.513-0.075-0.704-0.228c-0.189-0.172-0.282-0.416-0.282-0.778
			c0-0.399,0.149-0.685,0.474-0.89c0.188-0.116,0.513-0.21,0.93-0.269L72.173,26.545L72.173,26.545z"/>
		<polygon fill-rule="evenodd" clip-rule="evenodd" fill="#FFFFFF" points="66.671,20.074 64.697,20.074 64.697,30.359 
			66.671,30.359 66.671,20.074 		"/>
		<path fill-rule="evenodd" clip-rule="evenodd" fill="#FFFFFF" d="M79.234,22.371c-0.532,0.208-1.007,0.569-1.406,1.119v-1.005
			l-1.878-0.02v7.895h1.954v-3.776c0-0.646,0.076-1.1,0.247-1.384c0.133-0.305,0.379-0.551,0.684-0.76
			c0.341-0.227,0.701-0.341,1.082-0.341l0.606,0.038l-0.02-2.012l-0.51,0.039L79.234,22.371L79.234,22.371z"/>
		<polygon fill-rule="evenodd" clip-rule="evenodd" fill="#FFFFFF" points="89.254,22.408 94.017,17.645 92.765,16.392 88,21.156 
			89.254,22.408 		"/>
		<polygon fill-rule="evenodd" clip-rule="evenodd" fill="#FFFFFF" points="85.913,20.511 85.913,15.405 84.149,15.405 
			84.149,20.511 85.913,20.511 		"/>
		<polygon fill-rule="evenodd" clip-rule="evenodd" fill="#FFFFFF" points="90.126,24.382 90.126,26.146 95.345,26.146 
			95.345,24.382 90.126,24.382 		"/>
	</g>
</g>
</svg>
