<?xml version="1.0" encoding="utf-8"?>
<!-- Generator: Adobe Illustrator 16.0.0, SVG Export Plug-In . SVG Version: 6.00 Build 0)  -->
<!DOCTYPE svg PUBLIC "-//W3C//DTD SVG 1.1//EN" "http://www.w3.org/Graphics/SVG/1.1/DTD/svg11.dtd">
<svg version="1.1" id="Layer_1" xmlns="http://www.w3.org/2000/svg" xmlns:xlink="http://www.w3.org/1999/xlink" x="0px" y="0px"
	 width="115.488px" height="46.141px" viewBox="0 0 115.488 46.141" enable-background="new 0 0 115.488 46.141"
	 xml:space="preserve">
<g>
	<g>
		<g>
			<path fill="#FFFFFF" d="M11.135,19.287l0.727-5.095c0,0,0.775-5.966,5.33-5.888h6.602c0,0,4.428-0.175,4.428,2.868h10.588
				c0,0,2.648-10.059-9.484-10.698H15.207c0,0-11.3-0.881-12.984,9.963L0.475,22.196c3.545-0.6,7.031-1.138,10.46-1.617
				C10.965,20.181,11.026,19.753,11.135,19.287z"/>
			<path fill="#FFFFFF" d="M10.407,33.121H24.14c0,0,11.581,0.551,13.126-10.699H26.788c0,0-0.331,2.868-6.508,2.868h-4.633
				c0,0-3.47,0.097-4.468-2.614c-3.925,0.361-7.591,0.734-10.946,1.103C-0.021,25.81-0.205,33.121,10.407,33.121z"/>
		</g>
		<g>
			<path fill="#FFFFFF" d="M103.375,22.159c0.086,0.271,0.116,0.597,0.066,0.989c-0.297,2.341-3.881,1.988-3.881,1.988h-6.984
				c0,0-4.268,0.159-4.705-2.976H76.956l0.002,0.308v3.492c0,0-0.437,7.376,10.525,7.376h12.271c0,0,12.216,0.714,14.033-9.896
				C110.346,22.953,106.87,22.526,103.375,22.159z"/>
			<path fill="#FFFFFF" d="M113.945,21.24c0.076-1.021,0.047-2.51-0.475-3.961c-0.184-0.591-0.432-1.142-0.766-1.601
				c0,0-0.023-0.002-0.064-0.005c-1.191-1.686-3.389-3.011-7.358-2.983l-13.921-0.048c0,0-2.836,0.191-2.522-2.281
				c0.298-2.341,3.88-1.987,3.88-1.987h6.985c0,0,4.269-0.158,4.704,2.975h10.916l-0.002-0.309V7.548c0,0,0.438-7.376-10.525-7.376
				H92.526c0,0-12.369-0.724-14.066,10.092c0,0-0.111,0.841-0.125,2.005c-0.074,1.022-0.047,2.511,0.477,3.961
				c0.176,0.569,0.416,1.101,0.73,1.549c14.15,0.915,25.734,2.668,34.373,4.382C113.93,21.89,113.941,21.579,113.945,21.24z"/>
		</g>
		<g>
			<path fill="#FFFFFF" d="M60.368,25.155h-6.84c0,0-4.686,0.416-4.234-4.772c-3.539,0.095-7.019,0.224-10.417,0.38l-0.046,0.316
				c0,0-2.426,12.418,10.186,12.046h13.873c0,0,11.787,0.567,12.951-12.094l0.08-0.65c-3.447-0.101-6.877-0.157-10.277-0.177
				C65.338,21.694,64.223,25.079,60.368,25.155z"/>
			<path fill="#FFFFFF" d="M50.084,13.805c0,0,0.451-5.044,6.144-5.287h5.229c0,0,5.749-0.315,4.971,5.678l-0.384,3.01
				c3.533,0.074,6.94,0.204,10.221,0.379l0.012-0.095l0.97-8.876c0,0,0.873-8.392-9.895-8.392c-10.769,0-11.885,0-11.885,0
				S41.45-1.329,40.043,12.69l-0.729,5.047c3.537-0.211,6.989-0.362,10.354-0.461L50.084,13.805z"/>
		</g>
	</g>
	<g>
		<path fill="#FFFFFF" d="M4.998,41.619c0-0.743-0.507-1.181-1.154-1.181c-1.601,0-1.995,1.785-1.995,2.774
			c0,0.874,0.402,1.6,1.487,1.6c0.647,0,1.242-0.315,1.452-1.163h1.33c-0.351,1.435-1.312,2.301-2.835,2.301
			c-2.091,0-2.747-1.593-2.747-2.799c0-1.795,1.076-3.798,3.352-3.798c1.426,0,2.423,0.788,2.423,2.266H4.998z"/>
		<path fill="#FFFFFF" d="M10.701,39.511h1.53l0.797,6.28h-1.294l-0.114-1.232H9.407l-0.604,1.232H7.413L10.701,39.511z
			 M11.261,40.823h-0.019l-1.303,2.65h1.574L11.261,40.823z"/>
		<path fill="#FFFFFF" d="M16.011,39.511h2.458c1.592,0,2.178,0.612,2.178,1.636c0,0.647-0.324,1.198-1.031,1.436
			c0.472,0.253,0.761,0.594,0.761,1.215c0,1.259-0.831,1.994-2.345,1.994h-3.158L16.011,39.511z M16.377,44.708h1.61
			c0.797,0,1.076-0.533,1.076-0.927c0-0.534-0.376-0.762-0.927-0.762h-1.453L16.377,44.708z M16.868,41.986h1.514
			c0.621,0,0.953-0.279,0.953-0.795c0-0.465-0.35-0.595-0.812-0.595h-1.4L16.868,41.986z"/>
		<path fill="#FFFFFF" d="M26.788,45.792h-4.26l1.137-6.28h1.303l-0.918,5.17h2.932L26.788,45.792z"/>
		<path fill="#FFFFFF" d="M29.885,39.511h4.172l-0.191,1.084h-2.888l-0.245,1.39h2.651l-0.192,1.087h-2.643l-0.289,1.635h3.027
			l-0.193,1.084h-4.347L29.885,39.511z"/>
		<path fill="#FFFFFF" d="M42.901,39.353c2.092,0,2.748,1.592,2.748,2.8c0,1.794-1.076,3.797-3.352,3.797
			c-2.09,0-2.747-1.593-2.747-2.799C39.55,41.356,40.626,39.353,42.901,39.353z M42.342,44.865c1.601,0,1.994-1.785,1.994-2.772
			c0-1.155-0.691-1.654-1.479-1.654c-1.602,0-1.994,1.785-1.994,2.774C40.864,44.367,41.554,44.865,42.342,44.865z"/>
		<path fill="#FFFFFF" d="M51.439,43.527l0.149,0.41l0.191-1.242l0.543-3.184h1.268l-1.128,6.28h-1.356l-1.514-3.832l-0.227-0.62
			l-0.113,0.858l-0.587,3.594h-1.304l1.155-6.28h1.365L51.439,43.527z"/>
		<path fill="#FFFFFF" d="M56.215,39.511h2.116c1.82,0,2.607,0.875,2.607,2.693c0,1.339-0.683,2.617-1.645,3.177
			c-0.673,0.393-1.724,0.41-1.759,0.41h-2.432L56.215,39.511z M56.618,44.637h1.119c1.4,0,1.89-1.469,1.89-2.537
			c0-0.988-0.42-1.495-1.304-1.495h-0.997L56.618,44.637z"/>
		<path fill="#FFFFFF" d="M65.4,39.511h1.531l0.796,6.28h-1.294l-0.114-1.232h-2.214l-0.603,1.232h-1.391L65.4,39.511z
			 M65.96,40.823h-0.018l-1.304,2.65h1.574L65.96,40.823z"/>
		<path fill="#FFFFFF" d="M77.157,41.331c0-0.438-0.209-0.893-1.031-0.893c-0.508,0-0.919,0.228-0.919,0.709
			c0,0.333,0.122,0.517,1.225,0.937c1.05,0.402,1.628,0.953,1.628,1.889c0,1.216-0.822,1.978-2.363,1.978
			c-1.381,0-2.326-0.665-2.326-2.117h1.26c0.018,0.787,0.508,1.032,1.119,1.032c0.57,0,1.051-0.262,1.051-0.77
			c0-0.463-0.219-0.648-1.27-1.067c-0.944-0.376-1.583-0.824-1.583-1.776c0-1.312,1.042-1.899,2.214-1.899
			c2.187,0,2.239,1.506,2.257,1.978H77.157z"/>
		<path fill="#FFFFFF" d="M81.18,39.511h2.161c1.628,0,2.214,0.857,2.214,1.812c0,1.417-0.857,2.283-2.546,2.283H81.75l-0.395,2.186
			h-1.312L81.18,39.511z M81.951,42.52h1.163c0.832,0,1.182-0.481,1.182-1.067c0-0.472-0.193-0.857-0.893-0.857h-1.102L81.951,42.52
			z"/>
		<path fill="#FFFFFF" d="M90.909,39.353c2.09,0,2.746,1.592,2.746,2.8c0,1.794-1.076,3.797-3.35,3.797
			c-2.092,0-2.746-1.593-2.746-2.799C87.559,41.356,88.633,39.353,90.909,39.353z M90.349,44.865c1.601,0,1.995-1.785,1.995-2.772
			c0-1.155-0.691-1.654-1.479-1.654c-1.602,0-1.996,1.785-1.996,2.774C88.87,44.367,89.561,44.865,90.349,44.865z"/>
		<path fill="#FFFFFF" d="M96.586,39.511h2.389c1.268,0,2.186,0.473,2.186,1.819c0,0.874-0.507,1.427-1.164,1.609
			c0.211,0.088,0.561,0.236,0.561,0.989c0,0.174-0.078,0.944-0.078,1.093c0,0.377,0.018,0.509,0.297,0.605v0.165h-1.521
			c-0.053-0.14-0.098-0.288-0.098-0.446c0-0.368,0.053-0.726,0.07-1.094c0-0.471-0.052-0.891-0.909-0.891H97.19l-0.412,2.431h-1.312
			L96.586,39.511z M97.374,42.311h1.26c0.927,0,1.233-0.561,1.233-1.016c0-0.724-0.7-0.724-0.962-0.724h-1.227L97.374,42.311z"/>
		<path fill="#FFFFFF" d="M104.834,40.596h-1.661l0.2-1.084h4.453l-0.201,1.084h-1.479l-0.945,5.196h-1.312L104.834,40.596z"/>
		<path fill="#FFFFFF" d="M112.795,41.331c0-0.438-0.209-0.893-1.033-0.893c-0.506,0-0.918,0.228-0.918,0.709
			c0,0.333,0.123,0.517,1.225,0.937c1.051,0.402,1.629,0.953,1.629,1.889c0,1.216-0.824,1.978-2.363,1.978
			c-1.381,0-2.326-0.665-2.326-2.117h1.26c0.018,0.787,0.506,1.032,1.119,1.032c0.568,0,1.051-0.262,1.051-0.77
			c0-0.463-0.219-0.648-1.27-1.067c-0.945-0.376-1.584-0.824-1.584-1.776c0-1.312,1.041-1.899,2.215-1.899
			c2.186,0,2.238,1.506,2.256,1.978H112.795z"/>
	</g>
</g>
</svg>
