<?xml version="1.0" encoding="utf-8"?>
<!-- Generator: Adobe Illustrator 16.0.0, SVG Export Plug-In . SVG Version: 6.00 Build 0)  -->
<!DOCTYPE svg PUBLIC "-//W3C//DTD SVG 1.1//EN" "http://www.w3.org/Graphics/SVG/1.1/DTD/svg11.dtd">
<svg version="1.1" id="Layer_1" xmlns="http://www.w3.org/2000/svg" xmlns:xlink="http://www.w3.org/1999/xlink" x="0px" y="0px"
	 width="327.214px" height="71.375px" viewBox="32.181 0 327.214 71.375" enable-background="new 32.181 0 327.214 71.375"
	 xml:space="preserve">
<g>
	<linearGradient id="SVGID_1_" gradientUnits="userSpaceOnUse" x1="-57.469" y1="35.6938" x2="103.0862" y2="35.6938">
		<stop  offset="0" style="stop-color:#F1002F"/>
		<stop  offset="0.1828" style="stop-color:#CC4E1F"/>
		<stop  offset="1" style="stop-color:#FF9300"/>
	</linearGradient>
	<path fill="url(#SVGID_1_)" d="M100.359,9.917V0.006H81.984H70.579h-5.286L57.085,47.59L49.47,0.006H32.181v71.375h10.667
		l0.318-50.519l8.763,50.519h10.784c0.795-5.152,2.182-13.521,4.163-25.1c1.643-9.584,2.876-16.96,3.702-22.144v47.244h0.781h10.624
		h18.375v-9.914H85.014V39.499h10.864v-10.15H85.014V9.917H100.359z"/>
	<linearGradient id="SVGID_2_" gradientUnits="userSpaceOnUse" x1="23.4475" y1="35.6938" x2="194.398" y2="35.6938">
		<stop  offset="0" style="stop-color:#F1002F"/>
		<stop  offset="0.1828" style="stop-color:#CC4E1F"/>
		<stop  offset="1" style="stop-color:#FF9300"/>
	</linearGradient>
	<path fill="url(#SVGID_2_)" d="M177.447,9.917V0.006h-18.876h-10.905h-5.793l-8.205,47.584L126.05,0.006h-17.286v71.375h10.665
		l0.32-50.519l8.76,50.519h10.784c0.795-5.152,2.186-13.521,4.17-25.1c1.978-11.578,3.367-19.947,4.162-25.101l0.04,6.392v43.809
		h0.274h10.631h18.876v-9.914h-15.348V39.499h10.871v-10.15h-10.871V9.917H177.447z"/>
	<path fill="#444444" d="M198.08,71.43V10.747h-10.484V-0.056h35.227v10.803h-10.285V71.43H198.08z"/>
	<path fill="#444444" d="M231.761,71.43V-0.056h29.826v9.93h-15.369v19.459h10.881V39.5h-10.881v22.002h15.369v9.928H231.761z"/>
	<path fill="#444444" d="M269.97,47.561V23.892c0-16.891,6.91-25.338,20.73-25.338c2.912,0,5.5,0.392,7.764,1.172
		c2.264,0.781,4.164,1.861,5.699,3.238s2.801,3.07,3.793,5.082c0.994,2.013,1.707,4.197,2.145,6.553
		c0.438,2.357,0.656,4.951,0.656,7.784v6.155h-14.219v-6.592c0-1.297-0.025-2.416-0.08-3.355c-0.053-0.939-0.191-2.012-0.416-3.217
		c-0.225-1.204-0.531-2.185-0.914-2.939c-0.385-0.754-0.953-1.396-1.707-1.926c-0.756-0.529-1.662-0.795-2.721-0.795
		c-4.184,0-6.275,3.521-6.275,10.564v30.859c0,7.016,2.092,10.523,6.275,10.523c1.244,0,2.289-0.357,3.137-1.072
		s1.457-1.729,1.828-3.039s0.621-2.594,0.754-3.852s0.199-2.693,0.199-4.309v-7.348h14.139v6.035
		c-0.055,2.729-0.279,5.244-0.676,7.547s-1.072,4.541-2.025,6.713c-0.953,2.17-2.166,4.004-3.635,5.5s-3.369,2.701-5.699,3.613
		c-2.33,0.914-5.002,1.371-8.021,1.371c-3.098,0-5.846-0.445-8.242-1.33c-2.395-0.889-4.367-2.08-5.916-3.576
		c-1.549-1.494-2.826-3.336-3.832-5.52c-1.008-2.184-1.715-4.48-2.125-6.891C270.176,53.096,269.97,50.448,269.97,47.561z"/>
	<path fill="#444444" d="M315.75,71.43l15.449-71.486h12.787l15.41,71.486h-14.258l-2.939-15.291h-9.332l-2.779,15.291H315.75z
		 M333.859,47.245h7.387l-3.613-26.529L333.859,47.245z"/>
</g>
</svg>
