<?xml version="1.0" encoding="utf-8"?>
<!-- Generator: Adobe Illustrator 16.0.0, SVG Export Plug-In . SVG Version: 6.00 Build 0)  -->
<!DOCTYPE svg PUBLIC "-//W3C//DTD SVG 1.1//EN" "http://www.w3.org/Graphics/SVG/1.1/DTD/svg11.dtd">
<svg version="1.1" id="Layer_1" xmlns="http://www.w3.org/2000/svg" xmlns:xlink="http://www.w3.org/1999/xlink" x="0px" y="0px"
	 width="366.984px" height="71.375px" viewBox="0 0 366.984 71.375" enable-background="new 0 0 366.984 71.375"
	 xml:space="preserve">
<g>
	
		<linearGradient id="SVGID_1_" gradientUnits="userSpaceOnUse" x1="-89.6504" y1="36.688" x2="70.9048" y2="36.688" gradientTransform="matrix(1 0 0 -1 0 72.376)">
		<stop  offset="0" style="stop-color:#F1002F"/>
		<stop  offset="0.1828" style="stop-color:#CC4E1F"/>
		<stop  offset="1" style="stop-color:#FF9300"/>
	</linearGradient>
	<path fill="url(#SVGID_1_)" d="M68.178,9.912V0H49.803H38.398h-5.286l-8.208,47.584L17.289,0H0v71.375h10.667l0.318-50.519
		l8.763,50.519h10.784c0.795-5.151,2.182-13.521,4.163-25.1c1.643-9.584,2.876-16.961,3.702-22.145v47.244h0.781h10.624h18.375
		v-9.916H52.832V39.493h10.864v-10.15H52.832V9.912H68.178z"/>
	
		<linearGradient id="SVGID_2_" gradientUnits="userSpaceOnUse" x1="-8.7344" y1="36.688" x2="162.2173" y2="36.688" gradientTransform="matrix(1 0 0 -1 0 72.376)">
		<stop  offset="0" style="stop-color:#F1002F"/>
		<stop  offset="0.1828" style="stop-color:#CC4E1F"/>
		<stop  offset="1" style="stop-color:#FF9300"/>
	</linearGradient>
	<path fill="url(#SVGID_2_)" d="M145.266,9.912V0H126.39h-10.905h-5.793l-8.205,47.584L93.869,0H76.583v71.375h10.665l0.32-50.519
		l8.76,50.519h10.784c0.795-5.151,2.186-13.521,4.17-25.1c1.978-11.578,3.367-19.947,4.162-25.102l0.04,6.392v43.81h0.274h10.632
		h18.876v-9.914h-15.348V39.493h10.871v-10.15h-10.871V9.912H145.266z"/>
	<path fill="#444444" d="M155.415,71.375V0h17.249c6.211,0,10.734,1.732,13.561,5.195c2.83,3.463,4.244,8.472,4.244,15.027
		c0,3.226-0.311,6.03-0.932,8.407c-0.623,2.379-1.488,4.342-2.598,5.889c-1.107,1.546-2.539,2.79-4.282,3.729
		c-1.744,0.938-3.635,1.6-5.67,1.981c-2.038,0.385-4.39,0.59-7.06,0.614v30.533H155.415z M169.969,30.652
		c0.765,0,1.446-0.047,2.041-0.139c0.595-0.093,1.115-0.198,1.566-0.317c0.451-0.119,0.846-0.337,1.189-0.656
		c0.344-0.313,0.628-0.592,0.852-0.832c0.225-0.238,0.418-0.625,0.575-1.168c0.16-0.541,0.28-0.984,0.357-1.328
		c0.08-0.344,0.141-0.897,0.181-1.666c0.04-0.768,0.06-1.381,0.06-1.844c0-0.461,0-1.184,0-2.163c0-0.265,0-0.461,0-0.595
		c0-1.031-0.01-1.812-0.02-2.339c-0.017-0.528-0.061-1.203-0.141-2.023c-0.08-0.818-0.204-1.432-0.378-1.841
		c-0.17-0.412-0.42-0.879-0.751-1.409c-0.331-0.53-0.735-0.913-1.21-1.151c-0.478-0.237-1.079-0.449-1.804-0.635
		c-0.729-0.183-1.567-0.276-2.519-0.276v20.382H169.969z"/>
	<path fill="#444444" d="M201.922,71.375V0h29.779v9.912h-15.348v19.43h10.867v10.15h-10.867v21.969h15.349v9.914H201.922z"/>
	<path fill="#444444" d="M246.258,71.375V0h14.91c4.758,0,8.678,0.428,11.758,1.288c3.08,0.86,5.498,2.274,7.256,4.242
		c1.758,1.973,2.973,4.331,3.648,7.081c0.674,2.75,1.012,6.251,1.012,10.509v23.395c0,2.537-0.08,4.752-0.236,6.643
		c-0.16,1.891-0.459,3.742-0.896,5.553c-0.435,1.812-1.028,3.345-1.783,4.599c-0.752,1.256-1.725,2.426-2.913,3.511
		c-1.189,1.084-2.621,1.941-4.304,2.577c-1.678,0.636-3.647,1.124-5.905,1.468c-2.263,0.344-4.857,0.516-7.796,0.516h-14.751V71.375
		z M261.248,61.265c1.373,0,2.457-0.021,3.252-0.062c0.791-0.039,1.586-0.136,2.379-0.297c0.791-0.156,1.373-0.375,1.742-0.654
		c0.371-0.276,0.717-0.68,1.033-1.209c0.318-0.528,0.52-1.155,0.615-1.881c0.09-0.729,0.137-1.635,0.137-2.717V16.02
		c0-2.353-0.699-3.913-2.102-4.678c-1.4-0.768-3.753-1.164-7.058-1.188L261.248,61.265L261.248,61.265z"/>
	<path fill="#444444" d="M298.393,71.375V0h14.435v71.375H298.393z"/>
	<path fill="#444444" d="M323.406,71.375L338.832,0H351.6l15.385,71.375H352.75l-2.934-15.266h-9.322l-2.771,15.266H323.406z
		 M341.486,47.226h7.377l-3.607-26.488L341.486,47.226z"/>
</g>
</svg>
