<?xml version="1.0" encoding="utf-8"?>
<!-- Generator: Adobe Illustrator 16.0.0, SVG Export Plug-In . SVG Version: 6.00 Build 0)  -->
<!DOCTYPE svg PUBLIC "-//W3C//DTD SVG 1.1//EN" "http://www.w3.org/Graphics/SVG/1.1/DTD/svg11.dtd">
<svg version="1.1" id="Layer_1" xmlns="http://www.w3.org/2000/svg" xmlns:xlink="http://www.w3.org/1999/xlink" x="0px" y="0px"
	 width="366.984px" height="71.376px" viewBox="-133 14 366.984 71.376" enable-background="new -133 14 366.984 71.376"
	 xml:space="preserve">
<g>
	<linearGradient id="SVGID_1_" gradientUnits="userSpaceOnUse" x1="-222.6504" y1="49.688" x2="-62.0952" y2="49.688">
		<stop  offset="0" style="stop-color:#F1002F"/>
		<stop  offset="0.1828" style="stop-color:#CC4E1F"/>
		<stop  offset="1" style="stop-color:#FF9300"/>
	</linearGradient>
	<path fill="url(#SVGID_1_)" d="M-64.822,23.912V14h-18.375h-11.405h-5.286l-8.208,47.584L-115.711,14H-133v71.376h10.667
		l0.318-50.519l8.763,50.519h10.784c0.795-5.152,2.182-13.521,4.163-25.1c1.643-9.584,2.876-16.961,3.702-22.145v47.244h0.781
		h10.624h18.375v-9.915h-15.345V53.493h10.864v-10.15h-10.864V23.912H-64.822z"/>
	<linearGradient id="SVGID_2_" gradientUnits="userSpaceOnUse" x1="-141.7344" y1="49.688" x2="29.2173" y2="49.688">
		<stop  offset="0" style="stop-color:#F1002F"/>
		<stop  offset="0.1828" style="stop-color:#CC4E1F"/>
		<stop  offset="1" style="stop-color:#FF9300"/>
	</linearGradient>
	<path fill="url(#SVGID_2_)" d="M12.266,23.912V14H-6.61h-10.905h-5.793l-8.205,47.584L-39.131,14h-17.286v71.376h10.665
		l0.32-50.519l8.76,50.519h10.784c0.795-5.152,2.186-13.521,4.17-25.1c1.978-11.579,3.367-19.948,4.162-25.102l0.04,6.392v43.81
		h0.274H-6.61h18.876v-9.915H-3.082V53.493H7.789v-10.15H-3.082V23.912H12.266z"/>
	<path fill="#444444" d="M22.415,85.376V14h17.249c6.211,0,10.734,1.732,13.561,5.195c2.83,3.463,4.244,8.472,4.244,15.027
		c0,3.226-0.311,6.03-0.932,8.407c-0.623,2.38-1.488,4.342-2.598,5.889c-1.107,1.546-2.539,2.79-4.282,3.728
		c-1.744,0.938-3.635,1.6-5.67,1.982c-2.038,0.385-4.39,0.59-7.06,0.615v30.533H22.415z M36.969,44.652
		c0.765,0,1.446-0.047,2.041-0.139c0.595-0.092,1.115-0.198,1.566-0.317c0.451-0.12,0.846-0.337,1.189-0.656
		c0.344-0.314,0.628-0.593,0.852-0.832c0.225-0.238,0.418-0.625,0.575-1.169c0.16-0.541,0.28-0.984,0.357-1.328
		c0.08-0.343,0.141-0.897,0.181-1.666c0.04-0.767,0.06-1.381,0.06-1.844c0-0.461,0-1.183,0-2.162c0-0.265,0-0.461,0-0.595
		c0-1.031-0.01-1.812-0.02-2.339c-0.017-0.528-0.061-1.203-0.141-2.023c-0.08-0.818-0.204-1.432-0.378-1.841
		c-0.17-0.412-0.42-0.879-0.751-1.409s-0.735-0.913-1.21-1.151c-0.478-0.237-1.079-0.449-1.804-0.635
		c-0.729-0.183-1.567-0.276-2.519-0.276V44.652z"/>
	<path fill="#444444" d="M68.922,85.376V14h29.779v9.912H83.354v19.431h10.867v10.15H83.354v21.968h15.348v9.915H68.922z"/>
	<path fill="#444444" d="M113.258,85.376V14h14.91c4.758,0,8.678,0.428,11.758,1.288c3.08,0.86,5.498,2.274,7.256,4.242
		c1.758,1.973,2.973,4.331,3.648,7.081c0.674,2.75,1.012,6.251,1.012,10.509v23.394c0,2.538-0.08,4.752-0.236,6.643
		c-0.16,1.89-0.459,3.742-0.896,5.553c-0.434,1.811-1.029,3.344-1.783,4.598c-0.752,1.256-1.725,2.426-2.914,3.511
		c-1.189,1.084-2.621,1.942-4.303,2.577c-1.678,0.635-3.648,1.124-5.906,1.467c-2.262,0.344-4.857,0.516-7.795,0.516H113.258z
		 M128.248,75.265c1.373,0,2.457-0.02,3.252-0.061c0.791-0.039,1.586-0.136,2.379-0.297c0.791-0.156,1.373-0.375,1.742-0.654
		c0.371-0.277,0.717-0.68,1.033-1.209c0.318-0.529,0.52-1.156,0.615-1.881c0.09-0.729,0.137-1.635,0.137-2.717V30.02
		c0-2.353-0.699-3.913-2.102-4.678c-1.4-0.768-3.752-1.164-7.057-1.188V75.265z"/>
	<path fill="#444444" d="M165.393,85.376V14h14.434v71.376H165.393z"/>
	<path fill="#444444" d="M190.406,85.376L205.832,14H218.6l15.385,71.376H219.75l-2.934-15.266h-9.322l-2.771,15.266H190.406z
		 M208.486,61.226h7.377l-3.607-26.488L208.486,61.226z"/>
</g>
</svg>
