<?xml version="1.0" encoding="utf-8"?>
<!-- Generator: Adobe Illustrator 16.0.0, SVG Export Plug-In . SVG Version: 6.00 Build 0)  -->
<!DOCTYPE svg PUBLIC "-//W3C//DTD SVG 1.1//EN" "http://www.w3.org/Graphics/SVG/1.1/DTD/svg11.dtd">
<svg version="1.1" id="Layer_1" xmlns="http://www.w3.org/2000/svg" xmlns:xlink="http://www.w3.org/1999/xlink" x="0px" y="0px"
	 width="321.353px" height="72.749px" viewBox="0 -1.374 321.353 72.749" enable-background="new 0 -1.374 321.353 72.749"
	 xml:space="preserve">
<g>
	<g opacity="0.75">
		<path d="M163.309,70.924v-59.37H153.05V0.985h34.464v10.569h-10.062v59.37H163.309z"/>
		<path d="M196.26,70.924V0.985h29.18V10.7h-15.035v19.039h10.645v9.947h-10.645v21.524h15.035v9.713H196.26z"/>
		<path d="M233.642,47.572V24.415c0-16.526,6.762-24.789,20.282-24.789c2.85,0,5.381,0.383,7.597,1.146
			c2.213,0.764,4.071,1.82,5.575,3.167c1.501,1.347,2.739,3.005,3.711,4.974c0.972,1.968,1.669,4.105,2.099,6.411
			c0.427,2.305,0.642,4.844,0.642,7.615v6.022h-13.912v-6.449c0-1.269-0.023-2.363-0.078-3.284
			c-0.052-0.919-0.188-1.967-0.407-3.146c-0.22-1.179-0.519-2.137-0.896-2.875c-0.375-0.738-0.931-1.366-1.669-1.885
			c-0.739-0.518-1.625-0.777-2.661-0.777c-4.094,0-6.14,3.445-6.14,10.335v30.192c0,6.862,2.046,10.295,6.14,10.295
			c1.217,0,2.239-0.35,3.068-1.048c0.831-0.701,1.426-1.691,1.79-2.974c0.362-1.282,0.607-2.538,0.737-3.769
			s0.194-2.636,0.194-4.216v-7.188h13.833v5.905c-0.054,2.669-0.274,5.131-0.661,7.384c-0.388,2.253-1.05,4.443-1.981,6.564
			c-0.934,2.126-2.12,3.919-3.557,5.385c-1.437,1.464-3.297,2.641-5.577,3.535c-2.278,0.893-4.893,1.339-7.847,1.339
			c-3.03,0-5.72-0.435-8.064-1.301c-2.342-0.867-4.272-2.034-5.788-3.498c-1.515-1.462-2.764-3.264-3.748-5.4
			c-0.985-2.137-1.678-4.384-2.08-6.741C233.843,52.986,233.642,50.397,233.642,47.572z"/>
		<path d="M278.43,70.924l15.116-69.938h12.511l15.074,69.938h-13.948l-2.875-14.958h-9.13l-2.722,14.958H278.43z M296.148,47.263
			h7.227l-3.533-25.955L296.148,47.263z"/>
		<path d="M67.703,10.743V1.046H49.725H38.567h-5.172L25.365,47.6L17.916,1.046H1v69.832h10.436l0.312-49.426l8.574,49.426h10.551
			c0.778-5.042,2.134-13.23,4.072-24.557c1.607-9.377,2.814-16.595,3.623-21.666v46.222h0.765h10.394h17.978v-9.701H52.689V39.685
			h10.63v-9.93h-10.63V10.743H67.703z"/>
		<path d="M143.122,10.743V1.046h-18.469h-10.668h-5.667L100.29,47.6L92.837,1.046H75.926v69.832H86.36l0.313-49.426l8.57,49.426
			h10.55c0.777-5.042,2.138-13.23,4.08-24.557c1.936-11.328,3.294-19.517,4.072-24.558l0.04,6.253v42.862h0.268h10.4h18.469v-9.701
			h-15.016V39.685h10.636v-9.93h-10.636V10.743H143.122z"/>
	</g>
	<g>
		<g>
			<path fill="#FFFFFF" d="M162.309,69.924v-59.37H152.05V-0.015h34.464v10.569h-10.062v59.37H162.309z"/>
			<path fill="#FFFFFF" d="M195.26,69.924V-0.015h29.18V9.7h-15.035v19.039h10.645v9.947h-10.645v21.524h15.035v9.713H195.26z"/>
			<path fill="#FFFFFF" d="M232.642,46.572V23.415c0-16.526,6.762-24.789,20.282-24.789c2.85,0,5.381,0.383,7.597,1.146
				c2.213,0.764,4.071,1.82,5.575,3.167c1.501,1.347,2.739,3.005,3.711,4.974c0.972,1.968,1.669,4.105,2.099,6.411
				c0.427,2.305,0.642,4.844,0.642,7.615v6.022h-13.912v-6.449c0-1.269-0.023-2.363-0.078-3.284
				c-0.052-0.919-0.188-1.967-0.407-3.146c-0.22-1.179-0.519-2.137-0.896-2.875c-0.375-0.738-0.931-1.366-1.669-1.885
				c-0.739-0.518-1.625-0.777-2.661-0.777c-4.094,0-6.14,3.445-6.14,10.335v30.192c0,6.862,2.046,10.295,6.14,10.295
				c1.217,0,2.239-0.35,3.068-1.048c0.831-0.701,1.426-1.691,1.79-2.974c0.362-1.282,0.607-2.538,0.737-3.769
				s0.194-2.636,0.194-4.216v-7.188h13.833v5.905c-0.054,2.669-0.274,5.131-0.661,7.384c-0.388,2.253-1.05,4.443-1.981,6.564
				c-0.934,2.126-2.12,3.919-3.557,5.385c-1.437,1.464-3.297,2.641-5.577,3.535c-2.278,0.893-4.893,1.339-7.847,1.339
				c-3.03,0-5.72-0.435-8.064-1.301c-2.342-0.867-4.272-2.034-5.788-3.498c-1.515-1.462-2.764-3.264-3.748-5.4
				c-0.985-2.137-1.678-4.384-2.08-6.741C232.843,51.986,232.642,49.397,232.642,46.572z"/>
			<path fill="#FFFFFF" d="M277.43,69.924l15.116-69.938h12.511l15.074,69.938h-13.948l-2.875-14.958h-9.13l-2.722,14.958H277.43z
				 M295.148,46.263h7.227l-3.533-25.955L295.148,46.263z"/>
			<g>
				<path fill="#FFFFFF" d="M66.703,9.743V0.046H48.725H37.567h-5.172L24.365,46.6L16.916,0.046H0v69.832h10.436l0.312-49.426
					l8.574,49.426h10.551c0.778-5.042,2.134-13.23,4.072-24.557c1.607-9.377,2.814-16.595,3.623-21.666v46.222h0.765h10.394h17.978
					v-9.701H51.689V38.685h10.63v-9.93h-10.63V9.743H66.703z"/>
				<path fill="#FFFFFF" d="M142.122,9.743V0.046h-18.469h-10.668h-5.667L99.29,46.6L91.837,0.046H74.926v69.832H85.36l0.313-49.426
					l8.57,49.426h10.55c0.777-5.042,2.138-13.23,4.08-24.557c1.936-11.328,3.294-19.517,4.072-24.558l0.04,6.253v42.862h0.268h10.4
					h18.469v-9.701h-15.016V38.685h10.636v-9.93h-10.636V9.743H142.122z"/>
			</g>
		</g>
	</g>
</g>
</svg>
