<?xml version="1.0" encoding="utf-8"?>
<!-- Generator: Adobe Illustrator 16.0.0, SVG Export Plug-In . SVG Version: 6.00 Build 0)  -->
<!DOCTYPE svg PUBLIC "-//W3C//DTD SVG 1.1//EN" "http://www.w3.org/Graphics/SVG/1.1/DTD/svg11.dtd">
<svg version="1.1" id="Capa_1" xmlns="http://www.w3.org/2000/svg" xmlns:xlink="http://www.w3.org/1999/xlink" x="0px" y="0px"
	 width="200px" height="23.852px" viewBox="0 88.074 200 23.852" enable-background="new 0 88.074 200 23.852" xml:space="preserve"
	>
<g>
	<path fill="#EA2429" d="M6.858,88.504l-6.525,22.992h4.842l1.453-5.139h5.314l1.458,5.139h4.841l-6.558-22.992H6.858z
		 M10.73,102.08H7.8l1.476-5.132L10.73,102.08z"/>
	<path fill="#EA2429" d="M36.642,103.301l4.696,0.277c-0.101,0.408-0.212,0.752-0.332,1.021c-0.171,0.393-0.438,0.793-0.79,1.195
		c-0.338,0.385-0.795,0.719-1.358,0.992c-0.555,0.268-1.123,0.404-1.69,0.404c-0.761,0-1.456-0.238-2.127-0.729
		c-0.669-0.486-1.183-1.209-1.529-2.152c-0.361-0.984-0.543-2.469-0.543-4.412c0-2.728,0.427-4.616,1.27-5.613
		c0.833-0.982,1.864-1.461,3.155-1.461c1.072,0,1.918,0.354,2.584,1.081c0.477,0.526,0.88,1.353,1.199,2.451l0.165,0.57l3.99-1.563
		l-0.108-0.457c-0.305-1.282-0.69-2.309-1.144-3.048c-0.705-1.162-1.648-2.092-2.806-2.766c-1.161-0.676-2.518-1.019-4.03-1.019
		c-1.647,0-3.215,0.436-4.662,1.293c-1.458,0.865-2.617,2.22-3.445,4.027c-0.817,1.777-1.23,4.145-1.23,7.036
		c0,2.781,0.396,5.019,1.176,6.656c0.791,1.658,1.832,2.895,3.097,3.672c1.261,0.775,2.601,1.168,3.985,1.168
		c1.348,0,2.628-0.357,3.799-1.061l0.049-0.029c2.062-1.197,3.692-4.15,4.272-6.631l3.794,1.764l-3.601-8.182L36.642,103.301z"/>
	<path fill="#EA2429" d="M53.473,88.504l-6.526,22.992h4.84l1.454-5.139h5.315l1.457,5.139h4.842l-6.559-22.992H53.473z
		 M57.345,102.08h-2.931l1.477-5.132L57.345,102.08z"/>
	<polygon fill="#EA2429" points="79.003,88.504 63.365,88.504 63.365,93.353 68.747,93.353 68.747,111.496 73.595,111.496 
		73.595,93.353 79.003,93.353 	"/>
	<path fill="#EA2429" d="M84.19,88.504l-6.526,22.992h4.841l1.453-5.139h5.316l1.456,5.139h4.843l-6.559-22.992H84.19z
		 M88.061,102.08h-2.93l1.476-5.132L88.061,102.08z"/>
	<path fill="#EA2429" d="M118.637,89.984c-1.391-0.982-2.99-1.48-4.752-1.48h-7.518v22.992h6.9c1.232,0,2.42-0.211,3.529-0.629
		c1.119-0.42,2.047-0.98,2.762-1.672c0.973-0.949,1.777-2.262,2.393-3.9c0.609-1.623,0.918-3.465,0.918-5.481
		c0-2.027-0.357-3.939-1.062-5.68C121.09,92.359,120.021,90.963,118.637,89.984z M113.346,106.576h-2.068V93.283h1.303
		c1.535,0,2.76,0.558,3.74,1.707c0.986,1.157,1.488,2.747,1.488,4.725c0,1.473-0.271,2.852-0.811,4.098
		c-0.355,0.838-0.865,1.518-1.51,2.025C114.857,106.336,114.154,106.576,113.346,106.576z"/>
	<path fill="#EA2429" d="M138.186,89.187c-1.186-0.739-2.752-1.113-4.652-1.113c-1.182,0-2.293,0.247-3.305,0.735
		c-1.006,0.486-1.9,1.19-2.652,2.096c-0.744,0.895-1.307,1.877-1.67,2.913c-0.65,1.827-0.982,3.911-0.982,6.196
		c0,3.826,0.832,6.789,2.475,8.812c1.666,2.057,3.885,3.1,6.586,3.1c2.678,0,4.863-1.025,6.494-3.051
		c1.602-1.988,2.416-4.932,2.416-8.745c0-2.797-0.4-5.098-1.191-6.841C140.902,91.518,139.717,90.137,138.186,89.187z
		 M134.01,107.02c-1.166,0-2.1-0.504-2.855-1.539c-0.785-1.076-1.182-2.912-1.182-5.466c0-2.602,0.393-4.472,1.166-5.555
		c0.742-1.043,1.65-1.549,2.771-1.549c1.047,0,1.893,0.397,2.584,1.211c0.938,1.106,1.416,3.104,1.416,5.936
		c0,2.535-0.393,4.363-1.166,5.431C136,106.518,135.105,107.02,134.01,107.02z"/>
	<path fill="#EA2429" d="M166.883,89.984c-1.393-0.982-2.992-1.48-4.754-1.48h-7.516v22.992h6.902c1.229,0,2.418-0.211,3.527-0.629
		c1.117-0.42,2.045-0.98,2.76-1.672c0.973-0.949,1.777-2.262,2.393-3.9c0.611-1.625,0.92-3.467,0.92-5.481
		c0-2.026-0.357-3.938-1.062-5.68C169.334,92.359,168.268,90.963,166.883,89.984z M161.59,106.576h-2.066V93.283h1.301
		c1.537,0,2.76,0.558,3.74,1.707c0.988,1.157,1.488,2.747,1.488,4.725c0,1.473-0.273,2.854-0.811,4.098
		c-0.354,0.838-0.861,1.518-1.51,2.025C163.102,106.336,162.4,106.576,161.59,106.576z"/>
	<rect x="174.512" y="88.504" fill="#EA2429" width="4.848" height="22.992"/>
	<path fill="#EA2429" d="M193.109,88.504h-4.826l-6.525,22.992h4.844l1.451-5.139h5.316l1.457,5.139h4.842L193.109,88.504z
		 M192.156,102.08h-2.93l1.477-5.132L192.156,102.08z"/>
</g>
</svg>
