<?xml version="1.0" encoding="utf-8"?>
<!-- Generator: Adobe Illustrator 16.0.0, SVG Export Plug-In . SVG Version: 6.00 Build 0)  -->
<!DOCTYPE svg PUBLIC "-//W3C//DTD SVG 1.1//EN" "http://www.w3.org/Graphics/SVG/1.1/DTD/svg11.dtd">
<svg version="1.1" id="Layer_1" xmlns="http://www.w3.org/2000/svg" xmlns:xlink="http://www.w3.org/1999/xlink" x="0px" y="0px"
	 width="100px" height="100px" viewBox="0 0 100 100" enable-background="new 0 0 100 100" xml:space="preserve">
<g>
	<path fill="#3B9444" d="M63.473,91.067c-1.401,0-7.023,0-7.023,0s0-0.935-3.74,0c-3.745,0.938-2.339-0.935-7.49,0
		c-5.146,0.938-5.146,0.938-5.146,0.938s2.34,2.386-4.683-0.68c-7.015-3.069-4.675-2.131-7.015-3.069
		c-2.344-0.935,0.467-2.259-4.216-3.47c-4.679-1.21-4.679-1.21-4.679-1.21l-2.806-3.27c0,0,2.433,2.718,0-1.876
		c-2.438-4.59-1.38-2.213-0.565-5.881c0.815-3.669,0.217-4.671,0.217-4.671l-1.006-1.694l-1.083-4.263c0,0,0.959-1.516,1.953-5.651
		s-0.955-4.441-0.955-4.441s2.314-0.998-1.439-1.83c-3.753-0.828-1.452-7.014-4.611-5.503c-3.159,1.516,0.008-1.996-3.273-3.036
		c-3.291-1.044-2.047-1.482-2.047-3.715c0-2.242-0.403-5.159-0.403-5.159s-0.611-0.029,0.157-2.254
		c0.781-2.225,1.287-2.484,2.339-3.788c1.058-1.308,3.325-4.993,3.325-4.993s1.401,1.35,3.176,0c1.779-1.35,1.779-1.35,1.779-1.35
		s3.032-2.183,4.212-3.741c1.176-1.559-1.851-1.8,1.058-3.741c2.641-1.762,4.225-1.223,5.333-1.8
		c1.104-0.586,9.795-8.815,36.248-6.56c0,0,29.854,7.812,20.563,19.413c-9.286,11.604-0.395,6.921-0.395,6.921
		s1.049-2.904,9.749,5.125c8.708,8.033,5.698,7.749,2.42,14.182c-3.278,6.437-9.829,10.645-10.764,12.518
		c-0.934,1.876-2.62,1.63-1.872,4.683c0.751,3.054-0.493-0.534,0.751,3.054c1.24,3.588,3.792,0.637,3.176,3.303
		C84.1,76.219,82.924,75,83.7,78.41c0.777,3.409-3.38,5.244-3.38,5.244s-6.556,4.135-8.895,6.008
		C69.09,91.534,63.473,91.067,63.473,91.067z"/>
	<path fill="#FFDE00" d="M84.762,30.286v0.009c0.633-1.329,0.998-2.709,0.998-4.131v-5.961c0-9.872-16.012-17.884-35.755-17.884
		c-19.757,0-35.769,8.012-35.769,17.884c0-0.493,0.072-0.968,0.153-1.435C7,22.032,2.317,26.804,2.317,32.116v5.966
		c0,5.528,5.032,10.471,12.917,13.749l0,0c-0.628,1.324-0.998,2.713-0.998,4.136v5.957c0,2.093,0.76,4.089,2.089,5.957
		c-1.329,1.872-2.089,3.868-2.089,5.962v5.957c0,9.876,16.012,17.884,35.769,17.884c12.334,0,23.221-3.125,29.641-7.885
		c3.864-2.857,6.114-6.297,6.114-9.999v-5.957c0-2.132-0.79-4.161-2.148-6.06c-0.009,0.021-0.021,0.038-0.034,0.047
		c0.998-1.418,1.788-2.896,2.038-4.463C92.999,60.084,97.683,55.324,97.683,50v-5.957C97.683,38.51,92.655,33.563,84.762,30.286z
		 M50.004,5.298c19.315,0,32.775,7.855,32.775,14.904c0,7.04-13.46,14.899-32.775,14.899c-19.324,0-32.784-7.859-32.784-14.899
		C17.221,13.153,30.681,5.298,50.004,5.298z M5.302,32.116c0-3.478,3.299-7.137,8.934-9.961v4.008
		c0,9.868,16.012,17.88,35.769,17.88c2.947,0,5.8-0.2,8.539-0.535c-5.46,2.098-12.407,3.512-20.47,3.512
		C18.762,47.02,5.302,39.16,5.302,32.116z M82.779,73.842c0,7.044-13.46,14.898-32.775,14.898c-19.324,0-32.784-7.854-32.784-14.898
		c0-1.164,0.497-2.357,1.206-3.533c0,0-0.013-0.017-0.025-0.025c6,5.655,17.897,9.516,31.603,9.516
		c13.714,0,25.561-3.881,31.543-9.559l-0.004,0.005C82.266,71.446,82.779,72.652,82.779,73.842z M70.475,67.35
		c-5.474,2.102-12.416,3.516-20.47,3.516c-19.324,0-32.784-7.859-32.784-14.899c0-1.02,0.348-2.043,0.875-3.058
		c2.925,0.981,6.157,1.763,9.604,2.276c4.445,7.35,18.079,12.695,34.219,12.695c2.963,0,5.825-0.195,8.576-0.535
		C70.495,67.345,70.491,67.35,70.475,67.35z M61.919,58.938c-7.647,0-14.318-1.252-19.659-3.185
		c16.806-0.984,30.074-7.728,31.438-16.228c4.055-1.8,7.307-4.034,9.392-6.589h-0.004c7.214,2.934,11.617,7.125,11.617,11.107
		C94.702,51.083,81.238,58.938,61.919,58.938z M40.396,15.321v-2.942c1.915-0.06,3.254-0.153,4.021-0.274
		c1.219-0.193,2.212-0.575,2.979-1.153c0.524-0.395,0.921-0.921,1.191-1.58c0.155-0.393,0.234-0.688,0.234-0.879h5.078v22.005
		h-6.229V15.321H40.396z"/>
</g>
</svg>
