<?xml version="1.0" encoding="utf-8"?>
<!-- Generator: Adobe Illustrator 16.0.0, SVG Export Plug-In . SVG Version: 6.00 Build 0)  -->
<!DOCTYPE svg PUBLIC "-//W3C//DTD SVG 1.1//EN" "http://www.w3.org/Graphics/SVG/1.1/DTD/svg11.dtd">
<svg version="1.1" id="Layer_1" xmlns="http://www.w3.org/2000/svg" xmlns:xlink="http://www.w3.org/1999/xlink" x="0px" y="0px"
	 width="100px" height="100px" viewBox="0 0 100 100" enable-background="new 0 0 100 100" xml:space="preserve">
<g>
	<g>
		<g>
			<defs>
				<path id="SVGID_2_" d="M95.333,87.205c0,6.124-4.961,11.085-11.083,11.085H16.604c-6.122,0-11.082-4.961-11.082-11.085V12.792
					c0-6.121,4.959-11.083,11.082-11.083H84.25c6.122,0,11.083,4.962,11.083,11.083V87.205z"/>
			</defs>
			<clipPath id="SVGID_4_">
				<use xlink:href="#SVGID_2_"  overflow="visible"/>
			</clipPath>
			<g clip-path="url(#SVGID_4_)">
				<path fill="#6AC39C" stroke="#FFFFFF" stroke-width="0.5" stroke-miterlimit="10" d="M-9.8-70.571
					c0.281,0.831,1.602,0.477,1.317-0.362"/>
				<path fill="#6AC39C" stroke="#FFFFFF" stroke-width="0.5" stroke-miterlimit="10" d="M198.992,180.15
					c-0.878,0-0.878,1.363,0,1.363C199.873,181.514,199.873,180.15,198.992,180.15z"/>
				<polygon fill="#FBF8CF" stroke="#FFFFFF" stroke-width="0.5" stroke-miterlimit="10" points="125.206,-11.978 118.297,-8.991 
					123.756,4.826 				"/>
				<polygon fill="#B2DACC" stroke="#FFFFFF" stroke-width="0.5" stroke-miterlimit="10" points="111.911,-36.66 97.576,-0.701 
					110.875,-6.023 				"/>
				<polygon fill="#A6C0B4" stroke="#FFFFFF" stroke-width="0.5" stroke-miterlimit="10" points="111.911,-36.66 117.784,-15.813 
					118.297,-8.991 110.875,-6.023 				"/>
				<polygon fill="#8A969A" stroke="#FFFFFF" stroke-width="0.5" stroke-miterlimit="10" points="97.576,-0.701 110.875,42.785 
					100.27,60.498 				"/>
				<polygon fill="#6E867F" stroke="#FFFFFF" stroke-width="0.5" stroke-miterlimit="10" points="118.297,-8.991 123.756,4.826 
					97.576,-0.701 				"/>
				<polygon fill="#73A0B1" stroke="#FFFFFF" stroke-width="0.5" stroke-miterlimit="10" points="123.756,4.826 119.797,27.885 
					97.576,-0.701 				"/>
				<polygon fill="#73A0B1" stroke="#FFFFFF" stroke-width="0.5" stroke-miterlimit="10" points="119.797,27.885 100.27,60.498 
					130.752,69.144 				"/>
				<polygon fill="#94C6D2" stroke="#FFFFFF" stroke-width="0.5" stroke-miterlimit="10" points="130.752,69.144 117.858,79.168 
					100.27,60.498 				"/>
				<polygon fill="#A0AFB4" stroke="#FFFFFF" stroke-width="0.5" stroke-miterlimit="10" points="100.27,60.498 130.752,114.751 
					117.858,79.168 				"/>
				<polygon fill="#A0AFB4" stroke="#FFFFFF" stroke-width="0.5" stroke-miterlimit="10" points="97.576,-0.701 119.797,27.885 
					110.875,42.785 				"/>
				<polygon fill="#6CAB86" stroke="#FFFFFF" stroke-width="0.5" stroke-miterlimit="10" points="111.911,-36.66 86.887,-16.308 
					97.576,-0.701 				"/>
				<path fill="#66487B" stroke="#FFFFFF" stroke-width="0.5" stroke-miterlimit="10" d="M44.276-36.66"/>
				<polygon fill="#8E4A88" stroke="#FFFFFF" stroke-width="0.5" stroke-miterlimit="10" points="107.086,-53.869 78.624,-62.333 
					111.911,-36.66 				"/>
				<polygon fill="#3B9444" stroke="#FFFFFF" stroke-width="0.5" stroke-miterlimit="10" points="111.911,-36.66 86.887,-16.308 
					27.049,-0.493 				"/>
				<polygon fill="#FFDE00" stroke="#FFFFFF" stroke-width="0.5" stroke-miterlimit="10" points="97.576,-0.701 27.049,-0.493 
					70.351,35.578 				"/>
				<polygon fill="#FFDE00" stroke="#FFFFFF" stroke-width="0.5" stroke-miterlimit="10" points="78.624,-62.333 80.433,-23.244 
					27.049,-0.493 				"/>
				
					<line fill="none" stroke="#FFFFFF" stroke-width="0.5" stroke-miterlimit="10" x1="78.624" y1="-62.333" x2="107.086" y2="-53.869"/>
				<polygon fill="#3B9444" stroke="#FFFFFF" stroke-width="0.5" stroke-miterlimit="10" points="97.576,-0.701 100.27,60.498 
					70.351,35.578 				"/>
				<polygon fill="#585857" stroke="#FFFFFF" stroke-width="0.5" stroke-miterlimit="10" points="100.27,60.498 129.556,137.808 
					130.752,114.751 				"/>
				<polygon fill="#FFDE00" stroke="#FFFFFF" stroke-width="0.5" stroke-miterlimit="10" points="100.27,60.498 39.915,118.63 
					112.307,92.274 				"/>
				<polygon fill="#6F6490" stroke="#FFFFFF" stroke-width="0.5" stroke-miterlimit="10" points="78.624,-62.333 111.911,-36.66 
					80.433,-23.244 				"/>
				<polygon fill="#263776" stroke="#FFFFFF" stroke-width="0.5" stroke-miterlimit="10" points="86.887,-16.308 97.576,-0.701 
					27.049,-0.493 				"/>
				<path fill="#867992" stroke="#FFFFFF" stroke-width="0.5" stroke-miterlimit="10" d="M-6.895-69.868"/>
				<polygon fill="#263776" stroke="#FFFFFF" stroke-width="0.5" stroke-miterlimit="10" points="-9.417,3.603 21.872,75.759 
					-9.436,67.483 				"/>
				<polygon fill="#263776" stroke="#FFFFFF" stroke-width="0.5" stroke-miterlimit="10" points="-9.417,3.603 100.27,60.498 
					27.049,-0.493 				"/>
				<polygon fill="#3B9444" stroke="#FFFFFF" stroke-width="0.5" stroke-miterlimit="10" points="-9.417,3.603 78.624,-62.333 
					27.049,-0.493 				"/>
				<polygon fill="#FFDE00" stroke="#FFFFFF" stroke-width="0.5" stroke-miterlimit="10" points="-9.417,3.603 16.773,17.188 
					4.068,34.702 				"/>
				<polygon fill="#3B9444" stroke="#FFFFFF" stroke-width="0.5" stroke-miterlimit="10" points="4.068,34.702 42.289,30.424 
					16.773,17.188 				"/>
				<polygon fill="#FFDE00" stroke="#FFFFFF" stroke-width="0.5" stroke-miterlimit="10" points="42.289,30.424 21.872,75.759 
					4.068,34.702 				"/>
				<polygon fill="#3B9444" stroke="#FFFFFF" stroke-width="0.5" stroke-miterlimit="10" points="42.289,30.424 100.27,60.498 
					21.872,75.759 				"/>
				<polygon fill="#263776" stroke="#FFFFFF" stroke-width="0.5" stroke-miterlimit="10" points="100.27,60.498 39.915,118.63 
					21.872,75.759 				"/>
				<path fill="#6F6490" stroke="#FFFFFF" stroke-width="0.5" stroke-miterlimit="10" d="M-6.895-69.868"/>
				<path fill="#A99DCC" stroke="#FFFFFF" stroke-width="0.5" stroke-miterlimit="10" d="M-6.895-69.868"/>
				<polygon fill="#263776" stroke="#FFFFFF" stroke-width="0.5" stroke-miterlimit="10" points="21.872,75.759 -9.449,115.595 
					15.242,148.423 				"/>
				<polygon fill="#FFDE00" stroke="#FFFFFF" stroke-width="0.5" stroke-miterlimit="10" points="21.872,75.759 39.915,118.63 
					15.242,148.423 				"/>
				<polygon fill="#3B9444" stroke="#FFFFFF" stroke-width="0.5" stroke-miterlimit="10" points="21.872,75.759 -9.436,67.483 
					-9.449,115.595 				"/>
				<polygon fill="#3B9444" stroke="#FFFFFF" stroke-width="0.5" stroke-miterlimit="10" points="39.915,118.63 112.307,92.274 
					57.438,157.931 				"/>
				<polygon fill="#687D6F" stroke="#FFFFFF" stroke-width="0.5" stroke-miterlimit="10" points="112.307,92.274 129.556,137.808 
					57.438,157.931 				"/>
			</g>
		</g>
		<g>
			<path id="SVGID_1_" fill="none" stroke="#FFFFFF" stroke-width="0.5" stroke-miterlimit="10" d="M95.333,87.205
				c0,6.124-4.961,11.085-11.083,11.085H16.604c-6.122,0-11.082-4.961-11.082-11.085V12.792c0-6.121,4.959-11.083,11.082-11.083
				H84.25c6.122,0,11.083,4.962,11.083,11.083V87.205z"/>
		</g>
	</g>
	<g>
		<g>
			<defs>
				<circle id="SVGID_5_" cx="50.426" cy="50" r="39.423"/>
			</defs>
			<clipPath id="SVGID_6_">
				<use xlink:href="#SVGID_5_"  overflow="visible"/>
			</clipPath>
			<polygon clip-path="url(#SVGID_6_)" fill="#B2DACC" points="138.456,-11.597 122.134,29.351 137.28,23.29 			"/>
		</g>
		<g>
			<defs>
				<circle id="SVGID_7_" cx="50.426" cy="50" r="39.423"/>
			</defs>
			<clipPath id="SVGID_8_">
				<use xlink:href="#SVGID_7_"  overflow="visible"/>
			</clipPath>
			<polygon clip-path="url(#SVGID_8_)" fill="#A6C0B4" points="138.456,-11.597 145.144,12.143 145.729,19.91 137.28,23.29 			"/>
		</g>
		<g>
			<defs>
				<circle id="SVGID_9_" cx="50.426" cy="50" r="39.423"/>
			</defs>
			<clipPath id="SVGID_10_">
				<use xlink:href="#SVGID_9_"  overflow="visible"/>
			</clipPath>
			<polygon clip-path="url(#SVGID_10_)" fill="#8A969A" points="122.134,29.351 137.28,78.868 125.201,99.038 			"/>
		</g>
		<g>
			<defs>
				<circle id="SVGID_11_" cx="50.426" cy="50" r="39.423"/>
			</defs>
			<clipPath id="SVGID_12_">
				<use xlink:href="#SVGID_11_"  overflow="visible"/>
			</clipPath>
			<polygon clip-path="url(#SVGID_12_)" fill="#6E867F" points="145.729,19.91 151.947,35.646 122.134,29.351 			"/>
		</g>
		<g>
			<defs>
				<circle id="SVGID_13_" cx="50.426" cy="50" r="39.423"/>
			</defs>
			<clipPath id="SVGID_14_">
				<use xlink:href="#SVGID_13_"  overflow="visible"/>
			</clipPath>
			<polygon clip-path="url(#SVGID_14_)" fill="#73A0B1" points="151.947,35.646 147.438,61.904 122.134,29.351 			"/>
		</g>
		<g>
			<defs>
				<circle id="SVGID_15_" cx="50.426" cy="50" r="39.423"/>
			</defs>
			<clipPath id="SVGID_16_">
				<use xlink:href="#SVGID_15_"  overflow="visible"/>
			</clipPath>
			<polygon clip-path="url(#SVGID_16_)" fill="#73A0B1" points="147.438,61.904 125.201,99.038 159.91,108.884 			"/>
		</g>
		<g>
			<defs>
				<circle id="SVGID_17_" cx="50.426" cy="50" r="39.423"/>
			</defs>
			<clipPath id="SVGID_18_">
				<use xlink:href="#SVGID_17_"  overflow="visible"/>
			</clipPath>
			<polygon clip-path="url(#SVGID_18_)" fill="#94C6D2" points="159.91,108.884 145.229,120.299 125.201,99.038 			"/>
		</g>
		<g>
			<defs>
				<circle id="SVGID_19_" cx="50.426" cy="50" r="39.423"/>
			</defs>
			<clipPath id="SVGID_20_">
				<use xlink:href="#SVGID_19_"  overflow="visible"/>
			</clipPath>
			<polygon clip-path="url(#SVGID_20_)" fill="#A0AFB4" points="125.201,99.038 159.91,160.814 145.229,120.299 			"/>
		</g>
		<g>
			<defs>
				<circle id="SVGID_21_" cx="50.426" cy="50" r="39.423"/>
			</defs>
			<clipPath id="SVGID_22_">
				<use xlink:href="#SVGID_21_"  overflow="visible"/>
			</clipPath>
			<polygon clip-path="url(#SVGID_22_)" fill="#A0AFB4" points="122.134,29.351 147.438,61.904 137.28,78.868 			"/>
		</g>
		<g>
			<defs>
				<circle id="SVGID_23_" cx="50.426" cy="50" r="39.423"/>
			</defs>
			<clipPath id="SVGID_24_">
				<use xlink:href="#SVGID_23_"  overflow="visible"/>
			</clipPath>
			<polygon clip-path="url(#SVGID_24_)" fill="#6CAB86" points="138.456,-11.597 109.96,11.578 122.134,29.351 			"/>
		</g>
		<g>
			<defs>
				<circle id="SVGID_25_" cx="50.426" cy="50" r="39.423"/>
			</defs>
			<clipPath id="SVGID_26_">
				<use xlink:href="#SVGID_25_"  overflow="visible"/>
			</clipPath>
			<path clip-path="url(#SVGID_26_)" fill="#66487B" d="M61.441-11.597"/>
		</g>
		<g>
			<defs>
				<circle id="SVGID_27_" cx="50.426" cy="50" r="39.423"/>
			</defs>
			<clipPath id="SVGID_28_">
				<use xlink:href="#SVGID_27_"  overflow="visible"/>
			</clipPath>
			<polygon clip-path="url(#SVGID_28_)" fill="#8E4A88" points="132.962,-31.189 100.554,-40.828 138.456,-11.597 			"/>
		</g>
		<g>
			<defs>
				<circle id="SVGID_29_" cx="50.426" cy="50" r="39.423"/>
			</defs>
			<clipPath id="SVGID_30_">
				<use xlink:href="#SVGID_29_"  overflow="visible"/>
			</clipPath>
			<polygon clip-path="url(#SVGID_30_)" fill="#3653A4" points="138.456,-11.597 109.96,11.578 41.825,29.587 			"/>
		</g>
		<g>
			<defs>
				<circle id="SVGID_31_" cx="50.426" cy="50" r="39.423"/>
			</defs>
			<clipPath id="SVGID_32_">
				<use xlink:href="#SVGID_31_"  overflow="visible"/>
			</clipPath>
			<polygon clip-path="url(#SVGID_32_)" fill="#3457A6" points="122.134,29.351 41.825,29.587 91.132,70.661 			"/>
		</g>
		<g>
			<defs>
				<circle id="SVGID_33_" cx="50.426" cy="50" r="39.423"/>
			</defs>
			<clipPath id="SVGID_34_">
				<use xlink:href="#SVGID_33_"  overflow="visible"/>
			</clipPath>
			<polygon clip-path="url(#SVGID_34_)" fill="#4562AC" points="100.554,-40.828 102.609,3.678 41.825,29.587 			"/>
		</g>
		<g>
			<defs>
				<circle id="SVGID_35_" cx="50.426" cy="50" r="39.423"/>
			</defs>
			<clipPath id="SVGID_36_">
				<use xlink:href="#SVGID_35_"  overflow="visible"/>
			</clipPath>
			<line clip-path="url(#SVGID_36_)" fill="none" x1="100.554" y1="-40.828" x2="132.962" y2="-31.189"/>
		</g>
		<g>
			<defs>
				<circle id="SVGID_37_" cx="50.426" cy="50" r="39.423"/>
			</defs>
			<clipPath id="SVGID_38_">
				<use xlink:href="#SVGID_37_"  overflow="visible"/>
			</clipPath>
			<polygon clip-path="url(#SVGID_38_)" fill="#3B9444" points="122.134,29.351 125.201,99.038 91.132,70.661 			"/>
		</g>
		<g>
			<defs>
				<circle id="SVGID_39_" cx="50.426" cy="50" r="39.423"/>
			</defs>
			<clipPath id="SVGID_40_">
				<use xlink:href="#SVGID_39_"  overflow="visible"/>
			</clipPath>
			<polygon clip-path="url(#SVGID_40_)" fill="#585857" points="125.201,99.038 158.55,187.068 159.91,160.814 			"/>
		</g>
		<g>
			<defs>
				<circle id="SVGID_41_" cx="50.426" cy="50" r="39.423"/>
			</defs>
			<clipPath id="SVGID_42_">
				<use xlink:href="#SVGID_41_"  overflow="visible"/>
			</clipPath>
			<polygon clip-path="url(#SVGID_42_)" fill="#FFDE00" points="125.201,99.038 56.473,165.232 138.909,135.227 			"/>
		</g>
		<g>
			<defs>
				<circle id="SVGID_43_" cx="50.426" cy="50" r="39.423"/>
			</defs>
			<clipPath id="SVGID_44_">
				<use xlink:href="#SVGID_43_"  overflow="visible"/>
			</clipPath>
			<polygon clip-path="url(#SVGID_44_)" fill="#6F6490" points="100.554,-40.828 138.456,-11.597 102.609,3.678 			"/>
		</g>
		<g>
			<defs>
				<circle id="SVGID_45_" cx="50.426" cy="50" r="39.423"/>
			</defs>
			<clipPath id="SVGID_46_">
				<use xlink:href="#SVGID_45_"  overflow="visible"/>
			</clipPath>
			<polygon clip-path="url(#SVGID_46_)" fill="#24479D" points="109.96,11.578 122.134,29.351 41.825,29.587 			"/>
		</g>
		<g>
			<defs>
				<circle id="SVGID_47_" cx="50.426" cy="50" r="39.423"/>
			</defs>
			<clipPath id="SVGID_48_">
				<use xlink:href="#SVGID_47_"  overflow="visible"/>
			</clipPath>
			<polygon clip-path="url(#SVGID_48_)" fill="#263776" points="0.299,34.254 35.93,116.417 0.278,106.992 			"/>
		</g>
		<g>
			<defs>
				<circle id="SVGID_49_" cx="50.426" cy="50" r="39.423"/>
			</defs>
			<clipPath id="SVGID_50_">
				<use xlink:href="#SVGID_49_"  overflow="visible"/>
			</clipPath>
			<polygon clip-path="url(#SVGID_50_)" fill="#1D469C" points="0.299,34.254 125.201,99.038 41.825,29.587 			"/>
		</g>
		<g>
			<defs>
				<circle id="SVGID_51_" cx="50.426" cy="50" r="39.423"/>
			</defs>
			<clipPath id="SVGID_52_">
				<use xlink:href="#SVGID_51_"  overflow="visible"/>
			</clipPath>
			<polygon clip-path="url(#SVGID_52_)" fill="#3457A6" points="0.299,34.254 100.554,-40.828 41.825,29.587 			"/>
		</g>
		<g>
			<defs>
				<circle id="SVGID_53_" cx="50.426" cy="50" r="39.423"/>
			</defs>
			<clipPath id="SVGID_54_">
				<use xlink:href="#SVGID_53_"  overflow="visible"/>
			</clipPath>
			<polygon clip-path="url(#SVGID_54_)" fill="#24479D" points="0.299,34.254 30.125,49.722 15.655,69.66 			"/>
		</g>
		<g>
			<defs>
				<circle id="SVGID_55_" cx="50.426" cy="50" r="39.423"/>
			</defs>
			<clipPath id="SVGID_56_">
				<use xlink:href="#SVGID_55_"  overflow="visible"/>
			</clipPath>
			<polygon clip-path="url(#SVGID_56_)" fill="#324FA1" points="15.655,69.66 59.178,64.791 30.125,49.722 			"/>
		</g>
		<g>
			<defs>
				<circle id="SVGID_57_" cx="50.426" cy="50" r="39.423"/>
			</defs>
			<clipPath id="SVGID_58_">
				<use xlink:href="#SVGID_57_"  overflow="visible"/>
			</clipPath>
			<polygon clip-path="url(#SVGID_58_)" fill="#3A5CA9" points="59.178,64.791 35.93,116.417 15.655,69.66 			"/>
		</g>
		<g>
			<defs>
				<circle id="SVGID_59_" cx="50.426" cy="50" r="39.423"/>
			</defs>
			<clipPath id="SVGID_60_">
				<use xlink:href="#SVGID_59_"  overflow="visible"/>
			</clipPath>
			<polygon clip-path="url(#SVGID_60_)" fill="#3554A4" points="59.178,64.791 125.201,99.038 35.93,116.417 			"/>
		</g>
		<g>
			<defs>
				<circle id="SVGID_61_" cx="50.426" cy="50" r="39.423"/>
			</defs>
			<clipPath id="SVGID_62_">
				<use xlink:href="#SVGID_61_"  overflow="visible"/>
			</clipPath>
			<polygon clip-path="url(#SVGID_62_)" fill="#263776" points="125.201,99.038 56.473,165.232 35.93,116.417 			"/>
		</g>
		<g>
			<defs>
				<circle id="SVGID_63_" cx="50.426" cy="50" r="39.423"/>
			</defs>
			<clipPath id="SVGID_64_">
				<use xlink:href="#SVGID_63_"  overflow="visible"/>
			</clipPath>
			<polygon clip-path="url(#SVGID_64_)" fill="#263776" points="35.93,116.417 0.262,161.776 28.38,199.157 			"/>
		</g>
		<g>
			<defs>
				<circle id="SVGID_65_" cx="50.426" cy="50" r="39.423"/>
			</defs>
			<clipPath id="SVGID_66_">
				<use xlink:href="#SVGID_65_"  overflow="visible"/>
			</clipPath>
			<polygon clip-path="url(#SVGID_66_)" fill="#FFDE00" points="35.93,116.417 56.473,165.232 28.38,199.157 			"/>
		</g>
		<g>
			<defs>
				<circle id="SVGID_67_" cx="50.426" cy="50" r="39.423"/>
			</defs>
			<clipPath id="SVGID_68_">
				<use xlink:href="#SVGID_67_"  overflow="visible"/>
			</clipPath>
			<polygon clip-path="url(#SVGID_68_)" fill="#3B9444" points="35.93,116.417 0.278,106.992 0.262,161.776 			"/>
		</g>
		<g>
			<defs>
				<circle id="SVGID_69_" cx="50.426" cy="50" r="39.423"/>
			</defs>
			<clipPath id="SVGID_70_">
				<use xlink:href="#SVGID_69_"  overflow="visible"/>
			</clipPath>
			<polygon clip-path="url(#SVGID_70_)" fill="#3B9444" points="56.473,165.232 138.909,135.227 76.428,209.986 			"/>
		</g>
		<g>
			<defs>
				<circle id="SVGID_71_" cx="50.426" cy="50" r="39.423"/>
			</defs>
			<clipPath id="SVGID_72_">
				<use xlink:href="#SVGID_71_"  overflow="visible"/>
			</clipPath>
			<polygon clip-path="url(#SVGID_72_)" fill="#687D6F" points="138.909,135.227 158.55,187.068 76.428,209.986 			"/>
		</g>
		<g>
			<circle id="SVGID_3_" fill="none" stroke="#FFFFFF" stroke-miterlimit="10" cx="50.426" cy="50" r="39.423"/>
		</g>
	</g>
	<g>
		<g>
			<polygon fill="#FFFFFF" points="25.31,80.386 34.984,86.315 34.984,39.651 76.348,39.651 76.348,30.801 25.31,30.801 			"/>
			<rect x="38.321" y="51.691" fill="#FFFFFF" width="20.357" height="8.858"/>
		</g>
	</g>
</g>
</svg>
