<?xml version="1.0" encoding="utf-8"?>
<!-- Generator: Adobe Illustrator 16.0.0, SVG Export Plug-In . SVG Version: 6.00 Build 0)  -->
<!DOCTYPE svg PUBLIC "-//W3C//DTD SVG 1.1//EN" "http://www.w3.org/Graphics/SVG/1.1/DTD/svg11.dtd">
<svg version="1.1" id="Layer_1" xmlns="http://www.w3.org/2000/svg" xmlns:xlink="http://www.w3.org/1999/xlink" x="0px" y="0px"
	 width="100px" height="100px" viewBox="0 0 100 100" enable-background="new 0 0 100 100" xml:space="preserve">
<g>
	<g>
		<defs>
			<path id="SVGID_1_" d="M78.801,73.508c0,3.869-3.135,7.004-7.003,7.004H29.056c-3.868,0-7.002-3.135-7.002-7.004V26.49
				c0-3.867,3.134-7.002,7.002-7.002h42.742c3.868,0,7.003,3.135,7.003,7.002V73.508z"/>
		</defs>
		<clipPath id="SVGID_2_">
			<use xlink:href="#SVGID_1_"  overflow="visible"/>
		</clipPath>
		<g clip-path="url(#SVGID_2_)">
			<path fill="#6AC39C" stroke="#FFFFFF" stroke-width="0.5" stroke-miterlimit="10" d="M12.373-26.182
				c0.178,0.525,1.012,0.301,0.832-0.229"/>
			<path fill="#6AC39C" stroke="#FFFFFF" stroke-width="0.5" stroke-miterlimit="10" d="M144.297,132.234
				c-0.555,0-0.555,0.861,0,0.861C144.854,133.096,144.854,132.234,144.297,132.234z"/>
			<polygon fill="#FBF8CF" stroke="#FFFFFF" stroke-width="0.5" stroke-miterlimit="10" points="97.676,10.84 93.311,12.727 
				96.76,21.457 			"/>
			<polygon fill="#B2DACC" stroke="#FFFFFF" stroke-width="0.5" stroke-miterlimit="10" points="89.275,-4.756 80.218,17.965 
				88.621,14.602 			"/>
			<polygon fill="#A6C0B4" stroke="#FFFFFF" stroke-width="0.5" stroke-miterlimit="10" points="89.275,-4.756 92.986,8.416 
				93.311,12.727 88.621,14.602 			"/>
			<polygon fill="#8A969A" stroke="#FFFFFF" stroke-width="0.5" stroke-miterlimit="10" points="80.218,17.965 88.621,45.441 
				81.92,56.633 			"/>
			<polygon fill="#6E867F" stroke="#FFFFFF" stroke-width="0.5" stroke-miterlimit="10" points="93.311,12.727 96.76,21.457 
				80.218,17.965 			"/>
			<polygon fill="#73A0B1" stroke="#FFFFFF" stroke-width="0.5" stroke-miterlimit="10" points="96.76,21.457 94.258,36.027 
				80.218,17.965 			"/>
			<polygon fill="#73A0B1" stroke="#FFFFFF" stroke-width="0.5" stroke-miterlimit="10" points="94.258,36.027 81.92,56.633 
				101.18,62.096 			"/>
			<polygon fill="#94C6D2" stroke="#FFFFFF" stroke-width="0.5" stroke-miterlimit="10" points="101.18,62.096 93.033,68.43 
				81.92,56.633 			"/>
			<polygon fill="#A0AFB4" stroke="#FFFFFF" stroke-width="0.5" stroke-miterlimit="10" points="81.92,56.633 101.18,90.912 
				93.033,68.43 			"/>
			<polygon fill="#A0AFB4" stroke="#FFFFFF" stroke-width="0.5" stroke-miterlimit="10" points="80.218,17.965 94.258,36.027 
				88.621,45.441 			"/>
			<polygon fill="#6CAB86" stroke="#FFFFFF" stroke-width="0.5" stroke-miterlimit="10" points="89.275,-4.756 73.464,8.104 
				80.218,17.965 			"/>
			<path fill="#66487B" stroke="#FFFFFF" stroke-width="0.5" stroke-miterlimit="10" d="M46.541-4.756"/>
			<polygon fill="#8E4A88" stroke="#FFFFFF" stroke-width="0.5" stroke-miterlimit="10" points="86.227,-15.629 68.243,-20.977 
				89.275,-4.756 			"/>
			<polygon fill="#3B9444" stroke="#FFFFFF" stroke-width="0.5" stroke-miterlimit="10" points="89.275,-4.756 73.464,8.104 
				35.656,18.096 			"/>
			<polygon fill="#FFDE00" stroke="#FFFFFF" stroke-width="0.5" stroke-miterlimit="10" points="80.218,17.965 35.656,18.096 
				63.016,40.887 			"/>
			<polygon fill="#FFDE00" stroke="#FFFFFF" stroke-width="0.5" stroke-miterlimit="10" points="68.243,-20.977 69.386,3.721 
				35.656,18.096 			"/>
			
				<line fill="#7A7491" stroke="#FFFFFF" stroke-width="0.5" stroke-miterlimit="10" x1="68.243" y1="-20.977" x2="86.227" y2="-15.629"/>
			<polygon fill="#3B9444" stroke="#FFFFFF" stroke-width="0.5" stroke-miterlimit="10" points="80.218,17.965 81.92,56.633 
				63.016,40.887 			"/>
			<polygon fill="#585857" stroke="#FFFFFF" stroke-width="0.5" stroke-miterlimit="10" points="81.92,56.633 100.424,105.48 
				101.18,90.912 			"/>
			<polygon fill="#FFDE00" stroke="#FFFFFF" stroke-width="0.5" stroke-miterlimit="10" points="81.92,56.633 43.785,93.363 
				89.525,76.711 			"/>
			<polygon fill="#6F6490" stroke="#FFFFFF" stroke-width="0.5" stroke-miterlimit="10" points="68.243,-20.977 89.275,-4.756 
				69.386,3.721 			"/>
			<polygon fill="#263776" stroke="#FFFFFF" stroke-width="0.5" stroke-miterlimit="10" points="73.464,8.104 80.218,17.965 
				35.656,18.096 			"/>
			<path fill="#867992" stroke="#FFFFFF" stroke-width="0.5" stroke-miterlimit="10" d="M14.209-25.738"/>
			<polygon fill="#263776" stroke="#FFFFFF" stroke-width="0.5" stroke-miterlimit="10" points="12.615,20.684 32.385,66.275 
				12.603,61.047 			"/>
			<polygon fill="#263776" stroke="#FFFFFF" stroke-width="0.5" stroke-miterlimit="10" points="12.615,20.684 81.92,56.633 
				35.656,18.096 			"/>
			<polygon fill="#3B9444" stroke="#FFFFFF" stroke-width="0.5" stroke-miterlimit="10" points="12.615,20.684 68.243,-20.977 
				35.656,18.096 			"/>
			<polygon fill="#FFDE00" stroke="#FFFFFF" stroke-width="0.5" stroke-miterlimit="10" points="12.615,20.684 29.163,29.268 
				21.136,40.334 			"/>
			<polygon fill="#3B9444" stroke="#FFFFFF" stroke-width="0.5" stroke-miterlimit="10" points="21.136,40.334 45.285,37.631 
				29.163,29.268 			"/>
			<polygon fill="#FFDE00" stroke="#FFFFFF" stroke-width="0.5" stroke-miterlimit="10" points="45.285,37.631 32.385,66.275 
				21.136,40.334 			"/>
			<polygon fill="#3B9444" stroke="#FFFFFF" stroke-width="0.5" stroke-miterlimit="10" points="45.285,37.631 81.92,56.633 
				32.385,66.275 			"/>
			<polygon fill="#263776" stroke="#FFFFFF" stroke-width="0.5" stroke-miterlimit="10" points="81.92,56.633 43.785,93.363 
				32.385,66.275 			"/>
			<path fill="#6F6490" stroke="#FFFFFF" stroke-width="0.5" stroke-miterlimit="10" d="M14.209-25.738"/>
			<path fill="#A99DCC" stroke="#FFFFFF" stroke-width="0.5" stroke-miterlimit="10" d="M14.209-25.738"/>
			<polygon fill="#263776" stroke="#FFFFFF" stroke-width="0.5" stroke-miterlimit="10" points="32.385,66.275 12.595,91.445 
				28.196,112.188 			"/>
			<polygon fill="#FFDE00" stroke="#FFFFFF" stroke-width="0.5" stroke-miterlimit="10" points="32.385,66.275 43.785,93.363 
				28.196,112.188 			"/>
			<polygon fill="#3B9444" stroke="#FFFFFF" stroke-width="0.5" stroke-miterlimit="10" points="32.385,66.275 12.603,61.047 
				12.595,91.445 			"/>
			<polygon fill="#3B9444" stroke="#FFFFFF" stroke-width="0.5" stroke-miterlimit="10" points="43.785,93.363 89.525,76.711 
				54.857,118.195 			"/>
			<polygon fill="#687D6F" stroke="#FFFFFF" stroke-width="0.5" stroke-miterlimit="10" points="89.525,76.711 100.424,105.48 
				54.857,118.195 			"/>
		</g>
		<use xlink:href="#SVGID_1_"  overflow="visible" fill="none" stroke="#FFFFFF" stroke-width="0.5" stroke-miterlimit="10"/>
	</g>
	<g>
		<defs>
			<circle id="SVGID_3_" cx="50.427" cy="50" r="24.909"/>
		</defs>
		<clipPath id="SVGID_4_">
			<use xlink:href="#SVGID_3_"  overflow="visible"/>
		</clipPath>
		<polygon clip-path="url(#SVGID_4_)" fill="#B2DACC" points="106.048,11.08 95.734,36.953 105.304,33.123 		"/>
		<polygon clip-path="url(#SVGID_4_)" fill="#A6C0B4" points="106.048,11.08 110.274,26.08 110.643,30.988 105.304,33.123 		"/>
		<polygon clip-path="url(#SVGID_4_)" fill="#8A969A" points="95.734,36.953 105.304,68.24 97.673,80.984 		"/>
		<polygon clip-path="url(#SVGID_4_)" fill="#6E867F" points="110.643,30.988 114.572,40.93 95.734,36.953 		"/>
		<polygon clip-path="url(#SVGID_4_)" fill="#73A0B1" points="114.572,40.93 111.723,57.521 95.734,36.953 		"/>
		<polygon clip-path="url(#SVGID_4_)" fill="#73A0B1" points="111.723,57.521 97.673,80.984 119.604,87.205 		"/>
		<polygon clip-path="url(#SVGID_4_)" fill="#94C6D2" points="119.604,87.205 110.327,94.418 97.673,80.984 		"/>
		<polygon clip-path="url(#SVGID_4_)" fill="#A0AFB4" points="97.673,80.984 119.604,120.018 110.327,94.418 		"/>
		<polygon clip-path="url(#SVGID_4_)" fill="#A0AFB4" points="95.734,36.953 111.723,57.521 105.304,68.24 		"/>
		<polygon clip-path="url(#SVGID_4_)" fill="#6CAB86" points="106.048,11.08 88.043,25.723 95.734,36.953 		"/>
		<path clip-path="url(#SVGID_4_)" fill="#66487B" d="M57.387,11.08"/>
		<polygon clip-path="url(#SVGID_4_)" fill="#8E4A88" points="102.576,-1.299 82.099,-7.389 106.048,11.08 		"/>
		<polygon clip-path="url(#SVGID_4_)" fill="#3653A4" points="106.048,11.08 88.043,25.723 44.992,37.102 		"/>
		<polygon clip-path="url(#SVGID_4_)" fill="#3457A6" points="95.734,36.953 44.992,37.102 76.146,63.055 		"/>
		<polygon clip-path="url(#SVGID_4_)" fill="#4562AC" points="82.099,-7.389 83.399,20.732 44.992,37.102 		"/>
		<line clip-path="url(#SVGID_4_)" fill="#7A7491" x1="82.099" y1="-7.389" x2="102.576" y2="-1.299"/>
		<polygon clip-path="url(#SVGID_4_)" fill="#3B9444" points="95.734,36.953 97.673,80.984 76.146,63.055 		"/>
		<polygon clip-path="url(#SVGID_4_)" fill="#585857" points="97.673,80.984 118.744,136.605 119.604,120.018 		"/>
		<polygon clip-path="url(#SVGID_4_)" fill="#FFDE00" points="97.673,80.984 54.247,122.809 106.334,103.85 		"/>
		<polygon clip-path="url(#SVGID_4_)" fill="#6F6490" points="82.099,-7.389 106.048,11.08 83.399,20.732 		"/>
		<polygon clip-path="url(#SVGID_4_)" fill="#24479D" points="88.043,25.723 95.734,36.953 44.992,37.102 		"/>
		<polygon clip-path="url(#SVGID_4_)" fill="#263776" points="18.754,40.051 41.267,91.965 18.741,86.01 		"/>
		<polygon clip-path="url(#SVGID_4_)" fill="#1D469C" points="18.754,40.051 97.673,80.984 44.992,37.102 		"/>
		<polygon clip-path="url(#SVGID_4_)" fill="#3457A6" points="18.754,40.051 82.099,-7.389 44.992,37.102 		"/>
		<polygon clip-path="url(#SVGID_4_)" fill="#24479D" points="18.754,40.051 37.599,49.824 28.457,62.422 		"/>
		<polygon clip-path="url(#SVGID_4_)" fill="#324FA1" points="28.457,62.422 55.956,59.346 37.599,49.824 		"/>
		<polygon clip-path="url(#SVGID_4_)" fill="#3A5CA9" points="55.956,59.346 41.267,91.965 28.457,62.422 		"/>
		<polygon clip-path="url(#SVGID_4_)" fill="#3554A4" points="55.956,59.346 97.673,80.984 41.267,91.965 		"/>
		<polygon clip-path="url(#SVGID_4_)" fill="#263776" points="97.673,80.984 54.247,122.809 41.267,91.965 		"/>
		<polygon clip-path="url(#SVGID_4_)" fill="#263776" points="41.267,91.965 18.731,120.625 36.497,144.244 		"/>
		<polygon clip-path="url(#SVGID_4_)" fill="#FFDE00" points="41.267,91.965 54.247,122.809 36.497,144.244 		"/>
		<polygon clip-path="url(#SVGID_4_)" fill="#3B9444" points="41.267,91.965 18.741,86.01 18.731,120.625 		"/>
		<polygon clip-path="url(#SVGID_4_)" fill="#3B9444" points="54.247,122.809 106.334,103.85 66.856,151.086 		"/>
		<polygon clip-path="url(#SVGID_4_)" fill="#687D6F" points="106.334,103.85 118.744,136.605 66.856,151.086 		"/>
		<use xlink:href="#SVGID_3_"  overflow="visible" fill="none" stroke="#FFFFFF" stroke-miterlimit="10"/>
	</g>
	<g>
		<g>
			<polygon fill="#FFFFFF" points="34.557,69.199 40.67,72.945 40.67,43.461 66.805,43.461 66.805,37.869 34.557,37.869 			"/>
			<rect x="42.778" y="51.068" fill="#FFFFFF" width="12.863" height="5.598"/>
		</g>
	</g>
</g>
</svg>
